<?xml version="1.0" standalone="no"?>
<!DOCTYPE svg PUBLIC "-//W3C//DTD SVG 1.1//EN" "http://www.w3.org/Graphics/SVG/1.1/DTD/svg11.dtd" >
<svg xmlns="http://www.w3.org/2000/svg">
<metadata></metadata>
<defs>
<font id="merelbold" horiz-adv-x="724" >
<font-face units-per-em="2048" ascent="1638" descent="-410" />
<missing-glyph horiz-adv-x="489" />
<glyph horiz-adv-x="0" />
<glyph horiz-adv-x="682" />
<glyph unicode=" "  horiz-adv-x="489" />
<glyph unicode="&#x09;" horiz-adv-x="489" />
<glyph unicode="&#xa0;" horiz-adv-x="489" />
<glyph unicode="!" horiz-adv-x="448" d="M70 113q0 64 44 104.5t109 40.5t109.5 -40.5t44.5 -104.5q0 -62 -44.5 -103t-109.5 -41t-109 41t-44 103zM90 1100v231q57 11 133 11t133 -11v-231l-57 -631q-76 -19 -154 0z" />
<glyph unicode="&#x22;" horiz-adv-x="786" d="M70 928v403q57 11 132 11t132 -11l-78 -403q-57 -10 -93 -10t-93 10zM453 928v403q57 11 132 11t132 -11l-78 -403q-57 -10 -93 -10t-93 10z" />
<glyph unicode="#" horiz-adv-x="1157" d="M72 442q-3 25 11 73.5t28 66.5h198l47 168h-196q-3 25 11 73t28 66h198l127 442q77 21 154 0l-127 -442h184l127 442q77 21 154 0l-127 -442h196q3 -26 -10.5 -73.5t-27.5 -65.5h-199l-49 -168h198q3 -26 -11.5 -74t-29.5 -66h-196l-127 -442q-77 -21 -154 0l127 442 h-184l-127 -442q-77 -21 -154 0l127 442h-196zM461 582h184l49 168h-184z" />
<glyph unicode="$" horiz-adv-x="1140" d="M106 954q0 162 111.5 277.5t306.5 128.5v192q43 22 86 0v-192q187 -8 336 -109q11 -32 12.5 -132.5t-12.5 -121.5q-219 144 -371 144q-92 0 -146 -44t-54 -116q0 -31 11 -55t29.5 -42t56 -35.5t76 -31t103.5 -33.5q64 -20 109.5 -38t101.5 -52t91 -74t59 -103t24 -140 q0 -179 -119 -286.5t-307 -119.5v-192q-43 -22 -86 0v190q-98 4 -196.5 34t-173.5 77q-11 29 -12 132.5t12 123.5q224 -146 395 -146q103 0 160 46t57 120q0 33 -11.5 58t-29.5 43t-57.5 36.5t-76.5 31.5t-106 34q-63 21 -109.5 40.5t-100.5 53t-88.5 73t-57.5 98.5t-23 130 z" />
<glyph unicode="%" horiz-adv-x="1548" d="M70 1014q0 158 79 253t213 95t213.5 -95t79.5 -253t-79.5 -253t-213.5 -95t-213 95t-79 253zM250 1014q0 -201 112 -201q51 0 82 47t31 154q0 200 -113 200q-112 0 -112 -200zM381 0l631 1331q76 21 153 0l-630 -1331q-77 -21 -154 0zM891 317q0 158 79.5 253.5 t213.5 95.5t213.5 -95.5t79.5 -253.5t-79.5 -253t-213.5 -95t-213.5 95t-79.5 253zM1073 317q0 -200 113 -200q112 0 112 200q0 201 -112 201q-113 0 -113 -201z" />
<glyph unicode="&#x26;" horiz-adv-x="1431" d="M70 348q0 120 63 208.5t189 170.5q-68 77 -106 148t-38 151q0 145 113 240.5t280 95.5q79 0 149.5 -20.5t126.5 -59.5t89 -102t33 -142q0 -59 -21 -110.5t-63.5 -95t-89 -77t-113.5 -73.5l229 -231q73 115 97 266q57 11 133 11t133 -11q-53 -264 -184 -443l272 -272 q-57 -10 -162 -10t-162 10l-110 109q-183 -144 -400 -144q-122 0 -224.5 42.5t-168 131t-65.5 207.5zM340 358q0 -82 59 -126t140 -44q114 0 223 91l-279 278q-74 -48 -108.5 -92.5t-34.5 -106.5zM442 1020q0 -75 84 -176q98 52 137 90t39 90q0 50 -33.5 83.5t-95.5 33.5 q-57 0 -94 -33.5t-37 -87.5z" />
<glyph unicode="'" horiz-adv-x="405" d="M70 928v403q57 11 132 11t132 -11l-78 -403q-57 -10 -93 -10t-93 10z" />
<glyph unicode="(" horiz-adv-x="563" d="M70 551q0 214 49.5 420.5t138.5 359.5q117 22 234 0q-84 -162 -132.5 -374.5t-48.5 -405.5t48.5 -405.5t132.5 -374.5q-117 -22 -234 0q-89 153 -138.5 359.5t-49.5 420.5z" />
<glyph unicode=")" horiz-adv-x="563" d="M70 -229q84 162 132 374t48 406t-48 406t-132 374q117 21 233 0q89 -154 139 -360t50 -420t-50 -420t-139 -360q-116 -21 -233 0z" />
<glyph unicode="*" horiz-adv-x="878" d="M72 997q9 99 57 174l252 -116l-31 276q89 20 180 0l-30 -276l252 116q51 -81 57 -174l-264 -57l192 -201q-64 -78 -141 -110l-156 250l-153 -250q-80 33 -144 110l193 201z" />
<glyph unicode="+" horiz-adv-x="866" d="M82 446q-22 92 0 183h264v260q88 21 178 0l-2 -260h264q22 -91 0 -185h-264v-260q-88 -21 -176 0v262h-264z" />
<glyph unicode="," horiz-adv-x="462" d="M72 113q0 63 44 104t109 41q66 0 116.5 -45.5t51.5 -138.5q1 -108 -56.5 -224.5t-109.5 -150.5q-65 -14 -133 0q110 103 166 274q-28 -4 -37 -4q-64 0 -107.5 41t-43.5 103z" />
<glyph unicode="-" d="M82 446q-22 92 0 183h563q22 -91 0 -185z" />
<glyph unicode="." horiz-adv-x="448" d="M70 113q0 64 44 104.5t109 40.5t109.5 -40.5t44.5 -104.5q0 -62 -44.5 -103t-109.5 -41t-109 41t-44 103z" />
<glyph unicode="/" horiz-adv-x="716" d="M70 0l350 1331q112 21 225 0l-350 -1331q-113 -21 -225 0z" />
<glyph unicode="0" horiz-adv-x="1333" d="M106 666q0 318 151.5 507t410.5 189q258 0 409.5 -189t151.5 -507t-151.5 -507.5t-409.5 -189.5t-410 189.5t-152 507.5zM377 666q0 -246 79.5 -361t211.5 -115t211 115t79 361t-79 360.5t-211 114.5t-211.5 -114.5t-79.5 -360.5z" />
<glyph unicode="1" horiz-adv-x="790" d="M68 954q1 103 12 131l344 246q104 19 209 0v-1331q-57 -10 -133 -10t-131 10v1036l-289 -207q-13 22 -12 125z" />
<glyph unicode="2" horiz-adv-x="1085" d="M74 0v20q268 307 406 488.5t178 266.5t40 159q0 96 -59.5 151.5t-155.5 55.5q-153 0 -340 -144q-14 21 -12.5 121.5t12.5 132.5q57 48 154 79.5t207 31.5q112 0 201.5 -33.5t146 -91t86 -132t29.5 -159.5q0 -152 -100 -308t-351 -417h467q20 -111 0 -221h-909z" />
<glyph unicode="3" horiz-adv-x="1122" d="M150 211q-1 101 12 121q218 -144 379 -144q100 0 166.5 51.5t66.5 147.5q0 82 -51.5 131t-153.5 49h-166q-19 105 0 211h162q81 0 132 49t51 131q0 84 -56.5 133.5t-152.5 49.5q-154 0 -367 -144q-13 20 -12 121.5t12 132.5q162 111 379 111q212 0 336.5 -100.5 t124.5 -260.5q0 -106 -52 -189.5t-141 -125.5q108 -42 166.5 -129.5t58.5 -202.5q0 -118 -64.5 -207t-173 -134.5t-243.5 -45.5q-114 0 -223 31.5t-178 79.5q-11 32 -12 133z" />
<glyph unicode="4" horiz-adv-x="1187" d="M80 264q-20 107 0 217l653 850q105 19 209 0v-850h166q20 -110 0 -217h-166v-264q-57 -10 -133 -10t-133 10v264h-596zM311 481h367v477z" />
<glyph unicode="5" horiz-adv-x="1093" d="M115 211q-1 101 12 121q218 -144 379 -144q105 0 172 59.5t67 158.5q0 104 -77.5 161.5t-202.5 57.5q-57 0 -132.5 -20t-137.5 -48l110 774h643q20 -111 0 -221h-440l-45 -303q53 16 112 16q192 0 316.5 -111.5t124.5 -305.5q0 -201 -138.5 -320t-353.5 -119 q-111 0 -219.5 31.5t-177.5 79.5q-11 32 -12 133z" />
<glyph unicode="6" horiz-adv-x="1189" d="M106 459q0 120 44.5 245t110 222.5t145 184t145.5 140t115 80.5q56 11 161 11t162 -11q-188 -148 -315.5 -277.5t-196.5 -265.5q95 66 217 64q118 -3 208 -61t136.5 -152.5t46.5 -208.5q0 -194 -134 -327.5t-353 -133.5q-225 0 -358.5 137.5t-133.5 352.5zM377 422 q0 -100 59.5 -166t159.5 -66q97 0 158 65.5t61 170.5q0 101 -60 161t-157 60q-119 0 -207 -88q-14 -63 -14 -137z" />
<glyph unicode="7" horiz-adv-x="1126" d="M106 1110q-20 110 0 221h949v-20l-609 -1311q-57 -10 -143 -10t-143 10l520 1110h-574z" />
<glyph unicode="8" horiz-adv-x="1120" d="M78 352q0 115 59 203t166 131q-88 42 -140 125.5t-52 189.5q0 156 121.5 258.5t326.5 102.5t327 -102.5t122 -258.5q0 -105 -52.5 -189t-140.5 -126q107 -43 166 -131t59 -203q0 -118 -63.5 -206.5t-171.5 -133.5t-246 -45t-246 45t-171.5 133.5t-63.5 206.5zM348 381 q0 -91 60 -142t151 -51t151 51t60 142q0 86 -55.5 137t-145.5 51h-20q-89 0 -145 -51.5t-56 -136.5zM373 958q0 -78 50 -130t126 -52h20q77 0 126.5 52.5t49.5 129.5q0 79 -51 131t-135 52t-135 -52t-51 -131z" />
<glyph unicode="9" horiz-adv-x="1189" d="M106 901q0 94 34.5 177.5t96.5 146.5t154.5 100t202.5 37q225 0 358 -137.5t133 -352.5q0 -120 -44.5 -245t-110 -222.5t-144.5 -184t-145 -140t-115 -80.5q-57 -10 -161.5 -10t-161.5 10q122 96 208 173t171 176.5t131 193.5q-91 -67 -215 -64q-118 3 -208 61 t-137 152.5t-47 208.5zM377 905q0 -101 60 -161t157 -60q119 0 207 88q14 79 14 137q0 99 -60 165.5t-159 66.5q-97 0 -158 -65.5t-61 -170.5z" />
<glyph unicode=":" horiz-adv-x="448" d="M70 113q0 64 44 104.5t109 40.5t109.5 -40.5t44.5 -104.5q0 -62 -44.5 -103t-109.5 -41t-109 41t-44 103zM70 705q0 64 44 104.5t109 40.5t109.5 -40.5t44.5 -104.5q0 -62 -44.5 -103t-109.5 -41t-109 41t-44 103z" />
<glyph unicode=";" horiz-adv-x="462" d="M72 113q0 63 44 104t109 41q66 0 116.5 -45.5t51.5 -138.5q1 -108 -56.5 -224.5t-109.5 -150.5q-65 -14 -133 0q110 103 166 274q-28 -4 -37 -4q-64 0 -107.5 41t-43.5 103zM72 705q0 64 44 104.5t109 40.5t109.5 -40.5t44.5 -104.5q0 -62 -44.5 -103t-109.5 -41t-109 41 t-44 103z" />
<glyph unicode="&#x3c;" horiz-adv-x="892" d="M72 545q0 24 10 43l731 385q11 -44 11 -104.5t-11 -106.5l-428 -217l428 -219q11 -46 11 -106.5t-11 -104.5l-731 387q-10 19 -10 43z" />
<glyph unicode="=" horiz-adv-x="866" d="M82 291q-22 91 0 182h704q21 -90 0 -184zM82 612q-22 91 0 183h704q22 -91 0 -185z" />
<glyph unicode="&#x3e;" horiz-adv-x="892" d="M72 219.5q0 60.5 10 106.5l428 219l-428 217q-10 46 -10 106.5t10 104.5l731 -385q11 -19 11 -43t-11 -43l-731 -387q-10 44 -10 104.5z" />
<glyph unicode="?" horiz-adv-x="993" d="M70 1118.5q1 101.5 12 132.5q73 49 179.5 80t219.5 31q108 0 194.5 -30t139.5 -80.5t81 -113.5t28 -132q0 -46 -12.5 -86t-29 -69.5t-54 -67t-65 -61t-85.5 -69.5q-40 -30 -56 -43.5t-33 -35.5t-21.5 -45t-4.5 -60q-57 -11 -133 -11t-133 11q0 69 16.5 115t48.5 80.5 t101 89.5q116 86 143 114q47 49 47 113q0 73 -53.5 116.5t-144.5 43.5q-154 0 -373 -144q-13 20 -12 121.5zM276 113q0 64 44.5 104.5t109.5 40.5t109.5 -40.5t44.5 -104.5q0 -62 -44.5 -103t-109.5 -41t-109.5 41t-44.5 103z" />
<glyph unicode="@" horiz-adv-x="1871" d="M106 420q0 171 63.5 322t175.5 260.5t273.5 173t348.5 63.5q189 0 342 -58.5t252 -160.5t152.5 -237.5t53.5 -290.5q0 -118 -23 -211t-59.5 -150t-86 -95t-98.5 -52.5t-101 -14.5q-81 0 -155.5 36.5t-113.5 109.5q-58 -73 -122.5 -109.5t-161.5 -36.5 q-174 0 -280.5 126.5t-106.5 314.5t106.5 314t280.5 126q172 0 274 -133l19 102q105 19 209 0v-530q0 -133 75 -133q69 0 114.5 83t45.5 253q0 274 -166.5 425.5t-449.5 151.5q-140 0 -263 -44t-215 -125t-145 -205.5t-53 -276.5q0 -108 28 -201t72.5 -158t104.5 -115.5 t120.5 -79t124.5 -42.5q14 -22 13.5 -82t-11.5 -88q-127 17 -242.5 80.5t-203.5 162t-139.5 235.5t-51.5 290zM700 410q0 -105 58 -168.5t151 -63.5q109 0 197 88v287q-88 88 -197 88q-93 0 -151 -63t-58 -168z" />
<glyph unicode="A" horiz-adv-x="1452" d="M70 0l546 1331q56 10 111 10l111 -10l546 -1331q-57 -10 -137 -10t-137 10l-115 295h-536l-115 -295q-57 -10 -137 -10t-137 10zM543 518h368l-184 471z" />
<glyph unicode="B" horiz-adv-x="1249" d="M158 0v1331h555q189 0 307.5 -96t118.5 -248q0 -104 -51 -180.5t-138 -116.5q104 -40 162.5 -123t58.5 -194q0 -172 -122.5 -272.5t-331.5 -100.5h-559zM422 221h278q96 0 148.5 47.5t52.5 134.5q0 84 -52.5 130.5t-152.5 46.5h-274v-359zM422 768h268q84 0 133 44.5 t49 125.5q0 82 -50.5 127t-137.5 45h-262v-342z" />
<glyph unicode="C" horiz-adv-x="1425" d="M106 666q0 143 52.5 270t147 221.5t234.5 149.5t306 55q243 0 418 -111q11 -29 12 -125v-13q0 -85 -12 -103q-204 131 -404 131q-135 0 -244.5 -58t-174 -167.5t-64.5 -249.5t64.5 -249.5t174 -168t244.5 -58.5q198 0 404 132q12 -19 12 -104v-13q-1 -97 -12 -125 q-175 -111 -418 -111q-166 0 -306 55t-234.5 149.5t-147 222t-52.5 270.5z" />
<glyph unicode="D" horiz-adv-x="1452" d="M158 0v1331h483q160 0 293.5 -51t223.5 -140t140 -211t50 -263t-50 -263t-140 -211.5t-223.5 -140.5t-293.5 -51h-483zM422 221h219q195 0 314.5 119t119.5 326t-119.5 325.5t-314.5 118.5h-219v-889z" />
<glyph unicode="E" horiz-adv-x="1161" d="M158 0v1331h915q10 -56 10 -111t-10 -110h-649v-324h584q10 -56 10 -111t-10 -110h-584v-344h649q10 -55 10 -110t-10 -111h-915z" />
<glyph unicode="F" horiz-adv-x="1161" d="M158 0v1331h915q10 -56 10 -111t-10 -110h-649v-338h584q10 -55 10 -110.5t-10 -110.5h-584v-551q-57 -10 -133 -10t-133 10z" />
<glyph unicode="G" horiz-adv-x="1449" d="M106 666q0 143 52.5 270t147 221.5t234.5 149.5t306 55q243 0 418 -111q11 -28 12 -125v-13q0 -84 -12 -103q-204 131 -404 131q-135 0 -244.5 -58t-174 -167.5t-64.5 -249.5q0 -214 138 -347t345 -133q93 0 180 33v426q57 11 130.5 11t129.5 -11v-565 q-69 -47 -194.5 -79t-259.5 -32q-166 0 -306 55t-234.5 149.5t-147 222t-52.5 270.5z" />
<glyph unicode="H" horiz-adv-x="1488" d="M158 0v1331q57 11 133 11t133 -11v-545h645v545q57 11 132 11t132 -11v-1331q-57 -10 -132 -10t-132 10v565h-645v-565q-57 -10 -133 -10t-133 10z" />
<glyph unicode="I" horiz-adv-x="579" d="M158 0v1331q57 11 133 11t133 -11v-1331q-57 -10 -133 -10t-133 10z" />
<glyph unicode="J" horiz-adv-x="837" d="M68 146v12q0 74 12 94q89 -45 168 -45q74 0 121 45t47 147v932q56 11 131.5 11t132.5 -11v-956q0 -194 -95 -300t-263 -106q-139 0 -242 66q-11 28 -12 111z" />
<glyph unicode="K" horiz-adv-x="1345" d="M158 0v1331q57 11 133 11t133 -11v-608l514 608q57 11 158.5 11t158.5 -11l-548 -647l571 -684q-57 -10 -158.5 -10t-158.5 10l-537 645v-645q-57 -10 -133 -10t-133 10z" />
<glyph unicode="L" horiz-adv-x="1107" d="M158 0v1331q57 11 133 11t133 -11v-1110h604q12 -55 12 -110t-12 -111h-870z" />
<glyph unicode="M" horiz-adv-x="1871" d="M70 0l313 1331q56 10 111.5 10.5t111.5 -10.5l330 -915l330 915q56 10 112 10.5t111 -10.5l313 -1331q-57 -10 -129 -10t-129 10l-192 858l-310 -858q-52 -10 -105.5 -10t-107.5 10l-309 858l-190 -858q-57 -10 -130 -10t-130 10z" />
<glyph unicode="N" horiz-adv-x="1474" d="M150 0v1331q52 9 104 9l104 -9l701 -885v885q57 11 133 11t131 -11v-1331q-52 -10 -104 -10t-105 10l-698 885v-885q-57 -10 -133 -10t-133 10z" />
<glyph unicode="O" horiz-adv-x="1617" d="M106 666q0 143 51.5 270.5t142.5 221.5t223.5 149t285.5 55q154 0 286.5 -55t223.5 -149t142.5 -221.5t51.5 -270.5t-51.5 -270.5t-142.5 -222t-223.5 -149.5t-286.5 -55q-204 0 -366 94.5t-249.5 253t-87.5 349.5zM377 666q0 -211 124 -343.5t308 -132.5 q185 0 309.5 132t124.5 344q0 211 -124.5 343t-309.5 132q-184 0 -308 -132t-124 -343z" />
<glyph unicode="P" horiz-adv-x="1263" d="M158 0v1331h506q226 0 360.5 -122.5t134.5 -317.5t-134.5 -317.5t-360.5 -122.5h-240v-451q-57 -10 -133 -10t-133 10zM422 672h240q105 0 166 58.5t61 160.5q0 101 -61.5 160t-165.5 59h-240v-438z" />
<glyph unicode="Q" horiz-adv-x="1617" d="M106 666q0 143 51.5 270.5t142.5 221.5t223.5 149t285.5 55q154 0 286.5 -55t223.5 -149t142.5 -221.5t51.5 -270.5q0 -222 -120 -399t-322 -249l250 -356q-57 -10 -138.5 -10t-138.5 10l-217 307h-32q-121 2 -229 38.5t-191 100.5t-144 150t-93 190.5t-32 217.5z M377 666q0 -211 124 -343.5t308 -132.5q185 0 309.5 132t124.5 344q0 211 -124.5 343t-309.5 132q-184 0 -308 -132t-124 -343z" />
<glyph unicode="R" horiz-adv-x="1302" d="M158 0v1331h518q226 0 360.5 -121t134.5 -313q0 -138 -73.5 -243t-208.5 -150l342 -504q-57 -10 -145.5 -10t-145.5 10l-317 465h-199v-465q-57 -10 -133 -10t-133 10zM422 686h252q105 0 166 56.5t61 154.5t-61.5 155.5t-165.5 57.5h-252v-424z" />
<glyph unicode="S" horiz-adv-x="1140" d="M106 954q0 172 125 290t342 118q206 0 373 -111q10 -33 12 -133q0 -10 1 -18q0 -84 -13 -103q-219 144 -371 144q-92 0 -146 -44t-54 -116q0 -31 11 -55t29.5 -42t56 -35.5t76 -31t103.5 -33.5q64 -20 109.5 -38t101.5 -52t91 -74t59 -103t24 -140q0 -128 -64.5 -222 t-171 -140t-241.5 -46q-107 0 -216 30t-189 81q-11 28 -12 132v15q0 91 12 109q224 -146 395 -146q103 0 160 46t57 120q0 33 -11.5 58t-29.5 43t-57.5 36.5t-76.5 31.5t-106 34q-63 21 -109.5 40.5t-100.5 53t-88.5 73t-57.5 98.5t-23 130z" />
<glyph unicode="T" horiz-adv-x="1202" d="M80 1110q-10 55 -10 110.5t10 110.5h1042q10 -56 10 -111t-10 -110h-389v-1110q-55 -10 -131 -10t-133 10v1110h-389z" />
<glyph unicode="U" horiz-adv-x="1419" d="M158 543v788q57 11 135 11t135 -11v-827q0 -142 75.5 -228t211.5 -86q134 0 209 86t75 228v827q57 11 135.5 11t135.5 -11v-788q0 -288 -144 -431t-411 -143t-412 143.5t-145 430.5z" />
<glyph unicode="V" horiz-adv-x="1431" d="M70 1331q57 11 137 11t137 -11l373 -936l373 936q57 11 137 11t137 -11l-537 -1331q-55 -10 -110 -10t-111 10z" />
<glyph unicode="W" horiz-adv-x="2086" d="M70 1331q57 11 137 11t137 -11l295 -936l295 936q55 10 110.5 10t110.5 -10l295 -936l295 936q57 11 137 11t137 -11l-458 -1331q-56 -10 -111 -10l-111 10l-295 891l-294 -891q-56 -10 -111 -10l-111 10z" />
<glyph unicode="X" horiz-adv-x="1355" d="M70 0l430 684l-412 647q57 11 152.5 11t152.5 -11l293 -465l277 465q57 11 152.5 11t152.5 -11l-412 -647l430 -684q-57 -10 -152.5 -10t-150.5 10l-313 498l-295 -498q-57 -10 -152.5 -10t-152.5 10z" />
<glyph unicode="Y" horiz-adv-x="1390" d="M70 1331q57 11 142 11t142 -11l342 -608l340 608q57 11 142.5 11t142.5 -11l-492 -856v-475q-57 -10 -133 -10t-133 10v475z" />
<glyph unicode="Z" horiz-adv-x="1144" d="M78 0v20l598 1090h-565q-10 55 -10 110.5t10 110.5h954v-20l-596 -1090h586q10 -55 10 -110t-10 -111h-977z" />
<glyph unicode="[" horiz-adv-x="593" d="M70 -229v1558l442 2q19 -104 0 -211h-201v-1140l201 2q19 -104 0 -211h-442z" />
<glyph unicode="\" horiz-adv-x="716" d="M70 1331q113 21 225 0l350 -1331q-113 -21 -225 0z" />
<glyph unicode="]" horiz-adv-x="593" d="M82 -18l201 -2v1140h-201q-19 107 0 211l442 -2v-1558h-442q-19 107 0 211z" />
<glyph unicode="^" horiz-adv-x="841" d="M70 855q1 104 12 136l338 340l338 -340q13 -32 13.5 -136t-13.5 -124l-338 342l-338 -342q-13 20 -12 124z" />
<glyph unicode="_" horiz-adv-x="966" d="M82 -66h805q21 -90 0 -184l-805 2q-22 91 0 182z" />
<glyph unicode="`" horiz-adv-x="530" d="M70 1759q14 31 68.5 74t88.5 49l232 -334q-14 -28 -54.5 -59t-72.5 -37z" />
<glyph unicode="a" horiz-adv-x="978" d="M84 233q0 122 83.5 193.5t213.5 71.5q73 0 135.5 -23t99.5 -55v65q0 87 -46.5 128.5t-145.5 41.5q-125 0 -260 -77q-13 19 -13 80q1 6 1 13q2 72 12 101q47 32 128.5 55t180.5 23q199 0 292 -97.5t93 -287.5v-465q-52 -10 -104 -10t-105 10l-14 88q-47 -54 -116.5 -86.5 t-145.5 -32.5q-123 0 -206 70.5t-83 193.5zM324 250q0 -43 30.5 -71.5t87.5 -28.5q48 0 97 19.5t77 41.5v78q-26 22 -75 40.5t-97 18.5q-59 0 -89.5 -28t-30.5 -70z" />
<glyph unicode="b" horiz-adv-x="1101" d="M123 0v1331q60 11 121 11l121 -11v-596q98 115 260 115q174 0 280.5 -126t106.5 -314t-106.5 -314.5t-280.5 -126.5q-173 0 -275 133l-18 -102q-52 -10 -104.5 -10t-104.5 10zM365 266q83 -88 194 -88q94 0 152.5 63.5t58.5 168.5t-58.5 168t-152.5 63q-111 0 -194 -88 v-287z" />
<glyph unicode="c" horiz-adv-x="964" d="M90 410q0 194 128 317t333 123q169 0 280 -88q13 -28 13 -104q0 -3 1 -5q0 -71 -14 -90q-142 84 -256 84q-105 0 -174 -64.5t-69 -172.5t69 -173t174 -65q114 0 256 84q14 -19 14 -90q-1 -4 -1 -6q0 -76 -13 -103q-111 -88 -280 -88q-205 0 -333 123.5t-128 317.5z" />
<glyph unicode="d" horiz-adv-x="1101" d="M90 410q0 188 106.5 314t280.5 126q162 0 260 -115v596q60 11 121 11l121 -11v-1331q-52 -10 -105 -10t-106 10l-16 102q-102 -133 -275 -133q-174 0 -280.5 126.5t-106.5 314.5zM332 410q0 -105 58 -168.5t151 -63.5q108 0 196 88v287q-88 88 -196 88q-93 0 -151 -63 t-58 -168z" />
<glyph unicode="e" horiz-adv-x="1015" d="M90 412q0 192 124 315t318 123q68 0 126.5 -16.5t101.5 -44.5t76.5 -66t53.5 -81t30 -89q10 -42 10 -83v-8q-1 -44 -12 -85h-584q10 -96 76.5 -150.5t167.5 -54.5q128 0 270 84q12 -19 12 -85v-11q-1 -76 -12 -103q-115 -88 -297 -88q-208 0 -334.5 122.5t-126.5 320.5z M348 504h350q-3 76 -47 120t-116 44q-74 0 -124 -44t-63 -120z" />
<glyph unicode="f" horiz-adv-x="778" d="M76 616q-12 50 -12 101t12 102h121v258q0 136 84.5 210.5t207.5 74.5q108 0 209 -43q11 -29 12 -110v-11q0 -71 -12 -90q-93 51 -145 51q-115 0 -115 -131v-209h224q12 -51 12 -102t-12 -101h-224v-616q-60 -11 -120 -11t-121 11v616h-121z" />
<glyph unicode="g" horiz-adv-x="1101" d="M90 418q0 182 106.5 307t280.5 125q173 0 275 -133l16 102q53 9 105.5 9t105.5 -9v-784q0 -184 -115.5 -292t-316.5 -108q-100 0 -187 25t-133 59q-11 28 -12 101v11q0 64 12 83q130 -80 271 -80q106 0 172.5 46.5t66.5 142.5v75q-99 -112 -260 -112q-174 0 -280.5 124.5 t-106.5 307.5zM332 418q0 -99 58 -161t151 -62q108 0 196 88v270q-88 88 -196 88q-93 0 -151 -62t-58 -161z" />
<glyph unicode="h" horiz-adv-x="1046" d="M127 0v1331q60 11 121 11l121 -11v-594q121 113 249 113q82 0 143.5 -27.5t96 -74.5t51.5 -102.5t17 -117.5v-528q-60 -11 -121 -11l-121 11v475q0 79 -37 122.5t-110 43.5q-48 0 -93.5 -23.5t-74.5 -54.5v-563q-60 -11 -121 -11z" />
<glyph unicode="i" horiz-adv-x="559" d="M127 1167q0 63 44.5 104.5t109.5 41.5t109 -41.5t44 -104.5t-44 -104t-109 -41t-109.5 41.5t-44.5 103.5zM160 0v819q60 11 120.5 11t120.5 -11v-819q-60 -11 -120.5 -11t-120.5 11z" />
<glyph unicode="j" horiz-adv-x="614" d="M8 -220v11q0 67 12 86q83 -39 134 -39q37 0 50 23.5t13 79.5v878q61 11 121 11l121 -11v-913q0 -132 -63.5 -201.5t-176.5 -69.5q-50 0 -107 12.5t-92 28.5q-11 28 -12 104zM186 1165q0 62 44 103t108 41q65 0 109.5 -41t44.5 -103q0 -61 -44.5 -102t-109.5 -41 q-64 0 -108 41t-44 102z" />
<glyph unicode="k" horiz-adv-x="1015" d="M127 0v1331q60 11 121 11l121 -11v-868l295 356q57 11 137 11t137 -11l-330 -391l340 -428q-57 -10 -137 -10t-137 10l-305 391v-391q-60 -11 -121 -11z" />
<glyph unicode="l" horiz-adv-x="489" d="M127 0v1331q60 11 121 11l121 -11v-1331q-60 -11 -121 -11z" />
<glyph unicode="m" horiz-adv-x="1603" d="M123 0v819q52 10 104.5 9.5t104.5 -9.5l18 -106q52 59 123 98t148 39q198 0 270 -158q59 70 133.5 114t155.5 44t141.5 -27.5t94.5 -74.5t50.5 -102.5t16.5 -117.5v-528q-60 -11 -121 -11l-121 11v475q0 79 -35.5 122.5t-107.5 43.5q-90 0 -174 -84v-557 q-60 -11 -121 -11l-121 11v475q0 79 -35.5 122.5t-107.5 43.5q-50 0 -96.5 -25.5t-77.5 -58.5v-557q-60 -11 -121 -11z" />
<glyph unicode="n" horiz-adv-x="1048" d="M123 0v819q52 10 104.5 9.5t104.5 -9.5l18 -106q52 59 124 98t149 39q66 0 119 -18.5t87.5 -49t57.5 -73t33 -87.5t10 -94v-528q-60 -11 -121 -11l-121 11v475q0 79 -37 122.5t-110 43.5q-51 0 -98 -25.5t-78 -58.5v-557q-60 -11 -121 -11z" />
<glyph unicode="o" horiz-adv-x="1083" d="M90 410q0 185 127.5 312.5t323.5 127.5q195 0 322.5 -127t127.5 -313t-127.5 -313.5t-322.5 -127.5t-323 127.5t-128 313.5zM332 410q0 -104 59 -168t150 -64t150 64t59 168t-59 167.5t-150 63.5t-150 -63.5t-59 -167.5z" />
<glyph unicode="p" horiz-adv-x="1105" d="M127 -334v1153q52 9 104.5 9t104.5 -9l18 -102q102 133 275 133q174 0 280.5 -126t106.5 -314t-106.5 -314.5t-280.5 -126.5q-162 0 -260 115v-418q-61 -11 -121 -11zM369 266q83 -88 194 -88q94 0 152.5 63.5t58.5 168.5t-58.5 168t-152.5 63q-111 0 -194 -88v-287z" />
<glyph unicode="q" horiz-adv-x="1101" d="M90 410q0 188 106.5 314t280.5 126q173 0 275 -133l16 102q53 9 105.5 9t105.5 -9v-1153q-61 -11 -121 -11l-121 11v418q-98 -115 -260 -115q-174 0 -280.5 126.5t-106.5 314.5zM332 410q0 -105 58 -168.5t151 -63.5q108 0 196 88v287q-88 88 -196 88q-93 0 -151 -63 t-58 -168z" />
<glyph unicode="r" horiz-adv-x="835" d="M123 0v819q52 10 104.5 9.5t104.5 -9.5l26 -149q102 180 258 180q86 0 142 -37q12 -19 12 -106v-13q-1 -100 -12 -129q-46 31 -85.5 47.5t-92.5 16.5q-62 0 -121 -44t-94 -110v-475q-60 -11 -121 -11z" />
<glyph unicode="s" horiz-adv-x="829" d="M78 580q0 124 92 197t242 73q79 0 160.5 -20t125.5 -50q11 -28 12 -96v-10q0 -60 -12 -78q-156 96 -266 96q-49 0 -82 -22.5t-33 -59.5q0 -12 3.5 -22t13 -18.5t17.5 -14.5t26.5 -13t29.5 -11t37.5 -12t40.5 -13q131 -43 199 -103t68 -165q0 -129 -100.5 -199t-245.5 -70 q-80 0 -164.5 20t-126.5 50q-14 30 -14 101q0 64 14 83q66 -42 142.5 -69t135.5 -27q51 0 84 20.5t33 59.5q0 34 -28.5 51t-105.5 42q-22 7 -34 11q-48 16 -82.5 30.5t-71 37.5t-59 50t-37 65.5t-14.5 85.5z" />
<glyph unicode="t" horiz-adv-x="784" d="M76 616q-12 50 -12 101t12 102h121v266q60 11 120.5 11t120.5 -11v-266h230q12 -52 12 -102.5t-12 -100.5h-230v-342q0 -50 16.5 -76t55.5 -26q68 0 162 82q13 -19 13 -82q-1 -6 -1 -14q-2 -76 -12 -105q-31 -34 -92 -59t-134 -25q-118 0 -183.5 69t-65.5 202v376h-121z " />
<glyph unicode="u" horiz-adv-x="1044" d="M119 291v528q60 11 120.5 11t120.5 -11v-475q0 -78 37.5 -122t110.5 -44q92 0 176 84v557q60 11 121 11l121 -11v-819q-53 -10 -105.5 -10t-103.5 10l-19 106q-52 -59 -123.5 -98t-148.5 -39q-82 0 -144 27.5t-96 75t-50.5 102t-16.5 117.5z" />
<glyph unicode="v" horiz-adv-x="1060" d="M66 819q63 12 126.5 11.5t126.5 -11.5l211 -502l211 502q64 12 127 11l127 -11l-366 -819q-49 -12 -98 -12t-99 12z" />
<glyph unicode="w" horiz-adv-x="1538" d="M66 819q57 11 128 11t128 -11l161 -500l187 500q43 11 99 11t99 -11l187 -500l162 500q57 11 128 11t128 -11l-318 -819q-50 -12 -99 -12t-98 12l-188 516l-190 -516q-49 -12 -98.5 -12t-98.5 12z" />
<glyph unicode="x" horiz-adv-x="1038" d="M66 0l290 428l-274 391q57 11 136 11t136 -11l172 -246l164 246q55 11 132 11t134 -11l-274 -391l289 -428q-57 -10 -135.5 -10t-135.5 10l-188 270l-180 -270q-57 -10 -133 -10t-133 10z" />
<glyph unicode="y" horiz-adv-x="1060" d="M66 819q63 11 126.5 11t126.5 -11l211 -489l211 489q63 11 127 11l127 -11l-524 -1153q-61 -12 -123 -12l-123 12l183 402z" />
<glyph unicode="z" horiz-adv-x="884" d="M76 0v18l375 592h-342q-10 52 -9.5 104t9.5 105h700v-18l-375 -592l365 2q10 -52 9.5 -104.5t-9.5 -106.5h-723z" />
<glyph unicode="{" horiz-adv-x="686" d="M70 535v32q76 36 99.5 62.5t25.5 70.5q22 348 186 631q116 21 233 0q-46 -93 -77 -171t-48.5 -150.5t-25 -117t-17.5 -122.5q-3 -21 -4 -31q-7 -66 -44 -107.5t-109 -80.5q72 -38 109 -80.5t44 -108.5q24 -181 44 -260q38 -149 128 -331q-117 -21 -233 0 q-164 283 -186 630q-2 44 -26 71t-99 63z" />
<glyph unicode="|" horiz-adv-x="294" d="M70 -123v1454q44 11 77.5 11t77.5 -11v-1454q-44 -11 -77.5 -11t-77.5 11z" />
<glyph unicode="}" horiz-adv-x="686" d="M70 -229q60 122 96.5 230t47 166.5t24.5 164.5q3 20 4 30q7 66 44 108.5t109 80.5q-72 39 -109 80.5t-44 107.5q-24 181 -44 260q-38 150 -128 332q117 21 233 0q164 -283 186 -631q2 -44 25.5 -70.5t99.5 -62.5v-32q-75 -36 -99 -63t-26 -71q-22 -347 -186 -630 q-116 -21 -233 0z" />
<glyph unicode="~" horiz-adv-x="944" d="M82 360q-22 94 0 185q1 0 44 24t60 31.5t55.5 18t73.5 10.5q46 0 90 -16t74 -34.5t71.5 -34.5t82.5 -16q26 0 51.5 5t55 17.5t43.5 18.5t46.5 24t34.5 19q21 -94 0 -184q-1 0 -44 -24t-60 -31.5t-55.5 -18t-73.5 -10.5q-57 0 -111 25t-105 50t-102 25q-26 0 -51.5 -5 t-55 -17.5t-43.5 -18.5t-46.5 -24t-34.5 -19z" />
<glyph unicode="&#xa2;" horiz-adv-x="962" d="M90 410q0 185 114.5 305t303.5 133v192q46 22 88 0v-192q140 -10 235 -86q13 -28 13.5 -103.5t-13.5 -95.5q-142 84 -256 84q-105 0 -174 -64.5t-69 -172.5t69 -173t174 -65q114 0 256 84q14 -20 13.5 -95.5t-13.5 -103.5q-95 -76 -235 -86v-192q-42 -22 -88 0v192 q-189 13 -303.5 133.5t-114.5 305.5z" />
<glyph unicode="&#xa3;" horiz-adv-x="1177" d="M80 604q-21 44 0 88h135q-25 175 -25 254q0 85 29.5 159.5t86 132t146 91t201.5 33.5q109 0 207 -31.5t156 -79.5q11 -31 12 -132.5t-12 -121.5q-190 144 -342 144q-96 0 -155.5 -55.5t-59.5 -151.5q0 -88 30 -242h361q21 -44 0 -88h-342q9 -78 9.5 -135.5t-14.5 -125.5 t-50 -122h563q20 -110 0 -221h-875v20q46 69 71.5 143t30.5 151.5t1.5 141.5t-15.5 148h-149z" />
<glyph unicode="&#xa5;" horiz-adv-x="1390" d="M70 1331q57 11 142 11t142 -11l342 -608l340 608q57 11 142.5 11t142.5 -11l-459 -796h236q22 -43 0 -86h-269v-132h269q21 -44 0 -88h-269v-229q-57 -10 -133 -10t-133 10v229h-268q-21 44 0 88h268v132h-268q-22 43 0 86h235z" />
<glyph unicode="&#xa8;" horiz-adv-x="944" d="M70 1651q0 63 44 104t109 41t109.5 -41.5t44.5 -103.5q0 -63 -44.5 -104.5t-109.5 -41.5t-109 41.5t-44 104.5zM567 1651q0 62 44.5 103.5t109.5 41.5t109 -41t44 -104t-44 -104.5t-109 -41.5t-109.5 41.5t-44.5 104.5z" />
<glyph unicode="&#xa9;" horiz-adv-x="1251" d="M70 881q0 112 43.5 214t117 176.5t177 118.5t217.5 44t217.5 -44t177 -118.5t117 -176.5t43.5 -214t-43.5 -214t-117 -176.5t-177 -118.5t-217.5 -44t-217.5 44t-177 118.5t-117 176.5t-43.5 214zM180 881q0 -185 129 -316t316 -131q189 0 317.5 130.5t128.5 316.5 q0 185 -128.5 314.5t-317.5 129.5q-123 0 -225.5 -60t-161 -162t-58.5 -222zM348 879q0 125 81.5 202.5t213.5 77.5q108 0 178 -55q8 -19 9 -66t-9 -59q-85 53 -162 53q-68 0 -112.5 -41.5t-44.5 -111.5q0 -69 44.5 -110.5t112.5 -41.5q82 0 162 53q10 -12 9 -60.5t-9 -64.5 q-68 -57 -178 -57q-131 0 -213 78.5t-82 202.5z" />
<glyph unicode="&#xab;" horiz-adv-x="944" d="M70 444l245 320q56 10 93 10t94 -10l-193 -320l193 -319q-57 -11 -94 -11t-93 11zM440 444l246 320q56 10 92.5 10t93.5 -10l-192 -320l192 -319q-57 -11 -93.5 -11t-92.5 11z" />
<glyph unicode="&#xad;" d="M82 446q-22 92 0 183h563q22 -91 0 -185z" />
<glyph unicode="&#xae;" horiz-adv-x="1251" d="M70 881q0 112 43.5 214t117 176.5t177 118.5t217.5 44t217.5 -44t177 -118.5t117 -176.5t43.5 -214t-43.5 -214t-117 -176.5t-177 -118.5t-217.5 -44t-217.5 44t-177 118.5t-117 176.5t-43.5 214zM180 881q0 -185 129 -316t316 -131q189 0 317.5 130.5t128.5 316.5 q0 185 -128.5 314.5t-317.5 129.5q-123 0 -225.5 -60t-161 -162t-58.5 -222zM389 621v526h297q87 0 137.5 -46t50.5 -136q0 -55 -28.5 -93.5t-75.5 -54.5l145 -196q-35 -9 -83.5 -9t-83.5 9l-132 174h-73v-174q-77 -20 -154 0zM543 905h102q78 0 78 66q0 65 -78 65h-102 v-131z" />
<glyph unicode="&#xb4;" horiz-adv-x="530" d="M70 1548l231 334q34 -6 89 -49t69 -74l-262 -307q-32 6 -72.5 37t-54.5 59z" />
<glyph unicode="&#xb8;" horiz-adv-x="497" d="M71 -333q0 41 9 61q77 -54 135 -54q41 2 65.5 22t24.5 54q0 50 -48.5 68t-111.5 -8v190h117v-106q61 5 113.5 -38t52.5 -120q0 -78 -55 -127t-142 -49q-84 0 -151 43q-9 23 -9 64z" />
<glyph unicode="&#xbb;" horiz-adv-x="944" d="M70 125l192 319l-192 320q57 10 94 10t94 -10l244 -320l-244 -319q-57 -11 -94 -11t-94 11zM440 125l193 319l-193 320q57 10 94.5 10t94.5 -10l243 -320l-243 -319q-57 -11 -94.5 -11t-94.5 11z" />
<glyph unicode="&#x2c6;" horiz-adv-x="788" d="M70 1575l282 285q17 14 42 14t40 -14l285 -285q-12 -32 -57.5 -75t-77.5 -52l-191 194l-190 -194q-31 9 -76 52t-57 75z" />
<glyph unicode="&#x2da;" horiz-adv-x="534" d="M70 1679q0 80 57.5 137.5t140.5 57.5q81 0 139 -57.5t58 -137.5q0 -82 -57.5 -139t-139.5 -57q-83 0 -140.5 57t-57.5 139zM203 1679q0 -27 19 -46t46 -19t45.5 19t18.5 46t-18.5 45.5t-45.5 18.5q-28 0 -46.5 -18.5t-18.5 -45.5z" />
<glyph unicode="&#x2dc;" horiz-adv-x="774" d="M82 1507q-22 94 0 185q4 2 22.5 12t25 13t22.5 11t25.5 10.5t24 7t28 6t28.5 1.5q58 0 154 -45q58 -25 106 -25q27 0 61.5 11t55.5 21t59 30q21 -94 0 -184q-5 -2 -26.5 -14t-28.5 -15.5t-26.5 -12t-31 -11.5t-29 -6t-34.5 -3q-57 0 -153 45q-58 25 -107 25 q-27 0 -61.5 -11t-55.5 -21t-59 -30z" />
<glyph unicode="&#x401;" horiz-adv-x="1161" d="M158 0v1331h915q20 -111 0 -221h-649v-324h584q20 -111 0 -221h-584v-344h649q20 -110 0 -221h-915zM225 1651q0 62 44.5 103.5t109.5 41.5t109 -41t44 -104t-44 -104.5t-109 -41.5t-109.5 41.5t-44.5 104.5zM690 1651q0 62 44.5 103.5t109.5 41.5t109 -41t44 -104 t-44 -104.5t-109 -41.5t-109.5 41.5t-44.5 104.5z" />
<glyph unicode="&#x410;" horiz-adv-x="1452" d="M70 0l546 1331q111 20 222 0l546 -1331q-57 -10 -137 -10t-137 10l-115 295h-536l-115 -295q-57 -10 -137 -10t-137 10zM543 518h368l-184 471z" />
<glyph unicode="&#x411;" horiz-adv-x="1253" d="M158 0v1331h874q20 -111 0 -221h-608v-268h242q225 0 359 -118t134 -300q0 -184 -134.5 -304t-358.5 -120h-508zM422 221h242q103 0 164 56.5t61 146.5q0 89 -61 145t-164 56h-242v-404z" />
<glyph unicode="&#x412;" horiz-adv-x="1249" d="M158 0v1331h555q189 0 307.5 -96t118.5 -248q0 -104 -51 -180.5t-138 -116.5q104 -40 162.5 -123t58.5 -194q0 -172 -122.5 -272.5t-331.5 -100.5h-559zM422 221h278q96 0 148.5 47.5t52.5 134.5q0 84 -52.5 130.5t-152.5 46.5h-274v-359zM422 768h268q84 0 133 44.5 t49 125.5q0 82 -50.5 127t-137.5 45h-262v-342z" />
<glyph unicode="&#x413;" horiz-adv-x="1107" d="M158 0v1331h870q23 -110 0 -221h-604v-1110q-57 -10 -133 -10t-133 10z" />
<glyph unicode="&#x414;" horiz-adv-x="1593" d="M70 -215v436h123q134 71 161 328l82 782h922v-1110h168v-436q-57 -11 -133 -11t-133 11v215h-924v-215q-57 -11 -133 -11t-133 11zM500 221h592v889h-416l-58 -561q-24 -237 -118 -328z" />
<glyph unicode="&#x415;" horiz-adv-x="1161" d="M158 0v1331h915q20 -111 0 -221h-649v-324h584q20 -111 0 -221h-584v-344h649q20 -110 0 -221h-915z" />
<glyph unicode="&#x416;" horiz-adv-x="1888" d="M70 0l477 686l-455 645q57 12 150.5 12t150.5 -12l420 -600v600q57 12 132 12t132 -12v-600l420 600q57 11 150.5 11t150.5 -11l-455 -647l478 -684q-57 -10 -149.5 -10t-149.5 10l-445 637v-637q-57 -10 -132 -10t-132 10v637l-444 -637q-57 -10 -149.5 -10t-149.5 10z " />
<glyph unicode="&#x417;" horiz-adv-x="1167" d="M150 203q-1 97 12 119q204 -134 409 -134q102 0 175 52t73 147q0 82 -51.5 131t-153.5 49h-213q-19 105 0 211h207q82 0 132.5 48.5t50.5 131.5q0 84 -56.5 133.5t-154.5 49.5q-194 0 -398 -131q-13 20 -12 116.5t12 124.5q175 111 412 111q213 0 338 -100.5t125 -260.5 q0 -106 -52 -189.5t-141 -125.5q108 -42 167 -129.5t59 -202.5q0 -179 -140 -283t-364 -104q-130 0 -239 31.5t-185 79.5q-11 28 -12 125z" />
<glyph unicode="&#x418;" horiz-adv-x="1474" d="M150 0v1331q57 11 133 11t133 -11v-885l698 885q106 20 209 0v-1331q-55 -10 -131 -10t-133 10v885l-701 -885q-104 -19 -208 0z" />
<glyph unicode="&#x419;" horiz-adv-x="1474" d="M150 0v1331q57 11 133 11t133 -11v-885l698 885q106 20 209 0v-1331q-55 -10 -131 -10t-133 10v885l-701 -885q-104 -19 -208 0zM426 1691.5q-1 75.5 12 94.5q138 -82 297 -82q157 0 295 82q13 -19 12 -94.5t-12 -104.5q-121 -88 -295 -88q-176 0 -297 88 q-11 29 -12 104.5z" />
<glyph unicode="&#x41a;" horiz-adv-x="1345" d="M158 0v1331q57 11 133 11t133 -11v-608l514 608q57 11 158.5 11t158.5 -11l-548 -647l571 -684q-57 -10 -158.5 -10t-158.5 10l-537 645v-645q-57 -10 -133 -10t-133 10z" />
<glyph unicode="&#x41b;" horiz-adv-x="1480" d="M80 -12q-21 113 0 223q36 -4 53 -4q72 0 115 43.5t53 148.5l96 932h930v-1331q-57 -10 -133 -10t-133 10v1110h-420l-74 -735q-21 -201 -108.5 -303.5t-251.5 -102.5q-65 0 -127 19z" />
<glyph unicode="&#x41c;" horiz-adv-x="1871" d="M70 0l313 1331q111 21 223 0l330 -915l330 915q112 21 223 0l313 -1331q-57 -10 -129 -10t-129 10l-192 858l-310 -858q-105 -20 -213 0l-309 858l-190 -858q-57 -10 -130 -10t-130 10z" />
<glyph unicode="&#x41d;" horiz-adv-x="1488" d="M158 0v1331q57 11 133 11t133 -11v-545h645v545q57 11 132 11t132 -11v-1331q-57 -10 -132 -10t-132 10v565h-645v-565q-57 -10 -133 -10t-133 10z" />
<glyph unicode="&#x41e;" horiz-adv-x="1617" d="M106 666q0 143 51.5 270.5t142.5 221.5t223.5 149t285.5 55q154 0 286.5 -55t223.5 -149t142.5 -221.5t51.5 -270.5t-51.5 -270.5t-142.5 -222t-223.5 -149.5t-286.5 -55q-204 0 -366 94.5t-249.5 253t-87.5 349.5zM377 666q0 -211 124 -343.5t308 -132.5 q185 0 309.5 132t124.5 344q0 211 -124.5 343t-309.5 132q-184 0 -308 -132t-124 -343z" />
<glyph unicode="&#x41f;" horiz-adv-x="1488" d="M158 0v1331h1175v-1331q-57 -10 -132 -10t-132 10v1110h-645v-1110q-57 -10 -133 -10t-133 10z" />
<glyph unicode="&#x420;" horiz-adv-x="1263" d="M158 0v1331h506q226 0 360.5 -122.5t134.5 -317.5t-134.5 -317.5t-360.5 -122.5h-240v-451q-57 -10 -133 -10t-133 10zM422 672h240q105 0 166 58.5t61 160.5q0 101 -61.5 160t-165.5 59h-240v-438z" />
<glyph unicode="&#x421;" horiz-adv-x="1423" d="M106 666q0 143 52.5 270t147 221.5t234.5 149.5t306 55q243 0 418 -111q11 -28 12 -124.5t-12 -116.5q-204 131 -404 131q-135 0 -244.5 -58t-174 -167.5t-64.5 -249.5t64.5 -249.5t174 -168t244.5 -58.5q198 0 404 132q13 -20 12 -117t-12 -125q-175 -111 -418 -111 q-166 0 -306 55t-234.5 149.5t-147 222t-52.5 270.5z" />
<glyph unicode="&#x422;" horiz-adv-x="1202" d="M80 1110q-20 110 0 221h1042q20 -111 0 -221h-389v-1110q-55 -10 -131 -10t-133 10v1110h-389z" />
<glyph unicode="&#x423;" horiz-adv-x="1390" d="M70 1331q57 11 142 11t142 -11l342 -608l340 608q57 11 142.5 11t142.5 -11l-766 -1331q-57 -10 -142.5 -10t-142.5 10l285 489z" />
<glyph unicode="&#x424;" horiz-adv-x="1857" d="M106 666q0 80 23 156t72 145t119.5 120.5t172 82t222.5 30.5h82v131q57 11 133 11t133 -11v-131h82q121 0 222.5 -30.5t171.5 -82t119 -120.5t72 -145t23 -156t-23 -155.5t-72 -144.5t-119 -120.5t-171.5 -82t-222.5 -30.5h-82v-133q-57 -10 -133 -10t-133 10v133h-82 q-121 0 -222.5 30.5t-172 82t-119.5 120.5t-72 144.5t-23 155.5zM377 666q0 -131 88 -221.5t246 -90.5h86v625h-86q-158 0 -246 -90.5t-88 -222.5zM1061 354h88q157 0 244.5 90.5t87.5 221.5q0 132 -87.5 222.5t-244.5 90.5h-88v-625z" />
<glyph unicode="&#x425;" horiz-adv-x="1355" d="M70 0l430 684l-412 647q57 11 152.5 11t152.5 -11l293 -465l277 465q57 11 152.5 11t152.5 -11l-412 -647l430 -684q-57 -10 -152.5 -10t-150.5 10l-313 498l-295 -498q-57 -10 -152.5 -10t-152.5 10z" />
<glyph unicode="&#x426;" horiz-adv-x="1533" d="M158 0v1331q57 11 133 11t133 -11v-1110h608v1110q57 11 133 11t133 -11v-1110h168v-436q-57 -11 -133 -11t-133 11v215h-1042z" />
<glyph unicode="&#x427;" horiz-adv-x="1337" d="M117 877v454q57 11 133 11t133 -11v-416q0 -258 242 -258q96 0 171.5 38t118.5 85v551q57 11 133.5 11t133.5 -11v-1331q-57 -10 -133.5 -10t-133.5 10v580q-57 -59 -159.5 -102.5t-220.5 -43.5q-195 0 -306.5 122t-111.5 321z" />
<glyph unicode="&#x428;" horiz-adv-x="2013" d="M158 0v1331q57 11 133 11t133 -11v-1110h450v1110q57 11 133.5 11t133.5 -11v-1110h452v1110q57 11 132.5 11t132.5 -11v-1331h-1700z" />
<glyph unicode="&#x429;" horiz-adv-x="2093" d="M158 0v1331q57 11 133 11t133 -11v-1110h450v1110q57 11 133.5 11t133.5 -11v-1110h452v1110q57 11 132.5 11t132.5 -11v-1110h167v-436q-57 -11 -133 -11t-133 11v215h-1601z" />
<glyph unicode="&#x42a;" horiz-adv-x="1423" d="M80 1110q-20 110 0 221h500v-452h239q227 0 362.5 -122.5t135.5 -316.5q0 -195 -135.5 -317.5t-362.5 -122.5h-504v1110h-235zM580 221h239q105 0 166.5 59t61.5 160q0 100 -62 158.5t-166 58.5h-239v-436z" />
<glyph unicode="&#x42b;" horiz-adv-x="1718" d="M158 0v1331q57 11 133 11t133 -11v-452h240q225 0 360 -123t135 -316q0 -195 -134.5 -317.5t-360.5 -122.5h-506zM422 221h240q104 0 165.5 59t61.5 160q0 100 -61.5 158.5t-165.5 58.5h-240v-436zM1296 0v1331q57 11 133.5 11t133.5 -11v-1331q-57 -10 -133.5 -10 t-133.5 10z" />
<glyph unicode="&#x42c;" horiz-adv-x="1263" d="M158 0v1331q57 11 133 11t133 -11v-452h240q225 0 360 -123t135 -316q0 -195 -134.5 -317.5t-360.5 -122.5h-506zM422 221h240q104 0 165.5 59t61.5 160q0 100 -61.5 158.5t-165.5 58.5h-240v-436z" />
<glyph unicode="&#x42d;" horiz-adv-x="1423" d="M150 205q-1 97 12 117q206 -132 405 -132q189 0 315 100.5t154 268.5h-544q-20 111 0 221h544q-33 165 -157.5 263t-311.5 98q-201 0 -405 -131q-13 20 -12 116.5t12 124.5q175 111 420 111q174 0 315 -54.5t232.5 -150t140.5 -221t49 -270.5t-49 -271t-140.5 -221 t-232.5 -150t-315 -55q-245 0 -420 111q-11 28 -12 125z" />
<glyph unicode="&#x42e;" horiz-adv-x="2123" d="M158 0v1331q57 11 133 11t133 -11v-551h197q26 165 118 296.5t242.5 208.5t333.5 77q154 0 286.5 -55t223.5 -149t142.5 -221.5t51.5 -270.5t-51.5 -270.5t-142.5 -222t-223.5 -149.5t-286.5 -55q-139 0 -261 45.5t-211 125t-146.5 187.5t-75.5 232h-197v-559 q-57 -10 -133 -10t-133 10zM881 666q0 -211 124 -343.5t308 -132.5q185 0 309.5 132t124.5 344q0 211 -124.5 343t-309.5 132q-184 0 -308 -132t-124 -343z" />
<glyph unicode="&#x42f;" horiz-adv-x="1302" d="M74 0l342 504q-135 45 -209 150t-74 243q0 192 133.5 313t358.5 121h522v-1331q-57 -10 -133 -10t-133 10v465h-199l-317 -465q-57 -10 -145.5 -10t-145.5 10zM401 897q0 -98 61.5 -154.5t166.5 -56.5h252v424h-252q-104 0 -166 -57.5t-62 -155.5z" />
<glyph unicode="&#x430;" horiz-adv-x="978" d="M84 233q0 122 83.5 193.5t213.5 71.5q73 0 135.5 -23t99.5 -55v65q0 87 -46.5 128.5t-145.5 41.5q-125 0 -260 -77q-14 21 -12.5 93t12.5 101q47 32 128.5 55t180.5 23q199 0 292 -97.5t93 -287.5v-465q-104 -19 -209 0l-14 88q-47 -54 -116.5 -86.5t-145.5 -32.5 q-123 0 -206 70.5t-83 193.5zM324 250q0 -43 30.5 -71.5t87.5 -28.5q48 0 97 19.5t77 41.5v78q-26 22 -75 40.5t-97 18.5q-59 0 -89.5 -28t-30.5 -70z" />
<glyph unicode="&#x431;" horiz-adv-x="1062" d="M90 465v123q0 299 125 447t408 196q110 20 162.5 37t119.5 63q13 -20 12 -111.5t-12 -119.5q-63 -47 -120.5 -64.5t-192.5 -38.5q-138 -23 -197 -85.5t-63 -192.5q110 115 260 115q174 0 280.5 -122.5t106.5 -297.5q0 -191 -127.5 -318t-321.5 -127q-196 0 -318 133 t-122 363zM332 416q0 -120 55.5 -179t144.5 -59q87 0 146 63t59 165t-59.5 160.5t-145.5 58.5q-55 0 -111 -27.5t-89 -60.5v-121z" />
<glyph unicode="&#x432;" horiz-adv-x="976" d="M123 0v819h420q70 0 124 -10t98 -33.5t67.5 -66.5t23.5 -105q0 -63 -32.5 -107t-86.5 -65q72 -26 111 -79t39 -122q0 -123 -88 -177t-234 -54h-442zM365 172h172q51 0 79.5 22t28.5 64q0 45 -28.5 67.5t-79.5 22.5h-172v-176zM365 487h157q48 0 73.5 22t25.5 58 q0 80 -99 80h-157v-160z" />
<glyph unicode="&#x433;" horiz-adv-x="854" d="M123 0v819h653q19 -104 0 -211l-411 2v-610q-121 -22 -242 0z" />
<glyph unicode="&#x434;" horiz-adv-x="1247" d="M66 203h118q83 53 105 250l37 366h704v-616h150v-414q-118 -22 -236 0v211h-641v-211q-118 -22 -237 0v414zM436 203h355v413l-244 2l-17 -165q-22 -191 -94 -250z" />
<glyph unicode="&#x435;" horiz-adv-x="1015" d="M90 412q0 192 124 315t318 123q68 0 126.5 -16.5t101.5 -44.5t76.5 -66t53.5 -81t30.5 -89t9.5 -90.5t-12 -85.5h-584q10 -96 76.5 -150.5t167.5 -54.5q128 0 270 84q13 -20 12 -95.5t-12 -103.5q-115 -88 -297 -88q-208 0 -334.5 122.5t-126.5 320.5zM348 504h350 q-3 76 -47 120t-116 44q-74 0 -124 -44t-63 -120z" />
<glyph unicode="&#x436;" horiz-adv-x="1460" d="M66 0l307 428l-297 391q57 11 135 11t135 -11l264 -354v354q120 23 240 0v-354l264 354q57 11 135 11t135 -11l-299 -391l310 -428q-57 -10 -135.5 -10t-135.5 10l-274 389v-389q-120 -23 -240 0v389l-274 -389q-57 -10 -135 -10t-135 10z" />
<glyph unicode="&#x437;" horiz-adv-x="841" d="M86 151.5q-1 66.5 12 86.5q136 -84 262 -84q73 0 114.5 28t41.5 76q0 45 -28.5 67.5t-79.5 22.5h-158q-10 44 -10 69.5t10 69.5h141q101 0 101 84q0 43 -39 69t-101 26q-110 0 -246 -84q-14 21 -12.5 86t12.5 94q111 88 285 88q87 0 162 -27t124.5 -83.5t49.5 -133.5 q0 -63 -32.5 -108t-86.5 -66q71 -26 109.5 -80t38.5 -123q0 -83 -51.5 -143.5t-130.5 -88.5t-173 -28t-174 25.5t-129 62.5q-11 28 -12 94.5z" />
<glyph unicode="&#x438;" horiz-adv-x="1112" d="M123 0v819q121 22 242 0v-479l442 479q55 11 90 11t92 -11v-819q-120 -22 -241 0v479l-441 -479q-57 -10 -92 -10t-92 10z" />
<glyph unicode="&#x439;" horiz-adv-x="1112" d="M123 0v819q121 22 242 0v-479l442 479q55 11 90 11t92 -11v-819q-120 -22 -241 0v479l-441 -479q-57 -10 -92 -10t-92 10zM248 1179.5q-1 75.5 12 94.5q138 -82 297 -82q157 0 295 82q13 -19 12 -94.5t-12 -104.5q-121 -88 -295 -88q-176 0 -297 88q-11 29 -12 104.5z " />
<glyph unicode="&#x43a;" horiz-adv-x="1011" d="M123 0v819q121 22 242 0v-356l294 356q57 11 137.5 11t137.5 -11l-330 -391l340 -428q-57 -10 -137 -10t-137 10l-305 391v-391q-121 -22 -242 0z" />
<glyph unicode="&#x43b;" horiz-adv-x="1114" d="M66 83q-1 75 12 95q18 -6 37 -6q53 0 80 31t34 100l54 516h710v-819q-120 -22 -241 0v616l-248 2l-33 -319q-17 -162 -96 -246t-199 -84q-38 0 -98 11q-11 28 -12 103z" />
<glyph unicode="&#x43c;" horiz-adv-x="1390" d="M66 0l231 819q57 11 92 11t92 -11l215 -506l211 506q57 11 92.5 11t92.5 -11l233 -819q-117 -21 -233 0l-117 461l-189 -461q-57 -10 -92 -10t-92 10l-186 461l-119 -461q-114 -22 -231 0z" />
<glyph unicode="&#x43d;" horiz-adv-x="1114" d="M123 0v819q121 22 242 0v-295h385v295q120 22 241 0v-819q-121 -22 -241 0v313l-385 2v-315q-121 -22 -242 0z" />
<glyph unicode="&#x43e;" horiz-adv-x="1083" d="M90 410q0 185 127.5 312.5t323.5 127.5q195 0 322.5 -127t127.5 -313t-127.5 -313.5t-322.5 -127.5t-323 127.5t-128 313.5zM332 410q0 -104 59 -168t150 -64t150 64t59 168t-59 167.5t-150 63.5t-150 -63.5t-59 -167.5z" />
<glyph unicode="&#x43f;" horiz-adv-x="1105" d="M123 0v819h860v-819q-121 -22 -242 0v616l-376 2v-618q-121 -22 -242 0z" />
<glyph unicode="&#x440;" horiz-adv-x="1105" d="M127 -334v1153q104 19 209 0l18 -102q102 133 275 133q174 0 280.5 -126t106.5 -314t-106.5 -314.5t-280.5 -126.5q-162 0 -260 115v-418q-121 -22 -242 0zM369 266q83 -88 194 -88q94 0 152.5 63.5t58.5 168.5t-58.5 168t-152.5 63q-111 0 -194 -88v-287z" />
<glyph unicode="&#x441;" horiz-adv-x="964" d="M90 410q0 194 128 317t333 123q169 0 280 -88q13 -28 13.5 -103.5t-13.5 -95.5q-142 84 -256 84q-105 0 -174 -64.5t-69 -172.5t69 -173t174 -65q114 0 256 84q14 -20 13.5 -95.5t-13.5 -103.5q-111 -88 -280 -88q-205 0 -333 123.5t-128 317.5z" />
<glyph unicode="&#x442;" horiz-adv-x="950" d="M76 610q-19 104 0 209h796q22 -104 0 -211l-276 2v-610q-121 -22 -242 0v610h-278z" />
<glyph unicode="&#x443;" horiz-adv-x="1060" d="M66 819q126 23 253 0l211 -489l211 489q127 23 254 0l-524 -1153q-123 -23 -246 0l183 402z" />
<glyph unicode="&#x444;" horiz-adv-x="1437" d="M90 410q0 186 129 313t330 127h57v481q121 22 242 0v-481h57q201 0 330 -127t129 -313t-129 -313.5t-330 -127.5h-57v-303q-121 -22 -242 0v303h-57q-201 0 -330 127.5t-129 313.5zM332 410q0 -108 60.5 -173t156.5 -65h57v475h-57q-96 0 -156.5 -64.5t-60.5 -172.5z M848 172h57q96 0 156.5 65t60.5 173t-60.5 172.5t-156.5 64.5h-57v-475z" />
<glyph unicode="&#x445;" horiz-adv-x="1038" d="M66 0l290 428l-274 391q57 11 136 11t136 -11l172 -246l164 246q55 11 132 11t134 -11l-274 -391l289 -428q-57 -10 -135.5 -10t-135.5 10l-188 270l-180 -270q-57 -10 -133 -10t-133 10z" />
<glyph unicode="&#x446;" horiz-adv-x="1165" d="M123 0v819q121 22 242 0v-618h344v618q120 22 241 0v-616h150v-416q-119 -22 -238 0v213h-739z" />
<glyph unicode="&#x447;" horiz-adv-x="1019" d="M84 510v309q121 22 242 0v-260q0 -75 39 -114t112 -39q101 0 178 77v336q121 22 242 0v-819q-121 -22 -242 0v291q-116 -94 -260 -94q-80 0 -142 26.5t-97.5 71.5t-53.5 99t-18 116z" />
<glyph unicode="&#x448;" horiz-adv-x="1562" d="M123 0v819q121 22 242 0v-616h297v616q119 23 239 0v-616h297v616q121 22 242 0v-819h-1317z" />
<glyph unicode="&#x449;" horiz-adv-x="1656" d="M123 0v819q121 22 242 0v-618l297 2v616q119 23 239 0v-618h297v618q121 22 242 0v-616h149v-414q-119 -22 -237 0v211h-1229z" />
<glyph unicode="&#x44a;" horiz-adv-x="1085" d="M76 618q-19 100 0 201h418v-244h194q141 0 233.5 -73t92.5 -213q0 -143 -82 -216t-221 -73h-459v618h-176zM496 180h151q127 0 127 109q0 106 -127 106h-151v-215z" />
<glyph unicode="&#x44b;" horiz-adv-x="1339" d="M123 0v819q121 22 242 0v-244h192q92 0 164.5 -29.5t118 -95.5t45.5 -161q0 -143 -82.5 -216t-220.5 -73h-459zM365 180h151q127 0 127 109q0 106 -127 106h-151v-215zM975 0v819q121 22 242 0v-819q-121 -22 -242 0z" />
<glyph unicode="&#x44c;" horiz-adv-x="956" d="M123 0v819q121 22 242 0v-244h192q92 0 164.5 -29.5t118 -95.5t45.5 -161q0 -143 -82.5 -216t-220.5 -73h-459zM365 180h151q127 0 127 109q0 106 -127 106h-151v-215z" />
<glyph unicode="&#x44d;" horiz-adv-x="964" d="M119 159.5q-1 74.5 12 94.5q136 -84 258 -84q98 0 161.5 45t78.5 123l-299 2q-10 44 -10 74.5t10 74.5h297q-19 75 -81 117.5t-157 42.5q-122 0 -258 -84q-13 20 -12 94.5t12 102.5q115 88 283 88q214 0 337 -121.5t123 -318.5t-123 -319t-337 -122q-168 0 -283 88 q-11 28 -12 102.5z" />
<glyph unicode="&#x44e;" horiz-adv-x="1480" d="M123 0v819q121 22 242 0v-303h137q34 148 152 241t284 93q196 0 323.5 -127.5t127.5 -312.5q0 -91 -33.5 -172t-92.5 -140.5t-143.5 -94t-181.5 -34.5q-166 0 -284.5 94t-151.5 242l-137 2v-307q-121 -22 -242 0zM729 410q0 -104 59 -168t150 -64t150 64t59 168 t-59 167.5t-150 63.5t-150 -63.5t-59 -167.5z" />
<glyph unicode="&#x44f;" horiz-adv-x="1011" d="M66 0l225 305q-76 29 -119 88t-43 146q0 138 80 209t217 71h463v-819q-121 -22 -242 0v272h-117l-200 -272q-57 -10 -132 -10t-132 10zM371 539q0 -27 8 -46.5t19.5 -30.5t29 -17t32 -7.5t32.5 -1.5h155v203h-155q-24 0 -41.5 -3t-37.5 -12t-31 -30.5t-11 -54.5z" />
<glyph unicode="&#x451;" horiz-adv-x="1044" d="M90 412q0 192 124 315t318 123q68 0 126.5 -16.5t101.5 -44.5t76.5 -66t53.5 -81t30.5 -89t9.5 -90.5t-12 -85.5h-584q10 -96 76.5 -150.5t167.5 -54.5q128 0 270 84q13 -20 12 -95.5t-12 -103.5q-115 -88 -297 -88q-208 0 -334.5 122.5t-126.5 320.5zM127 1139 q0 62 44.5 103.5t109.5 41.5t109 -41t44 -104t-44 -104.5t-109 -41.5t-109.5 41.5t-44.5 104.5zM348 504h350q-3 76 -47 120t-116 44q-74 0 -124 -44t-63 -120zM625 1139q0 63 44 104t109 41t109.5 -41.5t44.5 -103.5q0 -63 -44.5 -104.5t-109.5 -41.5t-109 41.5t-44 104.5z " />
<glyph unicode="&#x2000;" horiz-adv-x="941" />
<glyph unicode="&#x2001;" horiz-adv-x="1882" />
<glyph unicode="&#x2002;" horiz-adv-x="941" />
<glyph unicode="&#x2003;" horiz-adv-x="1882" />
<glyph unicode="&#x2004;" horiz-adv-x="627" />
<glyph unicode="&#x2005;" horiz-adv-x="470" />
<glyph unicode="&#x2006;" horiz-adv-x="313" />
<glyph unicode="&#x2007;" horiz-adv-x="313" />
<glyph unicode="&#x2008;" horiz-adv-x="235" />
<glyph unicode="&#x2009;" horiz-adv-x="376" />
<glyph unicode="&#x200a;" horiz-adv-x="104" />
<glyph unicode="&#x2010;" d="M82 446q-22 92 0 183h563q22 -91 0 -185z" />
<glyph unicode="&#x2011;" d="M82 446q-22 92 0 183h563q22 -91 0 -185z" />
<glyph unicode="&#x2012;" d="M82 446q-22 92 0 183h563q22 -91 0 -185z" />
<glyph unicode="&#x2013;" horiz-adv-x="1017" d="M82 446q-22 92 0 183h856q22 -91 0 -185z" />
<glyph unicode="&#x2014;" horiz-adv-x="1247" d="M82 446q-22 92 0 183h1085q22 -91 0 -185z" />
<glyph unicode="&#x2018;" horiz-adv-x="462" d="M72 956q-3 108 55 224t109 151q65 14 133 0q-62 -60 -104 -135t-60 -139q24 4 35 4q64 0 107.5 -40.5t43.5 -102.5q0 -63 -44 -104.5t-109 -41.5q-66 0 -116 45.5t-50 138.5z" />
<glyph unicode="&#x2019;" horiz-adv-x="462" d="M72 1217q0 63 44 104t109 41q66 0 116.5 -46.5t51.5 -139.5q1 -107 -56.5 -223t-109.5 -150q-65 -14 -133 0q110 103 166 274q-28 -4 -37 -4q-64 0 -107.5 41t-43.5 103z" />
<glyph unicode="&#x201a;" horiz-adv-x="462" d="M72 113q0 63 44 104t109 41q66 0 116.5 -45.5t51.5 -138.5q1 -108 -56.5 -224.5t-109.5 -150.5q-65 -14 -133 0q110 103 166 274q-28 -4 -37 -4q-64 0 -107.5 41t-43.5 103z" />
<glyph unicode="&#x201c;" horiz-adv-x="854" d="M72 956q-3 108 55 224t109 151q65 14 133 0q-62 -60 -104 -135t-60 -139q24 4 35 4q64 0 107.5 -40.5t43.5 -102.5q0 -63 -44 -104.5t-109 -41.5q-66 0 -116 45.5t-50 138.5zM463 956q-3 108 55 224t109 151q65 14 133 0q-62 -60 -104 -135t-60 -139q24 4 35 4 q64 0 107.5 -40.5t43.5 -102.5q0 -63 -44 -104.5t-109 -41.5q-66 0 -116 45.5t-50 138.5z" />
<glyph unicode="&#x201d;" horiz-adv-x="854" d="M72 1217q0 63 44 104t109 41q66 0 116.5 -46.5t51.5 -139.5q1 -107 -56.5 -223t-109.5 -150q-65 -14 -133 0q110 103 166 274q-28 -4 -37 -4q-64 0 -107.5 41t-43.5 103zM463 1217q0 63 44 104t109 41q66 0 116.5 -46.5t51.5 -139.5q1 -107 -56.5 -223t-109.5 -150 q-65 -14 -133 0q110 103 166 274q-28 -4 -37 -4q-64 0 -107.5 41t-43.5 103z" />
<glyph unicode="&#x201e;" horiz-adv-x="854" d="M72 113q0 63 44 104t109 41q66 0 116.5 -45.5t51.5 -138.5q1 -108 -56.5 -224.5t-109.5 -150.5q-65 -14 -133 0q110 103 166 274q-28 -4 -37 -4q-64 0 -107.5 41t-43.5 103zM463 113q0 63 44 104t109 41q66 0 116.5 -45.5t51.5 -138.5q1 -108 -56.5 -224.5t-109.5 -150.5 q-65 -14 -133 0q110 103 166 274q-28 -4 -37 -4q-64 0 -107.5 41t-43.5 103z" />
<glyph unicode="&#x2022;" d="M70 586q0 122 85.5 207.5t206.5 85.5q120 0 205.5 -86t85.5 -207t-85.5 -207t-205.5 -86q-121 0 -206.5 85.5t-85.5 207.5z" />
<glyph unicode="&#x2026;" horiz-adv-x="1351" d="M70 113q0 64 44 104.5t109 40.5t109.5 -40.5t44.5 -104.5q0 -62 -44.5 -103t-109.5 -41t-109 41t-44 103zM522 113q0 64 44.5 104.5t109.5 40.5t109 -40.5t44 -104.5q0 -62 -44 -103t-109 -41t-109.5 41t-44.5 103zM973 113q0 64 44 104.5t109 40.5t109.5 -40.5 t44.5 -104.5q0 -62 -44.5 -103t-109.5 -41t-109 41t-44 103z" />
<glyph unicode="&#x202f;" horiz-adv-x="376" />
<glyph unicode="&#x2039;" horiz-adv-x="573" d="M70 444l245 320q56 10 93 10t94 -10l-193 -320l193 -319q-57 -11 -94 -11t-93 11z" />
<glyph unicode="&#x203a;" horiz-adv-x="573" d="M70 125l192 319l-192 320q57 10 94 10t94 -10l244 -320l-244 -319q-57 -11 -94 -11t-94 11z" />
<glyph unicode="&#x205f;" horiz-adv-x="470" />
<glyph unicode="&#x20ac;" horiz-adv-x="1560" d="M82 512q-22 43 0 86h164q-4 46 -4 68q0 21 4 67h-164q-22 43 0 86h176q51 239 245 391t478 152q247 0 418 -111q11 -28 12 -124.5t-12 -116.5q-204 131 -404 131q-164 0 -288 -87t-170 -235h520q22 -43 0 -86h-541q-4 -46 -4 -67q0 -22 4 -68h459q22 -43 0 -86h-438 q46 -148 170 -235t288 -87q199 0 404 132q13 -20 12 -117t-12 -125q-171 -111 -418 -111q-284 0 -478 152t-245 391h-176z" />
<glyph unicode="&#x2122;" horiz-adv-x="1185" d="M76 1223q-11 54 0 108h411q11 -54 0 -110l-143 2v-305q-64 -13 -127 0v305h-141zM477 918l117 411q49 10 96 0l107 -248l102 248q50 10 100 0l115 -411q-60 -12 -123 0l-55 225l-90 -225q-49 -10 -98 0l-93 225l-57 -225q-60 -12 -121 0z" />
<glyph unicode="&#x25fc;" horiz-adv-x="829" d="M0 0v829h829v-829h-829z" />
</font>
</defs>
</svg>
