<?xml version="1.0" standalone="no"?>
<!DOCTYPE svg PUBLIC "-//W3C//DTD SVG 1.1//EN" "http://www.w3.org/Graphics/SVG/1.1/DTD/svg11.dtd" >
<svg xmlns="http://www.w3.org/2000/svg">
<metadata></metadata>
<defs>
<font id="merelregular" horiz-adv-x="1099" >
<font-face units-per-em="2048" ascent="1638" descent="-410" />
<missing-glyph horiz-adv-x="450" />
<glyph horiz-adv-x="0" />
<glyph horiz-adv-x="682" />
<glyph unicode=" "  horiz-adv-x="450" />
<glyph unicode="&#x09;" horiz-adv-x="450" />
<glyph unicode="&#xa0;" horiz-adv-x="450" />
<glyph unicode="!" horiz-adv-x="368" d="M86 63q0 40 28.5 66.5t69.5 26.5q40 0 68.5 -27t28.5 -66q0 -41 -28.5 -67.5t-68.5 -26.5q-42 0 -70 26.5t-28 67.5zM106 1100v231q31 9 76.5 9t77.5 -9v-231l-31 -654q-46 -17 -92 0z" />
<glyph unicode="&#x22;" horiz-adv-x="626" d="M86 928v403q31 9 76 9t76 -9l-43 -403q-54 -16 -109 0zM387 928v403q31 9 76 9t76 -9l-43 -403q-55 -16 -109 0z" />
<glyph unicode="#" horiz-adv-x="1087" d="M86 477q-2 16 7.5 47t19.5 41h196l58 201h-197q-3 15 6 46.5t19 41.5h196l137 477q50 19 99 0l-138 -477h216l137 477q50 19 96 0l-137 -477h198q3 -15 -6 -46t-18 -42h-199l-57 -201h196q3 -15 -6 -46t-18 -42h-197l-139 -477q-46 -19 -96 0l137 477h-215l-137 -477 q-50 -19 -99 0l140 477h-199zM408 565h215l57 201h-215z" />
<glyph unicode="$" horiz-adv-x="1157" d="M129 993q0 148 110.5 254t301.5 115v190q13 9 32 9t33 -9v-190q202 -12 346 -123q8 -19 8.5 -80t-8.5 -72q-187 146 -383 146q-131 0 -207.5 -65t-76.5 -162q0 -43 14 -75.5t36 -56t69.5 -47t94.5 -40.5t130 -44q52 -17 86.5 -29.5t80 -33t75.5 -41t62 -50.5t50.5 -63.5 t30.5 -79t12 -98.5q0 -163 -117 -266.5t-303 -112.5v-190q-14 -9 -33 -9t-32 9v190q-100 5 -201 38t-178 89q-9 18 -9.5 78.5t9.5 73.5q96 -71 202 -110.5t205 -39.5q136 0 219.5 67.5t83.5 174.5q0 27 -5 50.5t-12.5 42.5t-24 36.5t-30 30t-41 26.5t-46.5 23.5t-56.5 22.5 t-62 21t-70.5 23q-73 24 -123 43.5t-106 52t-89 69.5t-55 91t-22 121z" />
<glyph unicode="%" horiz-adv-x="1560" d="M86 1014q0 157 76 252.5t205 95.5q131 0 206.5 -95.5t75.5 -252.5t-75.5 -252.5t-206.5 -95.5q-129 0 -205 95.5t-76 252.5zM197 1014q0 -123 46.5 -189.5t123.5 -66.5q79 0 125.5 66.5t46.5 189.5t-46.5 189.5t-125.5 66.5q-77 0 -123.5 -66.5t-46.5 -189.5zM416 0 l631 1331q49 19 98 0l-631 -1331q-49 -19 -98 0zM911 317q0 157 76 253t205 96q131 0 207 -96t76 -253t-76 -252.5t-207 -95.5q-129 0 -205 95.5t-76 252.5zM1022 317q0 -123 46.5 -189.5t123.5 -66.5q79 0 125.5 66.5t46.5 189.5t-46.5 189.5t-125.5 66.5 q-77 0 -123.5 -66.5t-46.5 -189.5z" />
<glyph unicode="&#x26;" horiz-adv-x="1343" d="M76 317q0 131 75 221.5t222 176.5q-82 99 -124 179.5t-42 158.5q0 131 99.5 220t254.5 89q159 0 258 -85t99 -224q0 -36 -9.5 -70t-23.5 -60.5t-41 -54.5t-50 -48t-63.5 -46.5t-68 -43t-76.5 -44.5l332 -336q110 149 122 369q32 7 77 7t77 -7q-24 -275 -174 -471 l250 -248q-32 -8 -95.5 -8t-95.5 8l-151 150q-89 -87 -199.5 -134t-230.5 -47q-111 0 -205.5 39.5t-155.5 120.5t-61 188zM231 324q0 -107 80.5 -166.5t190.5 -59.5q187 0 327 150l-360 366q-125 -70 -181.5 -132.5t-56.5 -157.5zM360 1051q0 -105 134 -269q57 31 85 47 t66 40t55 40t35.5 38.5t24.5 45.5t6 51q0 80 -52.5 134.5t-150.5 54.5q-92 0 -147.5 -52t-55.5 -130z" />
<glyph unicode="'" horiz-adv-x="325" d="M86 928v403q31 9 76 9t76 -9l-43 -403q-54 -16 -109 0z" />
<glyph unicode="(" horiz-adv-x="497" d="M86 551q0 203 51 415t137 365q69 20 138 0q-84 -164 -134.5 -376.5t-50.5 -403.5t50.5 -403.5t134.5 -376.5q-69 -20 -138 0q-86 153 -137 365t-51 415z" />
<glyph unicode=")" horiz-adv-x="497" d="M86 -229q84 163 134 375.5t50 404.5t-50 404.5t-134 375.5q69 20 137 0q86 -154 137.5 -366t51.5 -414t-51.5 -414t-137.5 -366q-69 -20 -137 0z" />
<glyph unicode="*" horiz-adv-x="849" d="M88 1051q0 54 37 104l264 -113l-20 289q56 18 112 0l-18 -289l266 113q35 -54 35 -104l-272 -78l194 -213q-33 -48 -88 -70l-172 246l-172 -246q-55 22 -88 70l196 213z" />
<glyph unicode="+" horiz-adv-x="894" d="M96 508q-19 57 0 110h297v297q55 19 109 0v-297h299q16 -53 0 -110h-299l-2 -297q-52 -16 -107 0v297h-297z" />
<glyph unicode="," horiz-adv-x="382" d="M88 61q0 40 28 67.5t70 27.5t74 -30t33 -87q7 -80 -31 -187.5t-78 -140.5q-17 -6 -43 -6t-43 6q44 46 75 124t36 136q-10 -2 -27 -2q-39 0 -66.5 26.5t-27.5 65.5z" />
<glyph unicode="-" horiz-adv-x="753" d="M96 508q-19 57 0 110h563q16 -53 0 -110h-563z" />
<glyph unicode="." horiz-adv-x="368" d="M86 63q0 40 28.5 66.5t69.5 26.5q40 0 68.5 -27t28.5 -66q0 -41 -28.5 -67.5t-68.5 -26.5q-42 0 -70 26.5t-28 67.5z" />
<glyph unicode="/" horiz-adv-x="655" d="M86 0l350 1331q66 19 133 0l-350 -1331q-67 -19 -133 0z" />
<glyph unicode="0" horiz-adv-x="1345" d="M129 666q0 315 147 505.5t396 190.5t395.5 -190.5t146.5 -505.5q0 -316 -146.5 -506.5t-395.5 -190.5t-396 191t-147 506zM285 666q0 -272 105.5 -420t281.5 -148q177 0 282 147.5t105 420.5q0 272 -105 419.5t-282 147.5q-176 0 -281.5 -147.5t-105.5 -419.5z" />
<glyph unicode="1" horiz-adv-x="729" d="M76.5 1012.5q0.5 59.5 9.5 77.5l336 241q64 18 127 0v-1331q-32 -9 -77.5 -9t-76.5 9v1163l-309 -223q-10 13 -9.5 72.5z" />
<glyph unicode="2" horiz-adv-x="1081" d="M88 0v18q308 315 460.5 495t198.5 272.5t46 183.5q0 112 -79 188t-214 76q-91 0 -183.5 -38.5t-171.5 -107.5q-10 11 -9.5 72t9.5 80q66 57 163 90t204 33q105 0 189 -32.5t136.5 -87t80.5 -123t28 -144.5q0 -85 -27 -161.5t-100 -177.5t-181 -215.5t-290 -291.5h619 q16 -64 0 -129h-879z" />
<glyph unicode="3" horiz-adv-x="1134" d="M172.5 171q-0.5 60 9.5 73q84 -69 186.5 -107.5t198.5 -38.5q141 0 231.5 73t90.5 198q0 109 -73.5 180.5t-219.5 71.5h-174q-17 60 0 122h172q114 0 184 68t70 174q0 105 -76.5 176.5t-210.5 71.5q-185 0 -368 -146q-10 11 -9.5 72t9.5 80q156 123 372 123 q102 0 186 -28.5t138 -77.5t83 -112.5t29 -135.5q0 -108 -56.5 -193t-153.5 -125q122 -37 187.5 -128.5t65.5 -209.5q0 -173 -130.5 -278t-335.5 -105q-110 0 -218.5 33.5t-177.5 89.5q-9 19 -9.5 79z" />
<glyph unicode="4" horiz-adv-x="1177" d="M84 291q-18 65 0 129l694 911q61 18 125 0v-911h191q15 -64 0 -129h-191v-291q-32 -9 -76.5 -9t-76.5 9v291h-666zM223 420h527v692z" />
<glyph unicode="5" horiz-adv-x="1085" d="M119.5 171q-0.5 60 9.5 73q85 -69 186.5 -107.5t198.5 -38.5q143 0 234.5 82t91.5 211q0 133 -96.5 212t-254.5 79q-132 0 -284 -78l108 727h617q16 -65 0 -129h-500l-65 -440q99 39 180 39q199 0 324.5 -112.5t125.5 -295.5q0 -190 -132 -307t-341 -117 q-110 0 -217 33.5t-176 89.5q-9 19 -9.5 79z" />
<glyph unicode="6" horiz-adv-x="1191" d="M129 449q0 97 24.5 193t64.5 175t93.5 153t108.5 130.5t112 104.5t102 78t81 48q32 9 104 9t103 -9q-82 -51 -150 -100t-153.5 -123.5t-153.5 -166.5t-107 -191q124 102 289 100q127 -1 222.5 -59t144.5 -154.5t49 -216.5q0 -192 -129.5 -321.5t-337.5 -129.5 q-211 0 -339 132.5t-128 347.5zM285 430q0 -149 85.5 -240.5t225.5 -91.5q136 0 223.5 90t87.5 230q0 139 -82.5 225t-224.5 86q-97 0 -174.5 -40t-122.5 -91q-18 -76 -18 -168z" />
<glyph unicode="7" horiz-adv-x="1093" d="M115 1202q-19 64 0 129h905v-18l-653 -1313q-31 -9 -82 -9t-82 9l600 1202h-688z" />
<glyph unicode="8" horiz-adv-x="1114" d="M90 348q0 116 68 209.5t190 132.5q-97 38 -155 124.5t-58 193.5q0 71 28.5 134.5t81.5 112.5t133.5 78t178.5 29t179 -29t134 -77.5t82 -112.5t29 -135q0 -107 -59 -193.5t-156 -124.5q122 -39 190 -132.5t68 -209.5q0 -174 -131 -276.5t-336 -102.5q-204 0 -335.5 103 t-131.5 276zM246 360q0 -121 87.5 -191.5t223.5 -70.5t223.5 70.5t87.5 191.5q0 109 -78 185t-210 76h-45q-132 0 -210.5 -76t-78.5 -185zM287 985q0 -101 71 -172.5t177 -71.5h47q107 0 177 72t70 172q0 103 -73 175.5t-199 72.5q-125 0 -197.5 -73t-72.5 -175z" />
<glyph unicode="9" horiz-adv-x="1191" d="M129 911q0 192 129.5 321.5t337.5 129.5q211 0 339 -132t128 -347q0 -134 -46.5 -265t-115 -228t-152.5 -181.5t-151.5 -133.5t-120.5 -75q-32 -9 -104.5 -9t-104.5 9q81 50 150.5 100t154 124t153 166.5t108.5 191.5q-125 -103 -289 -101q-127 1 -222.5 59t-144.5 154.5 t-49 216.5zM285 913q0 -139 82.5 -225t224.5 -86q97 0 174.5 40t122.5 91q18 77 18 168q0 149 -85.5 240.5t-225.5 91.5q-136 0 -223.5 -90t-87.5 -230z" />
<glyph unicode=":" horiz-adv-x="368" d="M86 63q0 40 28.5 66.5t69.5 26.5q40 0 68.5 -27t28.5 -66q0 -41 -28.5 -67.5t-68.5 -26.5q-42 0 -70 26.5t-28 67.5zM86 758q0 40 28 66t70 26q40 0 68.5 -26.5t28.5 -65.5q0 -41 -28.5 -67.5t-68.5 -26.5q-42 0 -70 26.5t-28 67.5z" />
<glyph unicode=";" horiz-adv-x="382" d="M88 61q0 40 28 67.5t70 27.5t74 -30t33 -87q7 -80 -31 -187.5t-78 -140.5q-17 -6 -43 -6t-43 6q44 46 75 124t36 136q-10 -2 -27 -2q-39 0 -66.5 26.5t-27.5 65.5zM88 758q0 40 28 66t70 26q40 0 68.5 -26.5t28.5 -65.5q0 -41 -28.5 -67.5t-68.5 -26.5q-42 0 -70 26.5 t-28 67.5z" />
<glyph unicode="&#x3c;" horiz-adv-x="921" d="M87 559q0 21 9 31l731 377q7 -26 7 -64.5t-7 -64.5l-557 -281l557 -281q7 -25 7 -62.5t-7 -63.5l-731 374q-9 14 -9 35z" />
<glyph unicode="=" horiz-adv-x="894" d="M96 358q-19 56 0 111h705q16 -55 0 -111h-705zM96 641q-20 54 0 111h705q16 -57 0 -111h-705z" />
<glyph unicode="&#x3e;" horiz-adv-x="921" d="M87 213.5q0 37.5 9 62.5l555 281l-555 281q-9 26 -9 64.5t9 64.5l731 -377q7 -10 7 -31.5t-7 -34.5l-731 -374q-9 26 -9 63.5z" />
<glyph unicode="?" horiz-adv-x="1005" d="M86.5 1159q0.5 61 9.5 80q72 57 176.5 90t219.5 33q102 0 184.5 -28.5t134.5 -77t79.5 -109.5t27.5 -129q0 -50 -13.5 -92.5t-32.5 -73.5t-57 -65.5t-69.5 -57.5t-88.5 -61q-36 -24 -52 -35.5t-38 -32.5t-30.5 -40t-15.5 -47.5t-7 -66.5q-32 -9 -77 -9t-77 9q0 58 9 98.5 t34 73.5t50.5 54.5t76.5 56.5q58 37 87 57t63 48t48.5 50.5t25 53.5t10.5 68q0 97 -78 162t-209 65q-194 0 -381 -146q-10 11 -9.5 72zM338 63q0 40 28.5 66.5t69.5 26.5q40 0 68 -27t28 -66q0 -41 -28 -67.5t-68 -26.5q-42 0 -70 26.5t-28 67.5z" />
<glyph unicode="@" horiz-adv-x="1912" d="M129 424q0 173 64.5 325.5t176 261.5t268.5 172.5t335 63.5q188 0 342 -60.5t256 -165.5t157.5 -248t55.5 -308q0 -95 -16.5 -174t-45 -131t-63 -90.5t-75 -59.5t-76 -30.5t-70.5 -10.5q-76 2 -136 37.5t-83 114.5q-123 -152 -316 -152q-182 0 -293.5 126t-111.5 315 t111.5 314.5t293.5 125.5q189 0 311 -145l9 114q63 18 125 0v-600q0 -137 100 -137q95 0 158 97t63 286q0 309 -189 494.5t-507 185.5q-150 0 -283.5 -52t-232.5 -145t-157 -229t-58 -295q0 -111 28.5 -210t78 -174.5t116.5 -135.5t144.5 -98t162.5 -56q10 -13 9.5 -49.5 t-9.5 -54.5q-179 29 -324 133t-232 273t-87 372zM639 410q0 -140 81.5 -229t215.5 -89q87 0 157.5 40.5t112.5 88.5v377q-42 48 -112.5 88.5t-157.5 40.5q-134 0 -215.5 -89t-81.5 -228z" />
<glyph unicode="A" horiz-adv-x="1398" d="M76 0l559 1331q32 10 65 9.5t66 -9.5l559 -1331q-32 -9 -80 -9t-80 9l-153 371h-623l-156 -371q-31 -9 -78.5 -9t-78.5 9zM436 502h527l-265 633z" />
<glyph unicode="B" horiz-adv-x="1251" d="M180 0v1331h525q181 0 296 -94t115 -244q0 -107 -55 -186t-150 -115q121 -36 184.5 -121.5t63.5 -203.5q0 -166 -120 -266.5t-330 -100.5h-529zM334 129h366q146 0 225 68.5t79 185.5q0 111 -73 177.5t-220 66.5h-377v-498zM334 737h377q116 0 184 63t68 169 q0 107 -76 170t-197 63h-356v-465z" />
<glyph unicode="C" horiz-adv-x="1466" d="M129 666q0 143 52 270.5t144 221.5t226.5 149t292.5 55q130 0 244.5 -33.5t195.5 -89.5q10 -17 10 -75v-6q0 -53 -10 -66q-192 141 -432 141q-162 0 -291.5 -73.5t-202.5 -203t-73 -290.5t73 -291t202.5 -203.5t291.5 -73.5q239 0 432 142q10 -13 10 -67v-5 q0 -58 -10 -76q-81 -56 -195.5 -89.5t-244.5 -33.5q-210 0 -374.5 94.5t-252.5 253t-88 349.5z" />
<glyph unicode="D" horiz-adv-x="1458" d="M180 0v1331h445q167 0 302 -52.5t221.5 -143.5t132.5 -211t46 -258t-46 -258t-132.5 -211.5t-221.5 -144t-302 -52.5h-445zM334 129h291q173 0 299 70.5t188 191t62 275.5t-62 275t-187.5 190.5t-299.5 70.5h-291v-1073z" />
<glyph unicode="E" horiz-adv-x="1175" d="M180 0v1331h895q10 -32 9.5 -64.5t-9.5 -64.5h-741v-457h680q8 -32 8 -64.5t-8 -64.5h-680v-487h741q10 -32 9.5 -64.5t-9.5 -64.5h-895z" />
<glyph unicode="F" horiz-adv-x="1175" d="M180 0v1331h895q10 -32 9.5 -64.5t-9.5 -64.5h-741v-469h680q8 -32 8 -64t-8 -65h-680v-604q-32 -9 -77.5 -9t-76.5 9z" />
<glyph unicode="G" horiz-adv-x="1486" d="M129 666q0 143 52 270.5t144 221.5t226.5 149t292.5 55q130 0 244.5 -33.5t195.5 -89.5q9 -18 10 -75v-6q0 -53 -10 -66q-192 141 -432 141q-162 0 -291.5 -73.5t-202.5 -203t-73 -290.5q0 -162 73 -292.5t202.5 -204t291.5 -73.5q176 0 313 78v463q31 7 74.5 7t75.5 -7 v-545q-82 -56 -209.5 -89.5t-261.5 -33.5q-210 0 -374.5 94.5t-252.5 253t-88 349.5z" />
<glyph unicode="H" horiz-adv-x="1482" d="M180 0v1331q31 9 76.5 9t77.5 -9v-586h815v586q31 9 76.5 9t77.5 -9v-1331q-32 -9 -77.5 -9t-76.5 9v616h-815v-616q-32 -9 -77.5 -9t-76.5 9z" />
<glyph unicode="I" horiz-adv-x="514" d="M180 0v1331q31 9 76.5 9t77.5 -9v-1331q-32 -9 -77.5 -9t-76.5 9z" />
<glyph unicode="J" horiz-adv-x="841" d="M76 110q0 49 10 60q98 -64 197 -64q104 0 164.5 65.5t60.5 211.5v948q32 9 77.5 9t76.5 -9v-960q0 -199 -91.5 -300.5t-251.5 -101.5q-127 0 -233 68q-10 16 -10 73z" />
<glyph unicode="K" horiz-adv-x="1280" d="M180 0v1331q31 9 76.5 9t77.5 -9v-616l645 616q31 9 94.5 9t95.5 -9l-673 -645l708 -686q-31 -9 -94.5 -9t-95.5 9l-680 657v-657q-32 -9 -77.5 -9t-76.5 9z" />
<glyph unicode="L" horiz-adv-x="1126" d="M180 0v1331q31 9 76.5 9t77.5 -9v-1202h708q8 -32 8 -64.5t-8 -64.5h-862z" />
<glyph unicode="M" horiz-adv-x="1818" d="M76 0l309 1331q32 10 65.5 9.5t67.5 -9.5l391 -1093l394 1093q32 10 65 9.5t66 -9.5l309 -1331q-31 -9 -75 -9t-75 9l-239 1061l-381 -1061q-32 -10 -63.5 -10t-63.5 10l-381 1061l-240 -1061q-31 -9 -74.5 -9t-74.5 9z" />
<glyph unicode="N" horiz-adv-x="1464" d="M172 0v1331q31 9 62.5 9t62.5 -9l842 -1075v1075q32 9 77 9t76 -9v-1331q-30 -9 -61.5 -9t-63.5 9l-841 1075v-1075q-32 -9 -77.5 -9t-76.5 9z" />
<glyph unicode="O" horiz-adv-x="1654" d="M129 666q0 142 51.5 270t142 222t221.5 149t283 55q151 0 282 -55t221.5 -149t142 -222t51.5 -270t-51.5 -270t-142 -222.5t-221.5 -149.5t-282 -55q-202 0 -363 94.5t-248 253t-87 349.5zM285 666q0 -244 154.5 -406t387.5 -162t387 161.5t154 406.5q0 244 -154 405.5 t-387 161.5t-387.5 -161.5t-154.5 -405.5z" />
<glyph unicode="P" horiz-adv-x="1273" d="M180 0v1331h475q117 0 211.5 -34t154 -93.5t91 -137t31.5 -165.5t-31.5 -165.5t-91 -137t-154 -93.5t-211.5 -34h-321v-471q-32 -9 -77.5 -9t-76.5 9zM334 600h321q161 0 246.5 85t85.5 216t-85.5 216t-246.5 85h-321v-602z" />
<glyph unicode="Q" horiz-adv-x="1654" d="M129 666q0 142 51.5 270t142 222t221.5 149t283 55q151 0 282 -55t221.5 -149t142 -222t51.5 -270q0 -158 -62 -296.5t-177 -236t-265 -135.5l248 -334q-32 -8 -82.5 -8t-81.5 8l-230 307q-8 0 -27 -1t-28 -1q-200 2 -359 96.5t-245 252.5t-86 348zM285 666 q0 -244 154.5 -406t387.5 -162t387 161.5t154 406.5q0 244 -154 405.5t-387 161.5t-387.5 -161.5t-154.5 -405.5z" />
<glyph unicode="R" horiz-adv-x="1286" d="M180 0v1331h492q117 0 211 -33.5t153.5 -91.5t91 -133.5t31.5 -163.5q0 -148 -86.5 -256.5t-251.5 -142.5l377 -510q-31 -9 -85 -9t-85 9l-362 487h-332v-487q-32 -9 -77.5 -9t-76.5 9zM334 616h338q162 0 247 82.5t85 210.5t-85 210.5t-247 82.5h-338v-586z" />
<glyph unicode="S" horiz-adv-x="1157" d="M129 993q0 155 118 262t322 107q223 0 383 -123q8 -19 8 -80q0 -3 1 -6q0 -55 -9 -66q-187 146 -383 146q-131 0 -207.5 -65t-76.5 -162q0 -43 14 -75.5t36 -56t69.5 -47t94.5 -40.5t130 -44q52 -17 86.5 -29.5t80 -33t75.5 -41t62 -50.5t50.5 -63.5t30.5 -79t12 -98.5 q0 -172 -128 -275.5t-325 -103.5q-108 0 -218 33.5t-193 93.5q-10 18 -10 78v6q0 55 10 68q96 -71 202 -110.5t205 -39.5q136 0 219.5 67.5t83.5 174.5q0 27 -5 50.5t-12.5 42.5t-24 36.5t-30 30t-41 26.5t-46.5 23.5t-56.5 22.5t-62 21t-70.5 23q-73 24 -123 43.5t-106 52 t-89 69.5t-55 91t-22 121z" />
<glyph unicode="T" horiz-adv-x="1200" d="M84 1202q-10 32 -10 64t10 65h1030q10 -32 10 -64.5t-10 -64.5h-438v-1202q-32 -9 -77.5 -9t-76.5 9v1202h-438z" />
<glyph unicode="U" horiz-adv-x="1425" d="M180 514v817q31 9 78 9t78 -9v-837q0 -182 102.5 -289t278.5 -107q175 0 278 107t103 289v837q31 9 77 9t78 -9v-817q0 -263 -142.5 -404t-393.5 -141t-394 141t-143 404z" />
<glyph unicode="V" horiz-adv-x="1378" d="M76 1331q31 9 78.5 9t78.5 -9l457 -1108l455 1108q32 9 80 9t80 -9l-549 -1331q-33 -10 -65.5 -10t-65.5 10z" />
<glyph unicode="W" horiz-adv-x="2064" d="M76 1331q31 9 78 9t79 -9l367 -1104l367 1104q32 9 65 9t66 -9l366 -1104l367 1104q32 9 79.5 9t78.5 -9l-459 -1331q-32 -10 -65 -10t-66 10l-367 1081l-366 -1081q-34 -10 -66.5 -10t-64.5 10z" />
<glyph unicode="X" horiz-adv-x="1275" d="M76 0l459 686l-437 645q31 9 88 9t88 -9l369 -540l358 540q31 9 88.5 9t88.5 -9l-437 -645l459 -686q-31 -9 -88 -9t-88 9l-391 578l-381 -578q-31 -9 -88 -9t-88 9z" />
<glyph unicode="Y" horiz-adv-x="1318" d="M76 1331q31 9 83 9t83 -9l417 -686l418 686q32 9 83.5 9t82.5 -9l-506 -831v-500q-32 -9 -77 -9t-76 9v500z" />
<glyph unicode="Z" horiz-adv-x="1128" d="M90 0v18l721 1184h-692q-10 32 -9.5 64t9.5 65h919v-18l-723 -1184h713q10 -32 10 -64.5t-10 -64.5h-938z" />
<glyph unicode="[" horiz-adv-x="536" d="M86 -229v1560h354q18 -60 0 -123h-213v-1314h213q18 -60 0 -123h-354z" />
<glyph unicode="\" horiz-adv-x="655" d="M86 1331q67 19 133 0l350 -1331q-67 -19 -133 0z" />
<glyph unicode="]" horiz-adv-x="536" d="M96 -106h213v1314h-213q-18 63 0 123h355v-1560h-355q-18 63 0 123z" />
<glyph unicode="^" horiz-adv-x="868" d="M86.5 909.5q0.5 62.5 9.5 81.5l338 340l338 -340q8 -19 8.5 -81.5t-8.5 -75.5l-338 342l-338 -342q-10 13 -9.5 75.5z" />
<glyph unicode="_" horiz-adv-x="995" d="M96 -117h805q16 -53 0 -110h-805q-19 57 0 110z" />
<glyph unicode="`" horiz-adv-x="501" d="M86 1726q6 20 39 46.5t55 29.5l236 -291q-8 -19 -31 -37.5t-43 -21.5z" />
<glyph unicode="a" horiz-adv-x="993" d="M100 236q0 118 85 191t223 73q94 0 175.5 -34.5t129.5 -76.5v107q0 115 -63.5 177t-188.5 62q-137 0 -279 -92q-9 13 -8.5 58t8.5 63q47 36 128.5 61t176.5 25q183 0 275 -96.5t92 -268.5v-485q-30 -9 -61.5 -9t-63.5 9l-6 100q-52 -52 -139 -91.5t-183 -39.5 q-132 0 -216.5 73.5t-84.5 193.5zM242 244q0 -72 52.5 -119t143.5 -47q83 0 161 36t116 74v109q-37 37 -115.5 73t-161.5 36q-92 0 -144 -46t-52 -116z" />
<glyph unicode="b" d="M143 0v1331q31 9 71 9t71 -9v-616q121 135 303 135t293.5 -125.5t111.5 -314.5t-111.5 -315t-293.5 -126q-189 0 -312 146l-8 -115q-31 -9 -62 -9t-63 9zM285 221q42 -48 112.5 -88.5t157.5 -40.5q134 0 215.5 89t81.5 229q0 139 -81.5 228t-215.5 89q-87 0 -157.5 -40.5 t-112.5 -88.5v-377z" />
<glyph unicode="c" horiz-adv-x="1005" d="M106 410q0 192 128 316t331 124q178 0 293 -92q9 -19 9 -69q0 -42 -9 -54q-140 94 -280 94q-145 0 -237.5 -89t-92.5 -230t92.5 -230.5t237.5 -89.5q140 0 280 94q9 -12 9 -54q0 -50 -9 -69q-115 -92 -293 -92q-203 0 -331 124.5t-128 316.5z" />
<glyph unicode="d" d="M106 410q0 123 48.5 222.5t142 158.5t215.5 59q182 0 303 -135v616q34 10 69.5 10t71.5 -10v-1331q-32 -9 -63 -9t-62 9l-10 115q-119 -146 -309 -146q-183 0 -294.5 126t-111.5 315zM248 410q0 -140 81.5 -229t215.5 -89q87 0 157.5 40.5t112.5 88.5v377 q-42 48 -112.5 88.5t-157.5 40.5q-134 0 -215.5 -89t-81.5 -228z" />
<glyph unicode="e" horiz-adv-x="1042" d="M106 410q0 190 122.5 315t314.5 125q104 0 187.5 -41t131.5 -107t66 -147q10 -45 11 -89q0 -36 -7 -73h-682q4 -139 94 -221t231 -82q147 0 287 94q10 -13 9 -58.5t-9 -64.5q-49 -39 -127.5 -65.5t-171.5 -26.5q-204 0 -330.5 122t-126.5 319zM258 475h549v6 q1 112 -71 184q-74 74 -191 74q-119 0 -197 -73t-90 -191z" />
<glyph unicode="f" horiz-adv-x="772" d="M84 698q-10 31 -10 61.5t10 59.5h129v275q0 131 75.5 199.5t188.5 68.5t211 -57q10 -16 10 -71q0 -47 -10 -58q-97 65 -180 65q-70 0 -112 -41t-42 -131v-250h285q10 -29 10 -59.5t-10 -61.5h-285v-698q-34 -10 -69.5 -10t-71.5 10v698h-129z" />
<glyph unicode="g" horiz-adv-x="1095" d="M106 414q0 186 111.5 311t294.5 125q191 0 309 -145l10 114q31 9 62 9t63 -9v-801q0 -173 -106 -278t-297 -105q-96 0 -180 27t-131 64q-8 19 -9 62t9 56q134 -90 286 -90q134 0 210.5 68t76.5 188v103q-49 -56 -125 -96t-178 -40q-183 0 -294.5 125.5t-111.5 311.5z M248 414q0 -138 81.5 -226t215.5 -88q87 0 157.5 40.5t112.5 88.5v369q-42 48 -112.5 88.5t-157.5 40.5q-133 0 -215 -88t-82 -225z" />
<glyph unicode="h" horiz-adv-x="1050" d="M147 0v1331q31 9 71 9t71 -9v-626q58 58 136 101.5t165 43.5q163 0 242 -93.5t79 -238.5v-518q-34 -10 -69.5 -10t-71.5 10v492q0 109 -54 172t-165 63q-77 0 -148.5 -43t-113.5 -90v-594q-31 -9 -71 -9t-71 9z" />
<glyph unicode="i" horiz-adv-x="487" d="M147 1128q0 41 28.5 68t70.5 27q40 0 68 -27t28 -68q0 -39 -28 -65.5t-68 -26.5q-42 0 -70.5 26.5t-28.5 65.5zM174 0v819q31 9 70.5 9t70.5 -9v-819q-31 -9 -70.5 -9t-70.5 9z" />
<glyph unicode="j" horiz-adv-x="577" d="M8 -248q0 43 10 55q83 -51 152 -51q98 0 98 123v940q35 10 70 10l70 -10v-956q0 -112 -56 -170t-151 -58q-100 0 -183 48q-10 19 -10 69zM246 1126q0 38 27.5 63t66.5 25t66.5 -25t27.5 -63q0 -39 -27.5 -64.5t-66.5 -25.5t-66.5 25.5t-27.5 64.5z" />
<glyph unicode="k" horiz-adv-x="958" d="M147 0v1331q31 9 71 9t71 -9v-878l407 366q32 9 86 9t86 -9l-442 -395l459 -424q-32 -9 -86.5 -9t-85.5 9l-424 393v-393q-31 -9 -71 -9t-71 9z" />
<glyph unicode="l" horiz-adv-x="428" d="M147 0v1331q31 9 71 9t71 -9v-1331q-31 -9 -71 -9t-71 9z" />
<glyph unicode="m" horiz-adv-x="1646" d="M143 0v819q32 9 63 9t62 -9l8 -127q60 64 140 111t172 47q110 0 179.5 -47.5t100.5 -130.5q158 178 330 178q156 0 232.5 -93.5t76.5 -238.5v-518q-34 -10 -69.5 -10t-71.5 10v492q0 109 -52 172t-157 63q-78 0 -147 -43.5t-115 -93.5v-590q-34 -10 -69 -10t-70 10v492 q0 109 -52 172t-157 63q-78 0 -149 -44.5t-113 -92.5v-590q-31 -9 -71 -9t-71 9z" />
<glyph unicode="n" horiz-adv-x="1050" d="M143 0v819q32 9 63 9t62 -9l8 -127q59 63 141 110.5t173 47.5q163 0 242 -93.5t79 -238.5v-518q-34 -10 -69.5 -10t-71.5 10v492q0 109 -54 172t-167 63q-77 0 -150 -45t-114 -92v-590q-31 -9 -71 -9t-71 9z" />
<glyph unicode="o" d="M106 410q0 186 126 313t319 127q192 0 317 -127t125 -313q0 -122 -56 -222.5t-158 -159.5t-228 -59q-193 0 -319 127t-126 314zM248 410q0 -138 86 -228t217 -90q129 0 215 90t86 228t-86 227.5t-215 89.5q-131 0 -217 -89.5t-86 -227.5z" />
<glyph unicode="p" horiz-adv-x="1103" d="M147 -334v1153q31 9 62 9t63 -9l9 -114q122 145 311 145q182 0 293.5 -125.5t111.5 -314.5t-111.5 -315t-293.5 -126t-303 135v-438q-31 -9 -71 -9t-71 9zM289 221q42 -48 112.5 -88.5t157.5 -40.5q134 0 215.5 89t81.5 229q0 139 -81.5 228t-215.5 89 q-87 0 -157.5 -40.5t-112.5 -88.5v-377z" />
<glyph unicode="q" d="M106 410q0 123 48.5 222.5t142 158.5t215.5 59q191 0 309 -145l10 114q31 9 62 9t63 -9v-1153q-36 -10 -71 -10t-70 10v438q-121 -135 -303 -135q-183 0 -294.5 126t-111.5 315zM248 410q0 -140 81.5 -229t215.5 -89q87 0 157.5 40.5t112.5 88.5v377q-42 48 -112.5 88.5 t-157.5 40.5q-134 0 -215.5 -89t-81.5 -228z" />
<glyph unicode="r" horiz-adv-x="819" d="M143 0v819q32 9 63 9t62 -9l13 -164q22 34 48 64t63.5 62t84.5 50.5t98 18.5q97 0 160 -39q9 -12 9 -64v-6q0 -57 -9 -73q-86 53 -178 53q-82 0 -154.5 -59.5t-117.5 -129.5v-532q-31 -9 -71 -9t-71 9z" />
<glyph unicode="s" horiz-adv-x="827" d="M90 606q0 114 89.5 179t223.5 65q82 0 164.5 -23.5t126.5 -60.5q9 -16 9.5 -58t-9.5 -55q-152 101 -278 101q-75 0 -130 -34t-55 -95q0 -24 9.5 -42.5t26.5 -32.5t44 -26.5t57 -23.5t71 -24q5 -1 8.5 -2.5t7.5 -2.5q70 -23 115.5 -43.5t86.5 -50.5t60.5 -70t19.5 -92 q0 -81 -48 -138.5t-119.5 -82.5t-157.5 -25q-82 0 -165.5 23.5t-129.5 60.5q-8 16 -8.5 58t8.5 55q155 -100 289 -100q77 0 133.5 33t56.5 98q0 25 -10.5 44.5t-23.5 32.5t-45 27.5t-55 23t-75 25.5q-8 3 -12 4q-70 23 -113.5 42t-87 48.5t-64 69.5t-20.5 92z" />
<glyph unicode="t" horiz-adv-x="749" d="M84 698q-10 31 -10 61.5t10 59.5h129v266q36 10 71.5 10t69.5 -10v-266h271q8 -30 8.5 -60t-8.5 -61h-271v-485q0 -123 103 -123q75 0 182 84q10 -12 10 -56q0 -50 -10 -69q-35 -31 -92.5 -55.5t-120.5 -24.5q-97 0 -155 58t-58 170v501h-129z" />
<glyph unicode="u" horiz-adv-x="1046" d="M139 301v518q31 9 71 9t71 -9v-491q0 -109 55 -172.5t166 -63.5q79 0 150.5 44.5t113.5 92.5v590q36 10 71 10t70 -10v-819q-30 -9 -61.5 -9t-63.5 9l-8 127q-57 -63 -138.5 -110.5t-174.5 -47.5q-83 0 -146.5 26.5t-101 73t-56 105t-18.5 127.5z" />
<glyph unicode="v" horiz-adv-x="1028" d="M74 819q31 9 74 9t75 -9l291 -637l291 637q31 9 74 9t75 -9l-379 -819q-26 -9 -61 -9t-61 9z" />
<glyph unicode="w" horiz-adv-x="1454" d="M74 819q31 9 74.5 9t74.5 -9l215 -629l228 629q26 9 60.5 9t59.5 -9l230 -629l215 629q31 9 74.5 9t74.5 -9l-303 -819q-26 -9 -60.5 -9t-60.5 9l-229 637l-229 -637q-26 -9 -60.5 -9t-60.5 9z" />
<glyph unicode="x" horiz-adv-x="995" d="M74 0l327 424l-309 395q31 9 80.5 9t81.5 -9l248 -309l241 309q32 9 80.5 9t79.5 -9l-309 -395l328 -424q-32 -9 -82 -9t-82 9l-262 332l-263 -332q-31 -9 -79.5 -9t-79.5 9z" />
<glyph unicode="y" horiz-adv-x="1028" d="M74 819q31 9 74 9t75 -9l293 -602l289 602q31 9 74 9t75 -9l-561 -1153q-32 -9 -73 -9t-72 9l194 400z" />
<glyph unicode="z" horiz-adv-x="868" d="M84 0v16l487 680h-458q-9 32 -9 62.5t9 60.5h669v-16l-487 -680h479q9 -30 9 -60.5t-9 -62.5h-690z" />
<glyph unicode="{" horiz-adv-x="620" d="M86 535v32q74 29 99 57.5t28 75.5q40 368 184 631q69 20 138 0q-63 -127 -100 -241.5t-49 -181.5t-28 -193q-9 -62 -40 -98t-97 -66q66 -30 97 -66t40 -98q16 -126 28 -193t49 -181.5t100 -241.5q-69 -20 -138 0q-144 263 -184 630q-3 48 -28 76.5t-99 57.5z" />
<glyph unicode="|" horiz-adv-x="270" d="M86 -123v1454q49 17 98 0v-1454q-49 -17 -98 0z" />
<glyph unicode="}" horiz-adv-x="620" d="M86 -229q63 127 100 242t48.5 180.5t27.5 193.5q9 62 40 98t97 66q-66 30 -97 66t-40 98q-16 128 -27.5 193.5t-48.5 180.5t-100 242q69 20 137 0q145 -265 185 -631q3 -47 28 -75.5t99 -57.5v-32q-74 -29 -99 -57.5t-28 -76.5q-40 -364 -185 -630q-69 -20 -137 0z" />
<glyph unicode="~" horiz-adv-x="972" d="M96 422q-19 57 0 110q8 4 36 20t44.5 24t43.5 19t54.5 16t55.5 5q46 0 90 -15.5t73.5 -34.5t71 -34.5t82.5 -15.5q22 0 45.5 4.5t41.5 10.5t42.5 17t37 17t36 19t29.5 16q16 -54 0 -111q-7 -4 -36 -20t-44.5 -23.5t-43 -18.5t-55 -16t-55.5 -5q-46 0 -90 15.5t-73.5 34.5 t-71 34.5t-82.5 15.5q-22 0 -45.5 -4.5t-41.5 -10.5t-42.5 -17t-37 -17t-36 -19t-29.5 -16z" />
<glyph unicode="&#xa2;" horiz-adv-x="997" d="M106 410q0 184 119 307t310 133v190q12 9 30.5 9t32.5 -9v-190q160 -11 260 -92q8 -18 8.5 -64t-8.5 -59q-140 94 -280 94q-145 0 -237.5 -89t-92.5 -230t92.5 -230.5t237.5 -89.5q140 0 280 94q9 -13 8.5 -59t-8.5 -64q-100 -81 -260 -92v-190q-14 -9 -32.5 -9t-30.5 9 v190q-191 10 -310 133.5t-119 307.5z" />
<glyph unicode="&#xa3;" horiz-adv-x="1202" d="M75 640q0 18 9 32h156q-23 225 -23 303q0 76 28 144.5t81 123t137.5 87t189.5 32.5q107 0 204 -33t163 -90q8 -20 9 -80t-9 -72q-79 69 -172 107.5t-184 38.5q-133 0 -212 -76t-79 -188q0 -97 24 -297h430q9 -14 9 -32t-9 -30h-419q7 -81 8.5 -138t-2.5 -123.5 t-22 -121.5t-50 -98h678q16 -64 0 -129h-862v18q44 59 69 128t31 150t3 149t-13 165h-164q-9 12 -9 30z" />
<glyph unicode="&#xa5;" horiz-adv-x="1318" d="M76 1331q31 9 83 9t83 -9l417 -686l418 686q32 9 83.5 9t82.5 -9l-487 -796h282q9 -14 9 -31.5t-9 -30.5h-301v-162h301q9 -12 9 -30t-9 -31h-301v-250q-32 -9 -77 -9t-76 9v250h-303q-7 14 -7 31.5t7 29.5h303v162h-303q-17 31 0 62h282z" />
<glyph unicode="&#xa8;" horiz-adv-x="856" d="M86 1626q0 41 28 67.5t70 26.5q40 0 68.5 -26.5t28.5 -67.5q0 -39 -28.5 -65.5t-68.5 -26.5q-42 0 -70 26t-28 66zM573 1626q0 41 28.5 67.5t70.5 26.5q40 0 68 -26.5t28 -67.5q0 -39 -28 -65.5t-68 -26.5q-42 0 -70.5 26.5t-28.5 65.5z" />
<glyph unicode="&#xa9;" horiz-adv-x="1290" d="M86 881q0 149 72 275.5t201 202t286 75.5q158 0 287 -75.5t200.5 -201.5t71.5 -276t-71.5 -276t-200.5 -201.5t-287 -75.5q-157 0 -286 75.5t-201 202t-72 275.5zM162 881q0 -201 137 -341.5t346 -140.5t346 140.5t137 341.5t-137 340t-346 139t-346 -139t-137 -340z M350 881q0 127 86 211t221 84q117 0 199 -62q6 -11 6.5 -44t-6.5 -40q-95 64 -190 64q-94 0 -157 -59.5t-63 -153.5q0 -95 63 -155t157 -60q96 0 190 63q7 -7 6.5 -40t-6.5 -44q-81 -61 -199 -61q-135 0 -221 84t-86 213z" />
<glyph unicode="&#xab;" horiz-adv-x="870" d="M86 444l262 320q56 17 113 0l-228 -320l228 -319q-57 -17 -113 0zM410 444l262 320q56 16 112 0l-227 -320l227 -319q-56 -16 -112 0z" />
<glyph unicode="&#xad;" horiz-adv-x="753" d="M96 508q-19 57 0 110h563q16 -53 0 -110h-563z" />
<glyph unicode="&#xae;" horiz-adv-x="1290" d="M86 881q0 149 72 275.5t201 202t286 75.5q158 0 287 -75.5t200.5 -201.5t71.5 -276t-71.5 -276t-200.5 -201.5t-287 -75.5q-157 0 -286 75.5t-201 202t-72 275.5zM162 881q0 -201 137 -341.5t346 -140.5t346 140.5t137 341.5t-137 340t-346 139t-346 -139t-137 -340z M416 600v561h286q89 0 143 -44t54 -132q0 -66 -36.5 -105.5t-98.5 -52.5l174 -227q-20 -6 -56 -6t-55 6l-165 215h-150v-215q-19 -6 -47.5 -6t-48.5 6zM512 889h170q49 0 84 22t35 76q0 55 -35 77.5t-84 22.5h-170v-198z" />
<glyph unicode="&#xb4;" horiz-adv-x="501" d="M86 1511l236 291q22 -3 55 -29.5t39 -46.5l-256 -274q-20 3 -43 21.5t-31 37.5z" />
<glyph unicode="&#xb8;" horiz-adv-x="487" d="M86 -361q0 27 8 39q64 -43 121 -43q45 2 74.5 27t29.5 68q0 60 -55.5 82t-122.5 -7v195h80v-127q65 10 122.5 -31.5t57.5 -120.5q0 -73 -50.5 -117t-127.5 -44q-69 0 -129 37q-8 15 -8 42z" />
<glyph unicode="&#xbb;" horiz-adv-x="870" d="M86 125l227 319l-227 320q56 17 113 0l262 -320l-262 -319q-56 -17 -113 0zM410 125l227 319l-227 320q56 16 112 0l262 -320l-262 -319q-56 -16 -112 0z" />
<glyph unicode="&#x2c6;" horiz-adv-x="772" d="M86 1520l258 260q17 14 42 14t40 -14l258 -260q-6 -21 -34 -47t-48 -29l-217 219l-217 -219q-20 3 -48 29t-34 47z" />
<glyph unicode="&#x2da;" horiz-adv-x="522" d="M86 1640q0 70 50.5 120t123.5 50t123.5 -50t50.5 -120q0 -72 -50.5 -123t-123.5 -51t-123.5 51t-50.5 123zM174 1640q0 -37 23.5 -62.5t62.5 -25.5t63.5 26t24.5 62q0 34 -25 60t-63 26t-62 -26t-24 -60z" />
<glyph unicode="&#x2dc;" horiz-adv-x="802" d="M96 1524q-19 53 0 110q5 2 26.5 14t28.5 15.5t26.5 12t31 11.5t29 6t34.5 3q58 0 154 -45q58 -25 106 -25q59 0 177 62q16 -57 0 -111q-2 -1 -22.5 -12t-25 -13t-22.5 -10.5t-26.5 -11t-23.5 -7t-28.5 -6t-28.5 -1.5q-57 0 -153 45q-56 24 -107 24q-60 0 -176 -61z" />
<glyph unicode="&#x401;" horiz-adv-x="1175" d="M180 0v1331h895q19 -65 0 -129h-741v-457h680q16 -64 0 -129h-680v-487h741q19 -65 0 -129h-895zM287 1626q0 41 28 67.5t70 26.5q40 0 68 -26.5t28 -67.5q0 -39 -28 -65.5t-68 -26.5q-42 0 -70 26t-28 66zM760 1626q0 41 28 67.5t70 26.5q40 0 68 -26.5t28 -67.5 q0 -39 -28 -65.5t-68 -26.5q-42 0 -70 26t-28 66z" />
<glyph unicode="&#x410;" horiz-adv-x="1398" d="M76 0l559 1331q65 19 131 0l559 -1331q-32 -9 -80 -9t-80 9l-153 371h-623l-156 -371q-31 -9 -78.5 -9t-78.5 9zM436 502h527l-265 633z" />
<glyph unicode="&#x411;" horiz-adv-x="1263" d="M180 0v1331h838q19 -65 0 -129h-684v-383h328q117 0 210.5 -33.5t151.5 -91t88.5 -130.5t30.5 -154t-30.5 -154t-88.5 -130.5t-151.5 -91.5t-210.5 -34h-482zM334 129h328q159 0 242 82t83 199q0 118 -83 199t-242 81h-328v-561z" />
<glyph unicode="&#x412;" horiz-adv-x="1251" d="M180 0v1331h525q181 0 296 -94t115 -244q0 -107 -55 -186t-150 -115q121 -36 184.5 -121.5t63.5 -203.5q0 -166 -120 -266.5t-330 -100.5h-529zM334 129h366q146 0 225 68.5t79 185.5q0 111 -73 177.5t-220 66.5h-377v-498zM334 737h377q116 0 184 63t68 169 q0 107 -76 170t-197 63h-356v-465z" />
<glyph unicode="&#x413;" horiz-adv-x="1126" d="M180 0v1331h862q16 -65 0 -129h-708v-1202q-32 -9 -77.5 -9t-76.5 9z" />
<glyph unicode="&#x414;" horiz-adv-x="1558" d="M76 129h129q145 92 176 373l84 829h854v-1202h164v-360q-31 -9 -76 -9t-76 9v231h-1102v-231q-32 -9 -77 -9t-76 9v360zM387 129h778v1073h-559l-71 -700q-27 -266 -148 -373z" />
<glyph unicode="&#x415;" horiz-adv-x="1175" d="M180 0v1331h895q19 -65 0 -129h-741v-457h680q16 -64 0 -129h-680v-487h741q19 -65 0 -129h-895z" />
<glyph unicode="&#x416;" horiz-adv-x="1794" d="M76 2l594 686l-559 645q32 9 89.5 9t88.5 -9l532 -610v610q31 9 76.5 9t77.5 -9v-614l530 612q32 9 89.5 9t88.5 -9l-559 -645l594 -686q-31 -9 -88.5 -9t-89.5 9l-565 649v-649q-32 -9 -77.5 -9t-76.5 9v653l-567 -651q-31 -8 -89 -8t-89 8z" />
<glyph unicode="&#x417;" horiz-adv-x="1191" d="M172.5 167.5q-0.5 57.5 9.5 70.5q194 -140 434 -140q143 0 236.5 73.5t93.5 197.5q0 109 -73.5 180.5t-217.5 71.5h-231q-15 60 0 122h229q113 0 182.5 68.5t69.5 173.5t-77 176.5t-212 71.5q-103 0 -212 -36.5t-201 -104.5q-10 14 -9.5 71.5t9.5 75.5q81 56 192.5 89.5 t229.5 33.5q201 0 317.5 -102.5t116.5 -251.5q0 -108 -57 -193t-154 -125q124 -37 189 -128.5t65 -209.5q0 -173 -132.5 -278t-344.5 -105q-132 0 -247.5 33t-195.5 90q-9 18 -9.5 75.5z" />
<glyph unicode="&#x418;" horiz-adv-x="1464" d="M172 0v1331q31 9 76.5 9t77.5 -9v-1075l841 1075q64 18 125 0v-1331q-31 -9 -76 -9t-77 9v1075l-842 -1075q-63 -18 -125 0z" />
<glyph unicode="&#x419;" horiz-adv-x="1464" d="M172 0v1331q31 9 76.5 9t77.5 -9v-1075l841 1075q64 18 125 0v-1331q-31 -9 -76 -9t-77 9v1075l-842 -1075q-63 -18 -125 0zM418.5 1670q-0.5 47 9.5 59q142 -95 299 -95t299 95q10 -13 9 -59t-9 -62q-49 -39 -127.5 -65.5t-171.5 -26.5t-172.5 26.5t-126.5 65.5 q-9 15 -9.5 62z" />
<glyph unicode="&#x41a;" horiz-adv-x="1280" d="M180 0v1331q31 9 76.5 9t77.5 -9v-616l645 616q31 9 94.5 9t95.5 -9l-673 -645l708 -686q-31 -9 -94.5 -9t-95.5 9l-680 657v-657q-32 -9 -77.5 -9t-76.5 9z" />
<glyph unicode="&#x41b;" horiz-adv-x="1484" d="M84 -20q-19 64 0 131q18 -5 47 -5q100 0 155 64t70 213l99 948h854v-1331q-31 -9 -76 -9t-76 9v1202h-563l-84 -831q-22 -204 -105 -303t-237 -99q-38 0 -84 11z" />
<glyph unicode="&#x41c;" horiz-adv-x="1818" d="M76 0l309 1331q65 19 133 0l391 -1093l394 1093q65 19 131 0l309 -1331q-31 -9 -75 -9t-75 9l-239 1061l-381 -1061q-63 -19 -127 0l-381 1061l-240 -1061q-31 -9 -74.5 -9t-74.5 9z" />
<glyph unicode="&#x41d;" horiz-adv-x="1482" d="M180 0v1331q31 9 76.5 9t77.5 -9v-586h815v586q31 9 76.5 9t77.5 -9v-1331q-32 -9 -77.5 -9t-76.5 9v616h-815v-616q-32 -9 -77.5 -9t-76.5 9z" />
<glyph unicode="&#x41e;" horiz-adv-x="1654" d="M129 666q0 142 51.5 270t142 222t221.5 149t283 55q151 0 282 -55t221.5 -149t142 -222t51.5 -270t-51.5 -270t-142 -222.5t-221.5 -149.5t-282 -55q-202 0 -363 94.5t-248 253t-87 349.5zM285 666q0 -244 154.5 -406t387.5 -162t387 161.5t154 406.5q0 244 -154 405.5 t-387 161.5t-387.5 -161.5t-154.5 -405.5z" />
<glyph unicode="&#x41f;" horiz-adv-x="1482" d="M180 0v1331h1123v-1331q-32 -9 -77.5 -9t-76.5 9v1202h-815v-1202q-32 -9 -77.5 -9t-76.5 9z" />
<glyph unicode="&#x420;" horiz-adv-x="1273" d="M180 0v1331h475q117 0 211.5 -34t154 -93.5t91 -137t31.5 -165.5t-31.5 -165.5t-91 -137t-154 -93.5t-211.5 -34h-321v-471q-32 -9 -77.5 -9t-76.5 9zM334 600h321q161 0 246.5 85t85.5 216t-85.5 216t-246.5 85h-321v-602z" />
<glyph unicode="&#x421;" horiz-adv-x="1466" d="M129 666q0 143 52 270.5t144 221.5t226.5 149t292.5 55q130 0 244.5 -33.5t195.5 -89.5q9 -18 9.5 -75.5t-9.5 -71.5q-192 141 -432 141q-162 0 -291.5 -73.5t-202.5 -203t-73 -290.5t73 -291t202.5 -203.5t291.5 -73.5q239 0 432 142q10 -14 9.5 -72t-9.5 -76 q-81 -56 -195.5 -89.5t-244.5 -33.5q-210 0 -374.5 94.5t-252.5 253t-88 349.5z" />
<glyph unicode="&#x422;" horiz-adv-x="1200" d="M84 1202q-19 64 0 129h1030q19 -65 0 -129h-438v-1202q-32 -9 -77.5 -9t-76.5 9v1202h-438z" />
<glyph unicode="&#x423;" horiz-adv-x="1318" d="M76 1331q31 9 83 9t83 -9l417 -686l418 686q32 9 83.5 9t82.5 -9l-813 -1331q-32 -9 -83.5 -9t-82.5 9l314 510z" />
<glyph unicode="&#x424;" horiz-adv-x="1859" d="M129 668q0 76 20.5 148.5t67.5 142t116.5 121t175 83t234.5 31.5h111v137q31 9 76 9t76 -9v-137h108q130 0 236 -31.5t175.5 -83t117 -121t68 -142t20.5 -148.5t-20.5 -148.5t-68 -142t-117 -121.5t-175.5 -83.5t-236 -31.5h-108v-141q-31 -9 -76 -9t-76 9v141h-111 q-129 0 -234.5 31.5t-175 83.5t-116.5 121.5t-67.5 142t-20.5 148.5zM285 668q0 -58 14.5 -113t49 -107.5t85.5 -91.5t130 -62.5t177 -23.5h113v795h-113q-98 0 -177 -23.5t-130 -62t-85.5 -90.5t-49 -107t-14.5 -114zM1008 270h110q98 0 177.5 23.5t131 62.5t86.5 91.5 t49.5 107.5t14.5 113q0 75 -25 142.5t-76.5 126t-143.5 93.5t-214 35h-110v-795z" />
<glyph unicode="&#x425;" horiz-adv-x="1275" d="M76 0l459 686l-437 645q31 9 88 9t88 -9l369 -540l358 540q31 9 88.5 9t88.5 -9l-437 -645l459 -686q-31 -9 -88 -9t-88 9l-391 578l-381 -578q-31 -9 -88 -9t-88 9z" />
<glyph unicode="&#x426;" horiz-adv-x="1513" d="M180 0v1331q31 9 76.5 9t77.5 -9v-1202h786v1202q31 9 76 9t76 -9v-1202h166v-360q-31 -9 -76.5 -9t-77.5 9v231h-1104z" />
<glyph unicode="&#x427;" horiz-adv-x="1314" d="M139 897v434q31 9 76.5 9t77.5 -9v-413q0 -147 77.5 -234.5t243.5 -87.5q116 0 219 52.5t148 105.5v577q31 9 76 9t76 -9v-1331q-31 -9 -76 -9t-76 9v627q-57 -60 -170 -110t-242 -50q-209 0 -319.5 118.5t-110.5 311.5z" />
<glyph unicode="&#x428;" horiz-adv-x="2019" d="M180 0v1331q31 9 76.5 9t77.5 -9v-1202h598v1202q32 9 77 9t76 -9v-1202h598v1202q32 9 77.5 9t76.5 -9v-1331h-1657z" />
<glyph unicode="&#x429;" horiz-adv-x="2078" d="M180 0v1331q31 9 76.5 9t77.5 -9v-1202h598v1202q32 9 77 9t76 -9v-1202h598v1202q32 9 77.5 9t76.5 -9v-1202h166v-360q-32 -9 -77 -9t-77 9v231h-1669z" />
<glyph unicode="&#x42a;" horiz-adv-x="1427" d="M84 1202q-19 64 0 129h403v-477h322q117 0 211.5 -34.5t154.5 -94t91.5 -136t31.5 -163.5q0 -181 -129 -303.5t-360 -122.5h-475v1202h-250zM489 129h322q161 0 246.5 84.5t85.5 212.5q0 129 -85.5 213t-246.5 84h-322v-594z" />
<glyph unicode="&#x42b;" horiz-adv-x="1652" d="M180 0v1331q31 9 76.5 9t77.5 -9v-477h321q117 0 211.5 -34.5t154 -94t91 -136t31.5 -163.5q0 -181 -128.5 -303.5t-359.5 -122.5h-475zM334 129h321q161 0 246.5 84.5t85.5 212.5q0 129 -85.5 213t-246.5 84h-321v-594zM1317 0v1331q31 9 76 9t77 -9v-1331 q-32 -9 -77 -9t-76 9z" />
<glyph unicode="&#x42c;" horiz-adv-x="1273" d="M180 0v1331q31 9 76.5 9t77.5 -9v-477h321q117 0 211.5 -34.5t154 -94t91 -136t31.5 -163.5q0 -181 -128.5 -303.5t-359.5 -122.5h-475zM334 129h321q161 0 246.5 84.5t85.5 212.5q0 129 -85.5 213t-246.5 84h-321v-594z" />
<glyph unicode="&#x42d;" horiz-adv-x="1466" d="M172.5 168q-0.5 58 9.5 72q193 -142 432 -142q235 0 391 144t171 366h-639q-18 63 0 129h639q-21 217 -175.5 356.5t-386.5 139.5q-240 0 -432 -141q-10 14 -9.5 71.5t9.5 75.5q81 56 196 89.5t245 33.5q162 0 297.5 -55t226 -149.5t140.5 -221.5t50 -270t-50 -270 t-140.5 -222t-226 -150t-297.5 -55q-130 0 -245 33.5t-196 89.5q-9 18 -9.5 76z" />
<glyph unicode="&#x42e;" horiz-adv-x="2099" d="M180 0v1331q31 9 76.5 9t77.5 -9v-594h246q17 174 107 315.5t243.5 225.5t341.5 84q152 0 283 -55t221.5 -149t142 -222t51.5 -270q0 -191 -87 -349.5t-248 -253t-363 -94.5q-144 0 -269.5 50t-214.5 136t-144 203t-64 250h-246v-608q-32 -9 -77.5 -9t-76.5 9zM731 666 q0 -244 155 -406t388 -162t387 161.5t154 406.5q0 244 -154 405.5t-387 161.5t-388 -161.5t-155 -405.5z" />
<glyph unicode="&#x42f;" horiz-adv-x="1286" d="M88 0l377 510q-165 34 -251.5 143t-86.5 256q0 88 31 163.5t90 133.5t153 91.5t211 33.5h494v-1331q-31 -9 -76.5 -9t-77.5 9v487l-331 2l-363 -489q-31 -9 -85 -9t-85 9zM283 909q0 -129 85 -211t246 -82h338v586h-338q-161 0 -246 -82t-85 -211z" />
<glyph unicode="&#x430;" horiz-adv-x="993" d="M100 236q0 118 85 191t223 73q94 0 175.5 -34.5t129.5 -76.5v107q0 115 -63.5 177t-188.5 62q-137 0 -279 -92q-9 13 -8.5 58t8.5 63q47 36 128.5 61t176.5 25q183 0 275 -96.5t92 -268.5v-485q-61 -18 -125 0l-6 100q-52 -52 -139 -91.5t-183 -39.5q-132 0 -216.5 73.5 t-84.5 193.5zM242 244q0 -72 52.5 -119t143.5 -47q83 0 161 36t116 74v109q-37 37 -115.5 73t-161.5 36q-92 0 -144 -46t-52 -116z" />
<glyph unicode="&#x431;" horiz-adv-x="1056" d="M106 438v148q0 200 53.5 327t160 196.5t282.5 100.5q115 21 165.5 41t111.5 80q9 -13 8.5 -69t-8.5 -72q-52 -52 -107.5 -71.5t-183.5 -43.5q-171 -31 -249.5 -115t-88.5 -255q50 55 128 96t181 41q182 0 289.5 -123.5t107.5 -306.5q0 -194 -123 -318.5t-307 -124.5 q-185 0 -302.5 124t-117.5 345zM248 414q0 -159 78 -240.5t202 -81.5q120 0 203.5 87t83.5 229q0 138 -79 224.5t-208 86.5q-84 0 -162 -42.5t-118 -88.5v-174z" />
<glyph unicode="&#x432;" horiz-adv-x="970" d="M143 0v819h404q282 0 282 -209q0 -132 -118 -176q73 -24 113 -75.5t40 -129.5q0 -62 -24 -108t-66.5 -71.5t-94.5 -37.5t-116 -12h-420zM285 104h264q77 0 125.5 33t48.5 105q0 74 -48 107.5t-126 33.5h-264v-279zM285 471h256q149 0 149 121q0 123 -153 123h-252v-244z " />
<glyph unicode="&#x433;" horiz-adv-x="866" d="M143 0v819h641q15 -60 0 -123h-499v-696q-31 -9 -71 -9t-71 9z" />
<glyph unicode="&#x434;" horiz-adv-x="1255" d="M74 119h131q99 77 119 291l43 409h645v-700h170v-334q-68 -20 -140 0v215h-829v-215q-71 -20 -139 0v334zM356 119h512v581h-372l-31 -290q-24 -217 -109 -291z" />
<glyph unicode="&#x435;" horiz-adv-x="1042" d="M106 410q0 190 122.5 315t314.5 125q104 0 187.5 -41t131.5 -107t66.5 -147t3.5 -162h-682q4 -139 94 -221t231 -82q147 0 287 94q10 -13 9 -58.5t-9 -64.5q-49 -39 -127.5 -65.5t-171.5 -26.5q-204 0 -330.5 122t-126.5 319zM258 475h549q2 116 -71.5 190t-190.5 74 q-119 0 -197 -73t-90 -191z" />
<glyph unicode="&#x436;" horiz-adv-x="1351" d="M74 0l399 424l-383 395q31 9 82.5 9t83.5 -9l348 -362v362q72 20 141 0v-362l351 362q31 9 82.5 9t83.5 -9l-383 -395l397 -424q-31 -9 -82 -9t-82 9l-367 389v-389q-69 -20 -141 0v389l-364 -389q-32 -9 -83.5 -9t-82.5 9z" />
<glyph unicode="&#x437;" horiz-adv-x="843" d="M94.5 120q-0.5 41 9.5 54q140 -94 283 -94q96 0 158.5 41.5t62.5 116.5q0 72 -49 108.5t-125 36.5h-182q-16 45 0 88h174q73 0 112.5 32.5t39.5 96.5q0 62 -59 100.5t-140 38.5q-74 0 -136.5 -24t-131.5 -70q-9 13 -8.5 54t8.5 59q115 92 288 92q127 0 222.5 -64.5 t95.5 -169.5q0 -64 -31.5 -111t-87.5 -71q70 -25 111 -80.5t41 -130.5q0 -121 -99.5 -187.5t-242.5 -66.5q-94 0 -175.5 27t-128.5 65q-9 18 -9.5 59z" />
<glyph unicode="&#x438;" d="M143 0v819q31 9 71 9t71 -9v-620l559 620q55 16 112 0v-819q-72 -20 -141 0v621l-559 -621q-58 -16 -113 0z" />
<glyph unicode="&#x439;" horiz-adv-x="1097" d="M143 0v819q31 9 71 9t71 -9v-620l559 620q55 16 112 0v-819q-72 -20 -141 0v621l-559 -621q-58 -16 -113 0zM242.5 1158q-0.5 47 9.5 59q142 -95 299 -95t299 95q10 -13 9 -59t-9 -62q-49 -39 -127.5 -65.5t-171.5 -26.5t-172.5 26.5t-126.5 65.5q-9 15 -9.5 62z" />
<glyph unicode="&#x43a;" horiz-adv-x="954" d="M143 0v819q31 9 71 9t71 -9v-366l407 366q32 9 86 9t86 -9l-442 -395l459 -424q-32 -9 -86.5 -9t-85.5 9l-424 393v-393q-31 -9 -71 -9t-71 9z" />
<glyph unicode="&#x43b;" horiz-adv-x="1126" d="M74.5 37q-0.5 44 9.5 57q10 -4 33 -4q67 0 105 40t48 132l58 557h655v-819q-69 -20 -141 0v700h-385l-47 -440q-15 -145 -84.5 -218t-178.5 -73q-33 0 -63 6q-9 18 -9.5 62z" />
<glyph unicode="&#x43c;" horiz-adv-x="1404" d="M74 0l241 819q57 17 113 0l274 -637l275 637q57 17 113 0l241 -819q-70 -20 -137 0l-176 610l-258 -610q-58 -16 -115 0l-260 610l-174 -610q-69 -20 -137 0z" />
<glyph unicode="&#x43d;" d="M143 0v819q31 9 71 9t71 -9v-338h530v338q72 20 141 0v-819q-69 -20 -141 0v356l-530 2v-358q-31 -9 -71 -9t-71 9z" />
<glyph unicode="&#x43e;" d="M106 410q0 186 126 313t319 127q192 0 317 -127t125 -313q0 -122 -56 -222.5t-158 -159.5t-228 -59q-193 0 -319 127t-126 314zM248 410q0 -138 86 -228t217 -90q129 0 215 90t86 228t-86 227.5t-215 89.5q-131 0 -217 -89.5t-86 -227.5z" />
<glyph unicode="&#x43f;" horiz-adv-x="1095" d="M143 0v819h809v-819q-69 -20 -141 0v700h-526v-700q-31 -9 -71 -9t-71 9z" />
<glyph unicode="&#x440;" horiz-adv-x="1103" d="M147 -334v1153q62 18 125 0l9 -114q122 145 311 145q182 0 293.5 -125.5t111.5 -314.5t-111.5 -315t-293.5 -126t-303 135v-438q-31 -9 -71 -9t-71 9zM289 221q42 -48 112.5 -88.5t157.5 -40.5q134 0 215.5 89t81.5 229q0 139 -81.5 228t-215.5 89q-87 0 -157.5 -40.5 t-112.5 -88.5v-377z" />
<glyph unicode="&#x441;" horiz-adv-x="1005" d="M106 410q0 192 128 316t331 124q178 0 293 -92q8 -18 8.5 -64t-8.5 -59q-140 94 -280 94q-145 0 -237.5 -89t-92.5 -230t92.5 -230.5t237.5 -89.5q140 0 280 94q9 -13 8.5 -59t-8.5 -64q-115 -92 -293 -92q-203 0 -331 124.5t-128 316.5z" />
<glyph unicode="&#x442;" horiz-adv-x="948" d="M84 696q-18 63 0 123h782q18 -60 0 -123h-321v-696q-69 -20 -142 0v696h-319z" />
<glyph unicode="&#x443;" horiz-adv-x="1028" d="M74 819q31 9 74 9t75 -9l293 -602l289 602q31 9 74 9t75 -9l-561 -1153q-32 -9 -73 -9t-72 9l194 400z" />
<glyph unicode="&#x444;" horiz-adv-x="1398" d="M106 410q0 187 126.5 313.5t320.5 126.5h80v481q69 20 141 0v-481h78q194 0 321 -127t127 -313q0 -187 -127 -314t-321 -127h-78v-303q-72 -20 -141 0v303h-80q-194 0 -320.5 127t-126.5 314zM248 410q0 -141 86.5 -230.5t220.5 -89.5h78v639h-78q-134 0 -220.5 -89.5 t-86.5 -229.5zM774 90h78q134 0 220.5 89.5t86.5 230.5q0 140 -86.5 229.5t-220.5 89.5h-78v-639z" />
<glyph unicode="&#x445;" horiz-adv-x="995" d="M74 0l327 424l-309 395q31 9 80.5 9t81.5 -9l248 -309l241 309q32 9 80.5 9t79.5 -9l-309 -395l328 -424q-32 -9 -82 -9t-82 9l-262 332l-263 -332q-31 -9 -79.5 -9t-79.5 9z" />
<glyph unicode="&#x446;" horiz-adv-x="1167" d="M143 0v819q31 9 71 9t71 -9v-700h497v700q70 20 140 0v-700h172v-344q-70 -20 -140 0v225h-811z" />
<glyph unicode="&#x447;" horiz-adv-x="1011" d="M100 524v295q31 9 71 9t71 -9v-272q0 -104 54.5 -158.5t160.5 -54.5q85 0 155 37t115 82v366q69 20 141 0v-819q-72 -20 -141 0v334q-55 -49 -135.5 -85t-173.5 -36q-158 0 -238 85.5t-80 225.5z" />
<glyph unicode="&#x448;" horiz-adv-x="1560" d="M143 0v819q31 9 71 9t71 -9v-700h424v700q72 20 141 0v-700h426v700q69 20 141 0v-819h-1274z" />
<glyph unicode="&#x449;" horiz-adv-x="1660" d="M143 0v819q31 9 71 9t71 -9v-700h424v700q72 20 141 0v-700h426v700q69 20 141 0v-700h170v-334q-68 -20 -139 0v215h-1305z" />
<glyph unicode="&#x44a;" horiz-adv-x="1058" d="M84 700q-17 61 0 119h322v-268h258q85 0 154 -27t115 -91.5t46 -158.5q0 -139 -85.5 -206.5t-217.5 -67.5h-412v700h-180zM403 109h238q28 0 53.5 4t52 15t45.5 28.5t31.5 48t12.5 69.5q0 50 -17.5 84.5t-48 52t-62 24.5t-67.5 7h-238v-333z" />
<glyph unicode="&#x44b;" horiz-adv-x="1269" d="M143 0v819q31 9 71 9t71 -9v-268h258q85 0 154 -27t115 -91.5t46 -158.5q0 -139 -85.5 -206.5t-217.5 -67.5h-412zM285 109h237q28 0 53.5 4t52 15t45.5 28.5t31.5 48t12.5 69.5q0 50 -17.5 84.5t-48 52t-62 24.5t-67.5 7h-237v-333zM987 0v819q31 9 70.5 9t70.5 -9v-819 q-31 -9 -70.5 -9t-70.5 9z" />
<glyph unicode="&#x44c;" horiz-adv-x="940" d="M143 0v819q31 9 71 9t71 -9v-268h258q85 0 154 -27t115 -91.5t46 -158.5q0 -139 -85.5 -206.5t-217.5 -67.5h-412zM285 109h237q28 0 53.5 4t52 15t45.5 28.5t31.5 48t12.5 69.5q0 50 -17.5 84.5t-48 52t-62 24.5t-67.5 7h-237v-333z" />
<glyph unicode="&#x44d;" horiz-adv-x="1005" d="M137.5 124q-0.5 45 9.5 58q140 -94 279 -94t229 78t101 203h-387q-17 46 0 94h385q-14 120 -103 194t-225 74q-139 0 -279 -94q-10 13 -9.5 58t9.5 63q112 92 291 92q209 0 334 -123t125 -317t-125 -317.5t-334 -123.5q-179 0 -291 92q-9 18 -9.5 63z" />
<glyph unicode="&#x44e;" horiz-adv-x="1449" d="M143 0v819q31 9 71 9t71 -9v-344h178q22 162 143 268.5t293 106.5q192 0 318 -127t126 -313t-126 -313.5t-318 -127.5q-176 0 -296.5 108t-139.5 275h-178v-352q-31 -9 -71 -9t-71 9zM598 410q0 -138 86 -228t217 -90q129 0 215 90t86 228t-86 227.5t-215 89.5 q-131 0 -217 -89.5t-86 -227.5z" />
<glyph unicode="&#x44f;" horiz-adv-x="985" d="M74 0l250 330q-90 22 -142.5 78.5t-52.5 152.5q0 131 79.5 194.5t209.5 63.5h422v-819q-69 -20 -142 0v311h-231l-238 -311q-31 -9 -77.5 -9t-77.5 9zM270 561q0 -149 181 -149h249v299h-249q-181 0 -181 -150z" />
<glyph unicode="&#x451;" horiz-adv-x="1056" d="M106 410q0 190 122.5 315t314.5 125q104 0 187.5 -41t131.5 -107t66.5 -147t3.5 -162h-682q4 -139 94 -221t231 -82q147 0 287 94q10 -13 9 -58.5t-9 -64.5q-49 -39 -127.5 -65.5t-171.5 -26.5q-204 0 -330.5 122t-126.5 319zM193 1114q0 41 28 67.5t70 26.5 q40 0 68 -26.5t28 -67.5q0 -39 -28 -65.5t-68 -26.5q-42 0 -70 26t-28 66zM258 475h549q2 116 -71.5 190t-190.5 74q-119 0 -197 -73t-90 -191zM680 1114q0 41 28 67.5t70 26.5q40 0 68 -26.5t28 -67.5q0 -39 -28 -65.5t-68 -26.5q-42 0 -70 26t-28 66z" />
<glyph unicode="&#x2000;" horiz-adv-x="905" />
<glyph unicode="&#x2001;" horiz-adv-x="1810" />
<glyph unicode="&#x2002;" horiz-adv-x="905" />
<glyph unicode="&#x2003;" horiz-adv-x="1810" />
<glyph unicode="&#x2004;" horiz-adv-x="603" />
<glyph unicode="&#x2005;" horiz-adv-x="452" />
<glyph unicode="&#x2006;" horiz-adv-x="301" />
<glyph unicode="&#x2007;" horiz-adv-x="301" />
<glyph unicode="&#x2008;" horiz-adv-x="226" />
<glyph unicode="&#x2009;" horiz-adv-x="362" />
<glyph unicode="&#x200a;" horiz-adv-x="100" />
<glyph unicode="&#x2010;" horiz-adv-x="753" d="M96 508q-19 57 0 110h563q16 -53 0 -110h-563z" />
<glyph unicode="&#x2011;" horiz-adv-x="753" d="M96 508q-19 57 0 110h563q16 -53 0 -110h-563z" />
<glyph unicode="&#x2012;" horiz-adv-x="753" d="M96 508q-19 57 0 110h563q16 -53 0 -110h-563z" />
<glyph unicode="&#x2013;" horiz-adv-x="1046" d="M96 508q-19 57 0 110h856q16 -53 0 -110h-856z" />
<glyph unicode="&#x2014;" horiz-adv-x="1275" d="M96 508q-19 57 0 110h1086q16 -53 0 -110h-1086z" />
<glyph unicode="&#x2018;" horiz-adv-x="382" d="M88 1004q-6 81 32.5 188t78.5 139q17 6 43 6t43 -6q-44 -48 -75 -126t-36 -136q20 4 25 4q40 0 68 -26.5t28 -67.5q0 -39 -28 -66.5t-70 -27.5t-74 30t-35 89z" />
<glyph unicode="&#x2019;" horiz-adv-x="382" d="M88 1268q0 40 28 67t70 27t74 -30t33 -87q7 -80 -31 -187.5t-78 -142.5q-17 -6 -43 -6t-43 6q44 48 75 126.5t36 136.5q-10 -2 -27 -2q-39 0 -66.5 26t-27.5 66z" />
<glyph unicode="&#x201a;" horiz-adv-x="382" d="M88 61q0 40 28 67.5t70 27.5t74 -30t33 -87q7 -80 -31 -187.5t-78 -140.5q-17 -6 -43 -6t-43 6q44 46 75 124t36 136q-10 -2 -27 -2q-39 0 -66.5 26.5t-27.5 65.5z" />
<glyph unicode="&#x201c;" horiz-adv-x="677" d="M88 1004q-6 81 32.5 188t78.5 139q17 6 43 6t43 -6q-44 -48 -75 -126t-36 -136q20 4 25 4q40 0 68 -26.5t28 -67.5q0 -39 -28 -66.5t-70 -27.5t-74 30t-35 89zM383 1004q-6 81 32.5 188t78.5 139q17 6 43 6t43 -6q-44 -48 -75 -126t-36 -136q20 4 25 4q40 0 68 -26.5 t28 -67.5q0 -39 -28 -66.5t-70 -27.5t-74 30t-35 89z" />
<glyph unicode="&#x201d;" horiz-adv-x="675" d="M88 1268q0 40 28 67t70 27t74 -30t33 -87q7 -80 -31 -187.5t-78 -142.5q-17 -6 -43 -6t-43 6q44 48 75 126.5t36 136.5q-10 -2 -27 -2q-39 0 -66.5 26t-27.5 66zM383 1268q0 40 28 67t70 27t74 -30t33 -87q7 -80 -31 -187.5t-78 -142.5q-17 -6 -43 -6t-43 6 q44 48 75 126.5t36 136.5q-10 -2 -27 -2q-39 0 -66.5 26t-27.5 66z" />
<glyph unicode="&#x201e;" horiz-adv-x="675" d="M88 61q0 40 28 67.5t70 27.5t74 -30t33 -87q7 -80 -31 -187.5t-78 -140.5q-17 -6 -43 -6t-43 6q44 46 75 124t36 136q-10 -2 -27 -2q-39 0 -66.5 26.5t-27.5 65.5zM383 61q0 40 28 67.5t70 27.5t74 -30t33 -87q7 -80 -31 -187.5t-78 -140.5q-17 -6 -43 -6t-43 6 q44 46 75 124t36 136q-10 -2 -27 -2q-39 0 -66.5 26.5t-27.5 65.5z" />
<glyph unicode="&#x2022;" horiz-adv-x="538" d="M86 586q0 75 53.5 128.5t128.5 53.5q76 0 130.5 -53.5t54.5 -128.5t-54.5 -129t-130.5 -54q-75 0 -128.5 54t-53.5 129z" />
<glyph unicode="&#x2026;" horiz-adv-x="1126" d="M86 63q0 40 28.5 66.5t69.5 26.5q40 0 68.5 -27t28.5 -66q0 -41 -28.5 -67.5t-68.5 -26.5q-42 0 -70 26.5t-28 67.5zM465 63q0 40 28.5 66.5t69.5 26.5q40 0 68 -27t28 -66q0 -41 -28 -67.5t-68 -26.5q-42 0 -70 26.5t-28 67.5zM846 63q0 40 28.5 66.5t69.5 26.5 q40 0 68 -27t28 -66q0 -41 -28 -67.5t-68 -26.5q-42 0 -70 26.5t-28 67.5z" />
<glyph unicode="&#x202f;" horiz-adv-x="362" />
<glyph unicode="&#x2039;" horiz-adv-x="548" d="M86 444l262 320q56 17 113 0l-228 -320l228 -319q-57 -17 -113 0z" />
<glyph unicode="&#x203a;" horiz-adv-x="548" d="M86 125l227 319l-227 320q56 17 113 0l262 -320l-262 -319q-56 -17 -113 0z" />
<glyph unicode="&#x205f;" horiz-adv-x="452" />
<glyph unicode="&#x20ac;" horiz-adv-x="1591" d="M87 549q0 17 9 31h164q-4 29 -4 86t4 86h-164q-20 30 0 61h174q48 241 238 395t463 154q130 0 244.5 -33.5t195.5 -89.5q9 -18 9.5 -75.5t-9.5 -71.5q-195 141 -434 141q-203 0 -352.5 -116.5t-194.5 -303.5h578q20 -31 0 -61h-592q-4 -58 -4 -86t4 -86h510 q9 -14 9 -31.5t-9 -30.5h-496q45 -187 194.5 -303.5t352.5 -116.5q238 0 434 142q10 -14 9.5 -72t-9.5 -76q-81 -56 -195.5 -89.5t-244.5 -33.5q-273 0 -463 154t-238 395h-174q-9 14 -9 31z" />
<glyph unicode="&#x2122;" horiz-adv-x="1247" d="M92 1257q-12 39 0 74h424q12 -35 0 -74h-172v-339q-41 -14 -82 0v339h-170zM520 918l119 409q36 12 72 0l129 -303l129 303q35 11 71 0l119 -409q-43 -14 -82 0l-82 286l-121 -286q-34 -12 -69 0l-121 286l-82 -286q-41 -14 -82 0z" />
<glyph unicode="&#x25fc;" horiz-adv-x="829" d="M0 0v829h829v-829h-829z" />
</font>
</defs>
</svg>
