<?xml version="1.0" standalone="no"?>
<!DOCTYPE svg PUBLIC "-//W3C//DTD SVG 1.1//EN" "http://www.w3.org/Graphics/SVG/1.1/DTD/svg11.dtd" >
<svg xmlns="http://www.w3.org/2000/svg">
<metadata></metadata>
<defs>
<font id="merelthin" horiz-adv-x="1196" >
<font-face units-per-em="2048" ascent="1638" descent="-410" />
<missing-glyph horiz-adv-x="409" />
<glyph horiz-adv-x="0" />
<glyph horiz-adv-x="682" />
<glyph unicode=" "  horiz-adv-x="409" />
<glyph unicode="&#x09;" horiz-adv-x="409" />
<glyph unicode="&#xa0;" horiz-adv-x="409" />
<glyph unicode="!" horiz-adv-x="288" d="M102 12q0 17 12 29t31 12q17 0 29 -12t12 -29q0 -19 -12 -31t-29 -12q-19 0 -31 12t-12 31zM123 1100v231q6 6 20.5 6t20.5 -6v-231l-6 -676q-14 -14 -29 0z" />
<glyph unicode="&#x22;" horiz-adv-x="466" d="M102 928v403q6 6 20.5 6t20.5 -6l-10 -403q-6 -6 -15.5 -6t-15.5 6zM324 928v403q6 6 20.5 6t20.5 -6l-11 -403q-6 -6 -15 -6t-15 6z" />
<glyph unicode="#" horiz-adv-x="1017" d="M104 512q-2 6 2.5 19.5t10.5 17.5h194l68 233h-199q-2 6 2.5 19.5t10.5 17.5h196l148 512q6 6 20.5 6t20.5 -6l-148 -512h246l147 512q6 6 20.5 6t20.5 -6l-147 -512h198q2 -6 -2 -19.5t-8 -17.5h-198l-68 -233h199q2 -6 -2.5 -19.5t-10.5 -17.5h-196l-148 -512 q-6 -6 -20.5 -6t-20.5 6l148 512h-246l-147 -512q-6 -6 -20.5 -6t-20.5 6l147 512h-197zM352 549h246l68 233h-246z" />
<glyph unicode="$" horiz-adv-x="1173" d="M154 1032q0 64 27.5 123t78 105t128.5 73.5t173 28.5v190q6 6 20.5 6t20.5 -6v-190q219 -13 356 -137q6 -6 6 -24.5t-6 -24.5q-69 71 -171 110t-220 39q-172 0 -272 -85.5t-100 -207.5q0 -46 9.5 -81t33.5 -65t53 -52t81 -45.5t103 -42t133 -44.5q59 -19 95 -32t85 -34 t78.5 -40t62 -47.5t50 -60t29.5 -74t12 -92.5q0 -150 -117.5 -250t-300.5 -103v-190q-6 -6 -20.5 -6t-20.5 6v190q-101 5 -204.5 42t-184.5 102q-6 6 -6 24.5t6 24.5q83 -73 196.5 -114.5t221.5 -41.5q170 0 279.5 89t109.5 227q0 36 -6.5 67.5t-16.5 56.5t-30 48t-38 40 t-49.5 34.5t-56 29t-66 26.5t-70.5 25t-79 25q-59 18 -100 32.5t-88 34.5t-77.5 39t-61 45.5t-48 56t-28 67.5t-10.5 83z" />
<glyph unicode="%" horiz-adv-x="1574" d="M102 1014q0 156 73 252t198 96q124 0 197 -96t73 -252t-73 -252t-197 -96q-125 0 -198 96t-73 252zM143 1014q0 -140 62.5 -226t167.5 -86t167 85.5t62 226.5q0 140 -62 225.5t-167 85.5t-167.5 -85.5t-62.5 -225.5zM451 0l630 1331q6 6 21.5 6t21.5 -6l-630 -1331 q-6 -6 -21.5 -6t-21.5 6zM932 317q0 156 73 252.5t197 96.5t197.5 -96.5t73.5 -252.5t-73 -252t-198 -96q-124 0 -197 96t-73 252zM973 317q0 -140 62 -225.5t167 -85.5t167.5 85.5t62.5 225.5t-62.5 226t-167.5 86t-167 -85.5t-62 -226.5z" />
<glyph unicode="&#x26;" horiz-adv-x="1257" d="M82 289q0 61 18 114t46 92t76 78.5t92.5 67.5t111.5 64q-190 228 -190 374q0 119 85.5 201t229.5 82q152 0 233.5 -85t81.5 -212q0 -49 -17.5 -91.5t-47.5 -76t-73.5 -65t-92 -59.5t-106.5 -59q-28 -14 -42 -22l437 -442q149 198 149 471q6 6 20.5 6t20.5 -6 q0 -288 -162 -500l224 -221q-6 -6 -28 -6t-28 6l-194 188q-90 -103 -208.5 -161t-250.5 -58q-101 0 -187.5 37t-142 111t-55.5 172zM123 289q0 -88 50.5 -154t127.5 -97.5t166 -31.5q125 0 236 55.5t196 155.5l-446 457q-69 -38 -114 -66.5t-89.5 -65t-70 -72.5t-41 -81.5 t-15.5 -99.5zM276 1079q0 -135 185 -356q189 102 240 138q97 69 117 146q7 27 7 58q0 112 -70 186t-204 74q-126 0 -200.5 -71t-74.5 -175z" />
<glyph unicode="'" horiz-adv-x="245" d="M102 928v403q6 6 20.5 6t20.5 -6l-10 -403q-6 -6 -15.5 -6t-15.5 6z" />
<glyph unicode="(" horiz-adv-x="434" d="M102 551q0 193 52.5 409.5t136.5 370.5q6 6 20.5 6t20.5 -6q-85 -165 -137 -378t-52 -402t52 -402t137 -378q-6 -6 -20.5 -6t-20.5 6q-84 154 -136.5 370.5t-52.5 409.5z" />
<glyph unicode=")" horiz-adv-x="434" d="M102 -229q85 165 137 378t52 402t-52 402t-137 378q6 6 20.5 6t20.5 -6q84 -154 136.5 -370.5t52.5 -409.5t-52.5 -409.5t-136.5 -370.5q-6 -6 -20.5 -6t-20.5 6z" />
<glyph unicode="*" horiz-adv-x="823" d="M104 1102q-3 7 2 20.5t13 18.5l278 -109l-8 299q6 6 20.5 6t20.5 -6l-4 -299l279 109q7 -4 12 -17.5t2 -21.5l-283 -96l197 -226q-2 -8 -13 -17t-18 -9l-190 239l-191 -239q-7 0 -18 9t-13 17l197 226z" />
<glyph unicode="+" horiz-adv-x="921" d="M103 589.5q0 12.5 6 18.5h333v334q6 6 18.5 6t18.5 -6v-334h334q6 -6 6 -18.5t-6 -18.5h-334v-333q-6 -6 -18.5 -6t-18.5 6v333h-333q-6 6 -6 18.5z" />
<glyph unicode="," horiz-adv-x="303" d="M102 -279q27 34 46 115.5t12 134.5q-8 -2 -15 -2q-16 0 -27.5 11.5t-11.5 29.5q0 17 11 30t33 13q38 0 47 -49q11 -55 -6.5 -152.5t-47.5 -130.5q-6 -6 -20.5 -6t-20.5 6z" />
<glyph unicode="-" horiz-adv-x="780" d="M103 589.5q0 12.5 6 18.5h563q6 -6 6 -18.5t-6 -18.5h-563q-6 6 -6 18.5z" />
<glyph unicode="." horiz-adv-x="288" d="M102 12q0 17 12 29t31 12q17 0 29 -12t12 -29q0 -19 -12 -31t-29 -12q-19 0 -31 12t-12 31z" />
<glyph unicode="/" horiz-adv-x="595" d="M102 0l351 1331q6 6 20.5 6t20.5 -6l-351 -1331q-6 -6 -20.5 -6t-20.5 6z" />
<glyph unicode="0" horiz-adv-x="1355" d="M154 666q0 206 63.5 363.5t182.5 245t278 87.5t278 -87.5t182.5 -245t63.5 -363.5t-63.5 -363.5t-182.5 -245.5t-278 -88t-278 88t-182.5 245.5t-63.5 363.5zM195 666q0 -299 130.5 -479.5t352.5 -180.5t352.5 180.5t130.5 479.5t-130.5 479t-352.5 180t-352.5 -180 t-130.5 -479z" />
<glyph unicode="1" horiz-adv-x="665" d="M82 1072.5q0 15.5 6 21.5l332 237q6 6 20.5 6t20.5 -6v-1331q-6 -6 -20.5 -6t-20.5 6v1288l-332 -237q-6 6 -6 21.5z" />
<glyph unicode="2" horiz-adv-x="1077" d="M102 0v18q262 242 414 395t235.5 263.5t108.5 178.5t25 149q0 60 -23.5 116t-67.5 102.5t-115.5 74.5t-160.5 28q-106 0 -204 -39.5t-167 -109.5q-6 6 -6 24.5t6 24.5q73 66 170.5 101.5t200.5 35.5q78 0 145.5 -20.5t115 -55.5t81.5 -81t50 -97t16 -104 q0 -59 -12.5 -111.5t-46.5 -116t-85 -129.5t-139 -159.5t-196 -198t-267 -252.5h768q6 -6 6 -18.5t-6 -18.5h-846z" />
<glyph unicode="3" horiz-adv-x="1146" d="M195 131q0 19 6 25q68 -69 175.5 -109.5t215.5 -40.5q185 0 298.5 94.5t113.5 249.5q0 63 -22.5 119.5t-67.5 102.5t-120 73t-171 27h-185q-6 6 -6 18.5t6 18.5h187q144 0 233.5 88t89.5 217q0 60 -23 114.5t-67 99t-115.5 71t-160.5 26.5q-106 0 -204 -39.5t-167 -109.5 q-6 6 -6 24.5t6 24.5q73 66 170.5 101.5t200.5 35.5q98 0 177 -29.5t128.5 -79.5t75.5 -111t26 -128q0 -110 -61.5 -197t-167.5 -123q140 -34 212 -128.5t72 -215.5q0 -169 -125 -275t-327 -106q-106 0 -212.5 36.5t-178.5 100.5q-6 6 -6 25z" />
<glyph unicode="4" horiz-adv-x="1167" d="M82 337.5q0 12.5 6 18.5l737 975q6 6 20.5 6t20.5 -6v-975h213q6 -6 6 -18.5t-6 -18.5h-213v-319q-6 -6 -20.5 -6t-20.5 6v319h-737q-6 6 -6 18.5zM137 356h688v908z" />
<glyph unicode="5" horiz-adv-x="1075" d="M123 131q0 19 6 25q68 -70 174 -110t217 -40q183 0 297.5 105t114.5 268q0 160 -113.5 260t-304.5 100q-150 0 -299 -90l104 682h590q6 -6 6 -18.5t-6 -18.5h-555l-88 -579q119 61 248 61q209 0 334 -111t125 -286q0 -177 -126.5 -293.5t-326.5 -116.5q-109 0 -214 36 t-177 101q-6 6 -6 25z" />
<glyph unicode="6" d="M154 438q0 107 26 208.5t67.5 182.5t98 155t113.5 128.5t117.5 100.5t107 73.5t84.5 44.5q6 6 45 6t45 -6q-47 -16 -106.5 -48t-136 -87.5t-145 -123.5t-131.5 -163.5t-99 -199.5q63 58 155 99.5t209 41.5q204 0 321 -124t117 -316q0 -189 -125 -315t-319 -126 q-197 0 -320.5 127.5t-123.5 341.5zM195 438q0 -199 111.5 -315.5t291.5 -116.5q176 0 289.5 115t113.5 289q0 177 -105.5 290t-291.5 113q-92 0 -177 -33t-132 -69t-76 -72q-24 -91 -24 -201z" />
<glyph unicode="7" horiz-adv-x="1062" d="M113 1312.5q0 12.5 6 18.5h862v-18l-694 -1313q-6 -6 -22.5 -6t-22.5 6l684 1294h-807q-6 6 -6 18.5z" />
<glyph unicode="8" horiz-adv-x="1110" d="M102 342q0 119 76.5 217.5t212.5 132.5q-105 38 -169 127t-64 195q0 66 26 128t74.5 111.5t125.5 79t171 29.5t171 -29.5t125.5 -79t74.5 -111.5t26 -128q0 -106 -64 -195t-169 -127q136 -34 212.5 -132.5t76.5 -217.5q0 -167 -128 -270t-325 -103t-325 103t-128 270z M143 342q0 -153 116 -244.5t296 -91.5t296 91.5t116 244.5q0 63 -25 121t-71 105t-119 75.5t-162 28.5h-70q-89 0 -162 -28.5t-119 -75.5t-71 -105t-25 -121zM199 1014q0 -124 91 -214.5t228 -90.5h74q137 0 228 90.5t91 214.5q0 126 -94.5 218.5t-261.5 92.5t-261.5 -92.5 t-94.5 -218.5z" />
<glyph unicode="9" d="M154 922q0 189 125 314.5t319 125.5q197 0 320.5 -127.5t123.5 -341.5q0 -107 -26 -208.5t-67.5 -182.5t-98 -155t-113.5 -128.5t-117.5 -100.5t-107 -73.5t-84.5 -44.5q-6 -6 -45 -6t-45 6q47 16 106.5 48t136 88t145 123.5t131.5 163.5t99 200q-63 -58 -155.5 -100 t-208.5 -42q-204 0 -321 124.5t-117 316.5zM195 922q0 -177 106 -290.5t291 -113.5q92 0 177 33t132 69t76 72q24 92 24 201q0 199 -111.5 315.5t-291.5 116.5q-176 0 -289.5 -114.5t-113.5 -288.5z" />
<glyph unicode=":" horiz-adv-x="288" d="M102 12q0 17 12 29t31 12q17 0 29 -12t12 -29q0 -19 -12 -31t-29 -12q-19 0 -31 12t-12 31zM102 809q0 17 12 29t31 12q17 0 29 -12t12 -29q0 -19 -12 -31t-29 -12q-19 0 -31 12t-12 31z" />
<glyph unicode=";" horiz-adv-x="303" d="M102 -279q27 34 46 115.5t12 134.5q-8 -2 -15 -2q-16 0 -27.5 11.5t-11.5 29.5q0 17 11 30t33 13q38 0 47 -49q11 -55 -6.5 -152.5t-47.5 -130.5q-6 -6 -20.5 -6t-20.5 6zM106 809q0 17 12.5 29t31.5 12q17 0 28.5 -12t11.5 -29q0 -19 -11.5 -31t-28.5 -12 q-19 0 -31.5 12t-12.5 31z" />
<glyph unicode="&#x3c;" horiz-adv-x="948" d="M103 571.5q0 16.5 6 22.5l731 364q6 -6 6 -22.5t-6 -22.5l-686 -342l686 -342q6 -6 6 -22.5t-6 -22.5l-731 365q-6 6 -6 22.5z" />
<glyph unicode="=" horiz-adv-x="921" d="M103 444.5q0 12.5 6 18.5h704q6 -6 6 -18.5t-6 -18.5h-704q-6 6 -6 18.5zM103 688.5q0 12.5 6 18.5h704q6 -6 6 -18.5t-6 -18.5h-704q-6 6 -6 18.5z" />
<glyph unicode="&#x3e;" horiz-adv-x="948" d="M103 206.5q0 16.5 6 22.5l686 342l-686 342q-6 6 -6 22.5t6 22.5l731 -364q6 -6 6 -22.5t-6 -22.5l-731 -365q-6 6 -6 22.5z" />
<glyph unicode="?" horiz-adv-x="1015" d="M103 1200.5q0 18.5 6 24.5q153 137 391 137q190 0 301.5 -97t111.5 -233q0 -54 -14.5 -100t-35.5 -78t-60.5 -65t-73.5 -55t-90 -54q-40 -22 -59.5 -34.5t-46 -35.5t-38.5 -46t-21 -58.5t-9 -81.5q-6 -6 -20.5 -6t-20.5 6q0 63 11.5 107.5t38.5 76.5t52.5 50t71.5 44 q63 36 99.5 59.5t74.5 54.5t57 60.5t31 68.5t12 87q0 122 -100 207.5t-272 85.5q-118 0 -220 -39t-171 -110q-6 6 -6 24.5zM401 12q0 17 12 29t31 12q17 0 29 -12t12 -29q0 -19 -12 -31t-29 -12q-19 0 -31 12t-12 31z" />
<glyph unicode="@" horiz-adv-x="1953" d="M154 430q0 173 65.5 327t176.5 263t264 172t323 63q186 0 340.5 -62t258.5 -170.5t161 -259t57 -325.5q0 -110 -24.5 -196.5t-60 -136t-81 -81.5t-83 -43t-70.5 -12q-159 4 -172 156q-56 -63 -144 -109.5t-202 -46.5q-191 0 -307.5 125.5t-116.5 315.5t116.5 315 t307.5 125q114 0 202 -46.5t144 -109.5v125q6 6 20.5 6t20.5 -6v-669q0 -142 123 -142q121 0 203.5 111.5t82.5 318.5q0 168 -54 312t-153 248t-245.5 162.5t-323.5 58.5q-161 0 -306 -60t-251 -164t-168.5 -251.5t-62.5 -313.5q0 -286 170 -491t440 -258q6 -6 6 -19.5 t-6 -19.5q-140 26 -260 95t-206.5 170t-135.5 236t-49 287zM580 410q0 -175 104.5 -289.5t278.5 -114.5q79 0 155.5 32.5t119.5 67.5t71 70v467q-28 35 -71 70t-119.5 67.5t-155.5 32.5q-174 0 -278.5 -114t-104.5 -289z" />
<glyph unicode="A" horiz-adv-x="1345" d="M82 0l569 1331q6 6 21.5 6t21.5 -6l570 -1331q-6 -6 -21.5 -6t-21.5 6l-193 449h-711l-192 -449q-6 -6 -21.5 -6t-21.5 6zM332 485h682l-342 795z" />
<glyph unicode="B" horiz-adv-x="1251" d="M205 0v1331h491q173 0 285.5 -91.5t112.5 -240.5q0 -110 -58 -190.5t-162 -114.5q137 -33 206 -121.5t69 -212.5q0 -158 -118 -259t-331 -101h-495zM246 37h454q195 0 301.5 90t106.5 233q0 140 -93.5 226t-287.5 86h-481v-635zM246 709h483q151 0 237.5 79t86.5 211 q0 134 -101 214.5t-256 80.5h-450v-585z" />
<glyph unicode="C" horiz-adv-x="1509" d="M154 666q0 191 87 349.5t246.5 252.5t358.5 94q131 0 252 -35.5t211 -101.5q6 -6 6 -24.5t-6 -24.5q-86 71 -208 110t-255 39q-187 0 -337 -88.5t-232 -239t-82 -331.5q0 -136 48.5 -257t133 -210t206.5 -141t263 -52q133 0 254.5 39.5t208.5 110.5q6 -6 6 -25t-6 -25 q-90 -66 -211 -101.5t-252 -35.5q-199 0 -358.5 94.5t-246.5 253t-87 349.5z" />
<glyph unicode="D" horiz-adv-x="1464" d="M205 0v1331h403q141 0 257.5 -35.5t198 -97t138 -146t83 -182t26.5 -204.5t-26.5 -204.5t-83 -182t-138 -146.5t-198 -97.5t-257.5 -35.5h-403zM246 37h362q166 0 295.5 51t208 139t118.5 199.5t40 239.5q0 102 -24.5 193.5t-77.5 171.5t-129.5 138t-186.5 91.5 t-244 33.5h-362v-1257z" />
<glyph unicode="E" horiz-adv-x="1187" d="M205 0v1331h874q6 -6 6 -18.5t-6 -18.5h-833v-589h776q6 -6 6 -18.5t-6 -18.5h-776v-631h833q6 -6 6 -18.5t-6 -18.5h-874z" />
<glyph unicode="F" horiz-adv-x="1187" d="M205 0v1331h874q6 -6 6 -18.5t-6 -18.5h-833v-600h776q6 -6 6 -18.5t-6 -18.5h-776v-657q-6 -6 -20.5 -6t-20.5 6z" />
<glyph unicode="G" horiz-adv-x="1523" d="M154 666q0 191 87 349.5t246.5 252.5t358.5 94q131 0 252 -35.5t211 -101.5q6 -6 6 -24.5t-6 -24.5q-86 71 -208 110t-255 39q-187 0 -337 -88.5t-232 -239t-82 -331.5q0 -136 48.5 -257t133 -210t206.5 -141t263 -52q120 0 238 32t206 89v502q6 6 19.5 6t19.5 -6v-523 q-91 -66 -220.5 -101.5t-262.5 -35.5q-199 0 -358.5 94.5t-246.5 253t-87 349.5z" />
<glyph unicode="H" horiz-adv-x="1476" d="M205 0v1331q6 6 20.5 6t20.5 -6v-626h985v626q6 6 20.5 6t20.5 -6v-1331q-6 -6 -20.5 -6t-20.5 6v668h-985v-668q-6 -6 -20.5 -6t-20.5 6z" />
<glyph unicode="I" horiz-adv-x="450" d="M205 0v1331q6 6 20.5 6t20.5 -6v-1331q-6 -6 -20.5 -6t-20.5 6z" />
<glyph unicode="J" horiz-adv-x="845" d="M82 63.5q0 18.5 6 24.5q107 -82 227 -82q134 0 209.5 86.5t75.5 274.5v964q6 6 20.5 6t20.5 -6v-964q0 -203 -87 -300.5t-239 -97.5q-117 0 -227 70q-6 6 -6 24.5z" />
<glyph unicode="K" horiz-adv-x="1214" d="M205 0v1331q6 6 20.5 6t20.5 -6v-626l776 626q6 6 31.5 6t31.5 -6l-798 -645l846 -686q-6 -6 -32 -6t-32 6l-823 668v-668q-6 -6 -20.5 -6t-20.5 6z" />
<glyph unicode="L" horiz-adv-x="1144" d="M205 0v1331q6 6 20.5 6t20.5 -6v-1294h811q6 -6 6 -18.5t-6 -18.5h-852z" />
<glyph unicode="M" horiz-adv-x="1765" d="M82 0l305 1331q6 6 20.5 6t20.5 -6l455 -1274l454 1274q6 6 20.5 6t20.5 -6l305 -1331q-6 -6 -20.5 -6t-20.5 6l-288 1262l-451 -1262q-6 -6 -20.5 -6t-20.5 6l-450 1262l-289 -1262q-6 -6 -20.5 -6t-20.5 6z" />
<glyph unicode="N" horiz-adv-x="1456" d="M195 0v1331q6 6 20.5 6t20.5 -6l985 -1265v1265q6 6 20.5 6t20.5 -6v-1331q-6 -6 -20.5 -6t-20.5 6l-985 1266v-1266q-6 -6 -20.5 -6t-20.5 6z" />
<glyph unicode="O" horiz-adv-x="1691" d="M154 666q0 191 87 349.5t246.5 252.5t358.5 94t358.5 -94t246.5 -252.5t87 -349.5t-87 -349.5t-246.5 -253t-358.5 -94.5t-358.5 94.5t-246.5 253t-87 349.5zM195 666q0 -136 48.5 -257t133 -210t206.5 -141t263 -52t263 52t206.5 141t133 210t48.5 257q0 181 -82 331.5 t-232 239t-337 88.5t-337 -88.5t-232 -239t-82 -331.5z" />
<glyph unicode="P" horiz-adv-x="1282" d="M205 0v1331h444q122 0 216.5 -35.5t150.5 -96t84 -133.5t28 -155t-28 -155t-84 -133t-150.5 -95.5t-216.5 -35.5h-403v-492q-6 -6 -20.5 -6t-20.5 6zM246 528h403q91 0 165.5 21.5t124.5 57.5t84 85.5t49 104t15 114.5t-15 114.5t-49 104t-84 85.5t-124.5 57.5 t-165.5 21.5h-403v-766z" />
<glyph unicode="Q" horiz-adv-x="1691" d="M154 666q0 191 87 349.5t246.5 252.5t358.5 94t358.5 -94t246.5 -252.5t87 -349.5q0 -170 -70 -316t-200 -244t-297 -126l243 -314q-6 -6 -24.5 -6t-24.5 6l-239 307q-50 -4 -80 -4q-199 0 -358.5 94.5t-246.5 253t-87 349.5zM195 666q0 -136 48.5 -257t133 -210 t206.5 -141t263 -52t263 52t206.5 141t133 210t48.5 257q0 181 -82 331.5t-232 239t-337 88.5t-337 -88.5t-232 -239t-82 -331.5z" />
<glyph unicode="R" horiz-adv-x="1269" d="M205 0v1331h465q122 0 216.5 -34t150.5 -92t84 -129.5t28 -153.5q0 -74 -23 -140.5t-69 -122t-122.5 -93.5t-176.5 -50l409 -516q-6 -6 -25.5 -6t-25.5 6l-405 512h-465v-512q-6 -6 -20.5 -6t-20.5 6zM246 549h424q113 0 199.5 30.5t137.5 84t76 118.5t25 140t-25 140 t-76 118t-137.5 83.5t-199.5 30.5h-424v-745z" />
<glyph unicode="S" horiz-adv-x="1173" d="M154 1032q0 136 111.5 233t301.5 97q238 0 391 -137q6 -6 6 -24.5t-6 -24.5q-69 71 -171 110t-220 39q-172 0 -272 -85.5t-100 -207.5q0 -46 9.5 -81t33.5 -65t53 -52t81 -45.5t103 -42t133 -44.5q59 -19 95 -32t85 -34t78.5 -40t62 -47.5t50 -60t29.5 -74t12 -92.5 q0 -153 -121 -253t-309 -100q-106 0 -218.5 37.5t-199.5 106.5q-6 6 -6 24.5t6 24.5q83 -73 196.5 -114.5t221.5 -41.5q170 0 279.5 89t109.5 227q0 36 -6.5 67.5t-16.5 56.5t-30 48t-38 40t-49.5 34.5t-56 29t-66 26.5t-70.5 25t-79 25q-59 18 -100 32.5t-88 34.5t-77.5 39 t-61 45.5t-48 56t-28 67.5t-10.5 83z" />
<glyph unicode="T" d="M82 1312.5q0 12.5 6 18.5h1020q6 -6 6 -18.5t-6 -18.5h-490v-1294q-6 -6 -20 -6t-20 6v1294h-490q-6 6 -6 18.5z" />
<glyph unicode="U" horiz-adv-x="1431" d="M205 485v846q6 6 20.5 6t20.5 -6v-846q0 -224 129 -351.5t346 -127.5t346 127.5t129 351.5v846q6 6 20.5 6t20.5 -6v-846q0 -238 -140.5 -377t-375.5 -139t-375.5 139t-140.5 377z" />
<glyph unicode="V" horiz-adv-x="1325" d="M82 1331q6 6 21.5 6t21.5 -6l539 -1280l536 1280q6 6 21.5 6t21.5 -6l-559 -1331q-6 -6 -21.5 -6t-21.5 6z" />
<glyph unicode="W" horiz-adv-x="2039" d="M82 1331q6 6 20.5 6t20.5 -6l438 -1272l438 1272q6 6 20.5 6t20.5 -6l439 -1272l438 1272q6 6 20.5 6t20.5 -6l-459 -1331q-6 -6 -20.5 -6t-20.5 6l-438 1272l-438 -1272q-6 -6 -20.5 -6t-20.5 6z" />
<glyph unicode="X" d="M82 0l487 686l-460 645q6 6 24.5 6t24.5 -6l440 -616l440 616q6 6 24.5 6t24.5 -6l-460 -645l487 -686q-6 -6 -24.5 -6t-24.5 6l-467 657l-467 -657q-6 -6 -24.5 -6t-24.5 6z" />
<glyph unicode="Y" horiz-adv-x="1247" d="M82 1331q6 6 23.5 6t23.5 -6l496 -764l493 764q6 6 23.5 6t23.5 -6l-520 -805v-526q-6 -6 -20.5 -6t-20.5 6v524z" />
<glyph unicode="Z" horiz-adv-x="1112" d="M102 0v18l846 1276h-823q-6 6 -6 18.5t6 18.5h885v-18l-846 -1276h840q6 -6 6 -18.5t-6 -18.5h-902z" />
<glyph unicode="[" horiz-adv-x="479" d="M102 -229v1560h269q6 -6 6 -18.5t-6 -18.5h-228v-1487h228q6 -6 6 -18t-6 -18h-269z" />
<glyph unicode="\" horiz-adv-x="595" d="M102 1331q6 6 20.5 6t20.5 -6l351 -1331q-6 -6 -20.5 -6t-20.5 6z" />
<glyph unicode="]" horiz-adv-x="479" d="M103 -211q0 12 6 18h227v1487h-227q-6 6 -6 18.5t6 18.5h268v-1560h-268q-6 6 -6 18z" />
<glyph unicode="^" horiz-adv-x="892" d="M103 963.5q0 21.5 6 27.5l337 340l338 -340q6 -6 6 -27.5t-6 -27.5l-338 342l-337 -342q-6 6 -6 27.5z" />
<glyph unicode="_" horiz-adv-x="1021" d="M103 -186.5q0 12.5 6 18.5h804q6 -6 6 -18.5t-6 -18.5h-804q-6 6 -6 18.5z" />
<glyph unicode="`" horiz-adv-x="475" d="M102 1694q0 9 10.5 18.5t18.5 9.5l242 -247q0 -8 -7 -15.5t-16 -7.5z" />
<glyph unicode="a" horiz-adv-x="1007" d="M117 236q0 117 85 191.5t230 74.5q115 0 217 -46t160 -98v146q0 143 -79 226t-230 83q-155 0 -297 -104q-6 6 -6 22.5t6 22.5q48 40 128.5 68t168.5 28q169 0 259.5 -94t90.5 -252v-504q-6 -6 -20.5 -6t-20.5 6v113q-58 -52 -160 -98t-217 -46q-145 0 -230 75t-85 192z M158 236q0 -101 74 -165.5t200 -64.5q116 0 224 53.5t153 104.5v143q-45 51 -153 104.5t-224 53.5q-126 0 -200 -64t-74 -165z" />
<glyph unicode="b" horiz-adv-x="1097" d="M164 0v1331q6 6 20.5 6t20.5 -6v-637q56 63 144 109.5t202 46.5q191 0 307.5 -125t116.5 -315t-116.5 -315.5t-307.5 -125.5q-114 0 -202 46.5t-144 109.5v-125q-6 -6 -20.5 -6t-20.5 6zM205 176q28 -35 71 -70t119.5 -67.5t155.5 -32.5q174 0 278.5 114.5t104.5 289.5 t-104.5 289t-278.5 114q-79 0 -155.5 -32.5t-119.5 -67.5t-71 -70v-467z" />
<glyph unicode="c" horiz-adv-x="1046" d="M123 410q0 188 128.5 314t328.5 126q92 0 173.5 -28t129.5 -68q6 -6 6 -22.5t-6 -22.5q-142 104 -303 104q-183 0 -299.5 -115t-116.5 -288q0 -174 116.5 -289t299.5 -115q159 0 303 105q6 -6 6 -22.5t-6 -22.5q-49 -40 -130 -68.5t-173 -28.5q-200 0 -328.5 126.5 t-128.5 314.5z" />
<glyph unicode="d" horiz-adv-x="1097" d="M123 410q0 190 116.5 315t307.5 125q114 0 202 -46.5t144 -109.5v637q6 6 20.5 6t20.5 -6v-1331q-6 -6 -20.5 -6t-20.5 6v125q-56 -63 -144 -109.5t-202 -46.5q-191 0 -307.5 125.5t-116.5 315.5zM164 410q0 -175 104.5 -289.5t278.5 -114.5q79 0 155.5 32.5t119.5 67.5 t71 70v467q-28 35 -71 70t-119.5 67.5t-155.5 32.5q-174 0 -278.5 -114t-104.5 -289z" />
<glyph unicode="e" horiz-adv-x="1069" d="M123 410q0 189 119 314.5t311 125.5q189 0 303 -128q95 -107 96 -252q0 -29 -4 -60h-784q0 -184 113.5 -294t295.5 -110q160 0 304 105q6 -6 6 -22.5t-6 -22.5q-49 -40 -130.5 -68.5t-173.5 -28.5q-199 0 -324.5 121.5t-125.5 319.5zM166 446h745v17q0 145 -96 245 q-102 106 -262 105q-165 0 -270.5 -103t-116.5 -264z" />
<glyph unicode="f" horiz-adv-x="765" d="M82 800.5q0 12.5 6 18.5h141v291q0 127 65 189.5t167 62.5q106 0 217 -70q6 -6 6 -24.5t-6 -24.5q-104 82 -217 82q-84 0 -137.5 -51.5t-53.5 -163.5v-291h344q6 -6 6 -18.5t-6 -18.5h-344v-782q-6 -6 -20.5 -6t-20.5 6v782h-141q-6 6 -6 18.5z" />
<glyph unicode="g" horiz-adv-x="1091" d="M123 410q0 190 116.5 315t307.5 125q114 0 202 -46.5t144 -109.5v125q6 6 20.5 6t20.5 -6v-819q0 -161 -96.5 -263t-278.5 -102q-92 0 -173 28.5t-130 68.5q-6 6 -6 22.5t6 22.5q144 -105 303 -105q164 0 249 91t85 237v125q-56 -63 -144 -109.5t-202 -46.5 q-191 0 -307.5 125.5t-116.5 315.5zM164 410q0 -175 104.5 -289.5t278.5 -114.5q79 0 155.5 32.5t119.5 67.5t71 70v467q-28 35 -71 70t-119.5 67.5t-155.5 32.5q-174 0 -278.5 -114t-104.5 -289z" />
<glyph unicode="h" horiz-adv-x="1056" d="M168 0v1331q6 6 20.5 6t20.5 -6v-657q38 40 82 75t120.5 68t151.5 33q167 0 251.5 -93.5t84.5 -248.5v-508q-6 -6 -20.5 -6t-20.5 6v508q0 140 -73 222.5t-222 82.5q-57 0 -116 -21.5t-106 -54.5t-79 -61t-53 -53v-623q-6 -6 -20.5 -6t-20.5 6z" />
<glyph unicode="i" horiz-adv-x="415" d="M168 1092q0 17 12 29t31 12q17 0 29 -12t12 -29q0 -19 -12 -31t-29 -12q-19 0 -31 12t-12 31zM188 0v819q6 6 20.5 6t20.5 -6v-819q-6 -6 -20.5 -6t-20.5 6z" />
<glyph unicode="j" horiz-adv-x="540" d="M10 -286.5q0 18.5 6 24.5q85 -66 170 -66q59 0 96 35.5t37 110.5v1001q6 6 20.5 6t20.5 -6v-1001q0 -90 -49 -136.5t-125 -46.5q-86 0 -170 54q-6 6 -6 24.5zM305 1085q0 14 11 24.5t26 10.5q14 0 24.5 -11t10.5 -24q0 -15 -10.5 -25.5t-24.5 -10.5q-15 0 -26 10.5 t-11 25.5z" />
<glyph unicode="k" horiz-adv-x="901" d="M168 0v1331q6 6 20.5 6t20.5 -6v-887l522 375q6 6 34 6t34 -6l-555 -399l575 -420q-6 -6 -33.5 -6t-33.5 6l-543 395v-395q-6 -6 -20.5 -6t-20.5 6z" />
<glyph unicode="l" horiz-adv-x="366" d="M168 0v1331q6 6 20.5 6t20.5 -6v-1331q-6 -6 -20.5 -6t-20.5 6z" />
<glyph unicode="m" horiz-adv-x="1689" d="M164 0v819q6 6 20.5 6t20.5 -6v-145q165 176 348 176q116 0 190.5 -52.5t104.5 -146.5q84 90 171.5 144.5t197.5 54.5q157 0 236 -93.5t79 -248.5v-508q-6 -6 -20.5 -6t-20.5 6v508q0 141 -67.5 223t-206.5 82q-57 0 -115.5 -21.5t-104.5 -54.5t-77 -61t-52 -53v-623 q-6 -6 -20.5 -6t-20.5 6v508q0 141 -67.5 223t-206.5 82q-57 0 -115 -21.5t-104 -54.5t-77 -61t-52 -53v-623q-6 -6 -20.5 -6t-20.5 6z" />
<glyph unicode="n" horiz-adv-x="1052" d="M164 0v819q6 6 20.5 6t20.5 -6v-145q38 40 82 75t120.5 68t151.5 33q167 0 251.5 -93.5t84.5 -248.5v-508q-6 -6 -20.5 -6t-20.5 6v508q0 140 -73 222.5t-222 82.5q-57 0 -116 -21.5t-106 -54.5t-79 -61t-53 -53v-623q-6 -6 -20.5 -6t-20.5 6z" />
<glyph unicode="o" horiz-adv-x="1118" d="M123 410q0 187 124 313.5t312 126.5t312 -126.5t124 -313.5t-124 -314t-312 -127t-312 127t-124 314zM164 410q0 -172 112.5 -288t282.5 -116t282.5 116t112.5 288t-112.5 287.5t-282.5 115.5t-282.5 -115.5t-112.5 -287.5z" />
<glyph unicode="p" horiz-adv-x="1101" d="M168 -334v1153q6 6 20.5 6t20.5 -6v-125q56 63 144 109.5t202 46.5q191 0 307.5 -125t116.5 -315t-116.5 -315.5t-307.5 -125.5q-114 0 -202 46.5t-144 109.5v-459q-6 -6 -20.5 -6t-20.5 6zM209 176q28 -35 71 -70t119.5 -67.5t155.5 -32.5q174 0 278.5 114.5 t104.5 289.5t-104.5 289t-278.5 114q-79 0 -155.5 -32.5t-119.5 -67.5t-71 -70v-467z" />
<glyph unicode="q" horiz-adv-x="1097" d="M123 410q0 190 116.5 315t307.5 125q114 0 202 -46.5t144 -109.5v125q6 6 20.5 6t20.5 -6v-1153q-6 -6 -20.5 -6t-20.5 6v459q-56 -63 -144 -109.5t-202 -46.5q-191 0 -307.5 125.5t-116.5 315.5zM164 410q0 -175 104.5 -289.5t278.5 -114.5q79 0 155.5 32.5t119.5 67.5 t71 70v467q-28 35 -71 70t-119.5 67.5t-155.5 32.5q-174 0 -278.5 -114t-104.5 -289z" />
<glyph unicode="r" horiz-adv-x="800" d="M164 0v819q6 6 20.5 6t20.5 -6v-176q154 207 330 207q105 0 178 -39q6 -6 6 -21.5t-6 -21.5q-70 45 -178 45q-29 0 -59 -8t-54 -18.5t-51 -30t-44.5 -33.5t-40.5 -38.5t-32.5 -35t-28.5 -33t-20 -24.5v-592q-6 -6 -20.5 -6t-20.5 6z" />
<glyph unicode="s" horiz-adv-x="825" d="M102 635q0 68 44 118.5t109.5 73.5t139.5 23q83 0 165.5 -27.5t131.5 -68.5q6 -6 6 -22.5t-6 -22.5q-139 104 -293 104q-102 0 -179 -45t-77 -129q0 -27 7.5 -48.5t28 -40.5t39 -32t58 -29t66 -25.5t80.5 -27.5q65 -22 102.5 -36.5t80.5 -36.5t65.5 -44t37.5 -54t15 -72 q0 -75 -47 -127.5t-113.5 -74.5t-142.5 -22q-84 0 -167 28t-132 69q-6 6 -6 22.5t6 22.5q140 -105 297 -105q47 0 91.5 10t84.5 30t64 57t24 85q0 24 -7 45t-17 36.5t-31 31t-38.5 26t-51.5 24.5t-58 22.5t-69 23.5q-48 16 -74.5 25.5t-64.5 25t-58.5 27.5t-45 30 t-36.5 36.5t-20.5 42t-8.5 51.5z" />
<glyph unicode="t" horiz-adv-x="712" d="M82 800.5q0 12.5 6 18.5h141v266q6 6 20.5 6t20.5 -6v-266h310q6 -6 6 -18.5t-6 -18.5h-310v-630q0 -75 37 -110.5t94 -35.5q90 0 203 88q6 -6 6 -24.5t-6 -24.5q-101 -76 -203 -76q-75 0 -123.5 47t-48.5 136v630h-141q-6 6 -6 18.5z" />
<glyph unicode="u" horiz-adv-x="1046" d="M158 311v508q6 6 20.5 6t20.5 -6v-508q0 -140 73 -222.5t222 -82.5q57 0 116 21.5t106 55t79 61.5t53 53v622q6 6 20.5 6t20.5 -6v-819q-6 -6 -20.5 -6t-20.5 6v145q-38 -40 -82 -75t-120.5 -68t-151.5 -33q-167 0 -251.5 93.5t-84.5 248.5z" />
<glyph unicode="v" horiz-adv-x="995" d="M82 819q6 6 22.5 6t22.5 -6l371 -772l370 772q6 6 22.5 6t22.5 -6l-393 -819q-6 -6 -22.5 -6t-22.5 6z" />
<glyph unicode="w" horiz-adv-x="1370" d="M82 819q6 6 21.5 6t21.5 -6l270 -758l269 758q6 6 21.5 6t21.5 -6l270 -758l268 758q6 6 21.5 6t21.5 -6l-291 -819q-6 -6 -21.5 -6t-21.5 6l-268 758l-270 -758q-6 -6 -21.5 -6t-21.5 6z" />
<glyph unicode="x" horiz-adv-x="952" d="M82 0l364 420l-346 399q6 6 27 6t27 -6l323 -373l322 373q6 6 26.5 6t26.5 -6l-346 -399l364 -420q-6 -6 -26.5 -6t-26.5 6l-340 393l-342 -393q-6 -6 -26.5 -6t-26.5 6z" />
<glyph unicode="y" horiz-adv-x="995" d="M82 819q6 6 22.5 6t22.5 -6l373 -713l368 713q6 6 22.5 6t22.5 -6l-598 -1153q-6 -6 -22.5 -6t-22.5 6l207 397z" />
<glyph unicode="z" horiz-adv-x="849" d="M92 0v16l600 766h-575q-6 6 -6 18.5t6 18.5h641v-16l-600 -766h594q6 -6 6 -18.5t-6 -18.5h-660z" />
<glyph unicode="{" horiz-adv-x="557" d="M102 535v32q73 23 98.5 52.5t32.5 80.5q17 122 30 194t52.5 197.5t98.5 239.5q6 6 20.5 6t20.5 -6q-61 -126 -98.5 -241.5t-51.5 -189t-33 -210.5q-8 -56 -32.5 -87t-83.5 -52q59 -21 83.5 -52t32.5 -87q19 -137 33 -210.5t51.5 -189t98.5 -241.5q-6 -6 -20.5 -6t-20.5 6 q-59 114 -98.5 239t-52.5 197t-30 194q-7 51 -32.5 81t-98.5 53z" />
<glyph unicode="|" horiz-adv-x="245" d="M102 -123v1454q6 6 20.5 6t20.5 -6v-1454q-6 -6 -20.5 -6t-20.5 6z" />
<glyph unicode="}" horiz-adv-x="557" d="M102 -229q61 126 98.5 241.5t51.5 189t33 210.5q8 56 32.5 87t83.5 52q-59 21 -83.5 52t-32.5 87q-19 137 -33 210.5t-51.5 189t-98.5 241.5q6 6 20.5 6t20.5 -6q59 -114 98.5 -239.5t52.5 -197.5t30 -194q7 -51 32.5 -80.5t98.5 -52.5v-32q-73 -23 -98.5 -53t-32.5 -81 q-17 -122 -30 -194t-52.5 -197t-98.5 -239q-6 -6 -20.5 -6t-20.5 6z" />
<glyph unicode="~" horiz-adv-x="999" d="M103 503.5q0 12.5 6 18.5q1 0 44 24t60 31.5t55.5 18t73.5 10.5q46 0 90 -15.5t73.5 -34.5t71 -34.5t82.5 -15.5q22 0 45.5 4.5t41.5 10.5t42.5 17t37 17t36 19t29.5 16q6 -6 6 -18.5t-6 -18.5q-8 -4 -36 -20t-44.5 -24t-43.5 -19t-54.5 -16t-55.5 -5q-46 0 -90 15.5 t-73.5 34.5t-71 34.5t-82.5 15.5q-26 0 -51.5 -5t-55 -17.5t-43.5 -18.5t-46.5 -24t-34.5 -19q-6 6 -6 18.5z" />
<glyph unicode="&#xa2;" horiz-adv-x="1032" d="M123 410q0 183 121.5 308t314.5 132v190q6 6 20.5 6t20.5 -6v-190q87 -3 162.5 -30.5t120.5 -65.5q6 -6 6 -22.5t-6 -22.5q-142 104 -303 104q-183 0 -299.5 -115t-116.5 -288q0 -174 116.5 -289t299.5 -115q159 0 303 105q6 -6 6 -22.5t-6 -22.5q-45 -38 -120.5 -66 t-162.5 -31v-190q-6 -6 -20.5 -6t-20.5 6v190q-193 7 -314.5 132.5t-121.5 308.5z" />
<glyph unicode="&#xa3;" horiz-adv-x="1226" d="M82 632.5q0 12.5 6 18.5h178q-18 254 -18 353q0 67 26.5 129.5t75.5 114.5t128.5 83t176.5 31q103 0 200.5 -35.5t170.5 -101.5q6 -6 6 -24.5t-6 -24.5q-69 70 -167 109.5t-204 39.5q-89 0 -160.5 -28t-115.5 -74.5t-67 -102.5t-23 -116q0 -90 18 -353h502q6 -6 6 -18.5 t-6 -18.5h-498q7 -122 9 -225t-19 -197.5t-68 -154.5h793q6 -6 6 -18.5t-6 -18.5h-850v18q56 64 80.5 160t22 202t-10.5 234h-180q-6 6 -6 18.5z" />
<glyph unicode="&#xa5;" horiz-adv-x="1247" d="M82 1331q6 6 23.5 6t23.5 -6l496 -764l493 764q6 6 23.5 6t23.5 -6l-516 -796h332q6 -6 6 -18.5t-6 -18.5h-336v-191h336q6 -6 6 -18.5t-6 -18.5h-336v-270q-6 -6 -20.5 -6t-20.5 6v270h-336q-6 6 -6 18.5t6 18.5h336v191h-336q-6 6 -6 18.5t6 18.5h330z" />
<glyph unicode="&#xa8;" horiz-adv-x="768" d="M102 1604q0 17 12 29t31 12q17 0 29 -12t12 -29q0 -19 -12 -31t-29 -12q-19 0 -31 12t-12 31zM582 1604q0 17 12 29t31 12q17 0 29 -12t12 -29q0 -19 -12 -31t-29 -12q-19 0 -31 12t-12 31z" />
<glyph unicode="&#xa9;" horiz-adv-x="1331" d="M102 881q0 148 70.5 274t200.5 202.5t293 76.5t293 -76.5t200 -202.5t70 -274t-70 -274t-200 -202.5t-293 -76.5t-293 76.5t-200.5 202.5t-70.5 274zM143 881q0 -141 64.5 -258.5t185 -187.5t273.5 -70t273 70t184.5 187.5t64.5 258.5t-64.5 258.5t-184.5 187.5t-273 70 t-273.5 -70t-185 -187.5t-64.5 -258.5zM354 881q0 132 90.5 221.5t231.5 89.5q126 0 215 -68q5 -4 5 -22t-5 -21q-99 74 -215 74q-121 0 -201 -77.5t-80 -196.5t80 -197t201 -78q116 0 215 74q5 -3 5 -20.5t-5 -22.5q-89 -68 -215 -68q-141 0 -231.5 90t-90.5 222z" />
<glyph unicode="&#xab;" horiz-adv-x="796" d="M102 444l279 320q6 6 19.5 6t19.5 -6l-262 -320l262 -319q-6 -6 -19.5 -6t-19.5 6zM377 444l278 320q6 6 19.5 6t19.5 -6l-262 -320l262 -319q-6 -6 -19.5 -6t-19.5 6z" />
<glyph unicode="&#xad;" horiz-adv-x="780" d="M103 589.5q0 12.5 6 18.5h563q6 -6 6 -18.5t-6 -18.5h-563q-6 6 -6 18.5z" />
<glyph unicode="&#xae;" horiz-adv-x="1331" d="M102 881q0 148 70.5 274t200.5 202.5t293 76.5t293 -76.5t200 -202.5t70 -274t-70 -274t-200 -202.5t-293 -76.5t-293 76.5t-200.5 202.5t-70.5 274zM143 881q0 -141 64.5 -258.5t185 -187.5t273.5 -70t273 70t184.5 187.5t64.5 258.5t-64.5 258.5t-184.5 187.5t-273 70 t-273.5 -70t-185 -187.5t-64.5 -258.5zM442 580v596h279q90 0 146.5 -41.5t56.5 -128.5q0 -77 -45.5 -118.5t-120.5 -49.5l200 -258q-4 -4 -26 -4t-25 4l-198 256h-226v-256q-5 -4 -21 -4t-20 4zM483 872h238q67 0 114.5 32t47.5 102t-47.5 101.5t-114.5 31.5h-238v-267z " />
<glyph unicode="&#xb4;" horiz-adv-x="475" d="M102 1475l242 247q8 0 18.5 -9.5t10.5 -18.5l-248 -242q-9 0 -16 7.5t-7 15.5z" />
<glyph unicode="&#xb8;" horiz-adv-x="479" d="M103 -388.5q0 13.5 6 19.5q46 -34 104 -34q51 2 87 31t36 81q0 47 -30 76t-74 31.5t-93 -15.5v199h41v-150q67 19 132 -20.5t65 -120.5q0 -69 -47.5 -109t-114.5 -40q-57 0 -106 30q-6 8 -6 21.5z" />
<glyph unicode="&#xbb;" horiz-adv-x="796" d="M102 125l263 319l-263 320q6 6 19.5 6t19.5 -6l279 -320l-279 -319q-6 -6 -19.5 -6t-19.5 6zM377 125l262 319l-262 320q6 6 19.5 6t19.5 -6l278 -320l-278 -319q-6 -6 -19.5 -6t-19.5 6z" />
<glyph unicode="&#x2c6;" horiz-adv-x="753" d="M102 1464l234 236q17 14 41 14t41 -14l233 -236q0 -8 -10.5 -17t-19.5 -9l-244 245l-244 -245q-9 0 -20 9t-11 17z" />
<glyph unicode="&#x2da;" horiz-adv-x="507" d="M102 1602q0 58 43.5 100.5t108.5 42.5q64 0 108 -42.5t44 -100.5q0 -63 -44 -106.5t-108 -43.5q-66 0 -109 43t-43 107zM145 1602q0 -47 29.5 -79t79.5 -32q49 0 80 32.5t31 78.5q0 42 -31 74t-80 32q-50 0 -79.5 -31.5t-29.5 -74.5z" />
<glyph unicode="&#x2dc;" horiz-adv-x="829" d="M103 1556.5q0 12.5 6 18.5q4 2 22.5 12t25 13t22.5 11t25.5 10.5t24 7t28 6t28.5 1.5q57 0 153 -45q55 -24 107 -24q60 0 176 61q6 -6 6 -18.5t-6 -18.5q-4 -2 -22.5 -12t-25 -13t-22.5 -11t-25.5 -10.5t-24 -7t-28 -6t-28.5 -1.5q-58 0 -154 45q-56 24 -106 24 q-60 0 -176 -61q-6 6 -6 18.5z" />
<glyph unicode="&#x401;" horiz-adv-x="1187" d="M205 0v1331h874q6 -6 6 -18.5t-6 -18.5h-833v-589h776q6 -6 6 -18.5t-6 -18.5h-776v-631h833q6 -6 6 -18.5t-6 -18.5h-874zM350 1604q0 17 12 29t31 12q17 0 29 -12t12 -29q0 -19 -12 -31t-29 -12q-19 0 -31 12t-12 31zM829 1604q0 17 12 29t31 12q17 0 29 -12t12 -29 q0 -19 -12 -31t-29 -12q-19 0 -31 12t-12 31z" />
<glyph unicode="&#x410;" horiz-adv-x="1345" d="M82 0l569 1331q6 6 21.5 6t21.5 -6l570 -1331q-6 -6 -21.5 -6t-21.5 6l-193 449h-711l-192 -449q-6 -6 -21.5 -6t-21.5 6zM332 485h682l-342 795z" />
<glyph unicode="&#x411;" horiz-adv-x="1271" d="M205 0v1331h801q6 -6 6 -18.5t-6 -18.5h-760v-499h413q98 0 178 -23.5t133.5 -62.5t89.5 -91t52 -107.5t16 -113.5t-16 -113.5t-52 -107.5t-89.5 -90.5t-133.5 -62t-178 -23.5h-454zM246 37h413q112 0 198 32t134.5 85t72 114.5t23.5 128.5t-23.5 128.5t-72 115 t-134.5 85.5t-198 32h-413v-721z" />
<glyph unicode="&#x412;" horiz-adv-x="1251" d="M205 0v1331h491q173 0 285.5 -91.5t112.5 -240.5q0 -110 -58 -190.5t-162 -114.5q137 -33 206 -121.5t69 -212.5q0 -158 -118 -259t-331 -101h-495zM246 37h454q195 0 301.5 90t106.5 233q0 140 -93.5 226t-287.5 86h-481v-635zM246 709h483q151 0 237.5 79t86.5 211 q0 134 -101 214.5t-256 80.5h-450v-585z" />
<glyph unicode="&#x413;" horiz-adv-x="1144" d="M205 0v1331h852q6 -6 6 -18.5t-6 -18.5h-811v-1294q-6 -6 -20.5 -6t-20.5 6z" />
<glyph unicode="&#x414;" horiz-adv-x="1523" d="M82 37h133q82 59 130.5 170t62.5 250l88 874h782v-1294h164v-285q-6 -6 -20.5 -6t-20.5 6v248h-1278v-248q-6 -6 -20.5 -6t-20.5 6v285zM272 37h965v1257h-705l-83 -837q-13 -129 -59 -245t-118 -175z" />
<glyph unicode="&#x415;" horiz-adv-x="1187" d="M205 0v1331h874q6 -6 6 -18.5t-6 -18.5h-833v-589h776q6 -6 6 -18.5t-6 -18.5h-776v-631h833q6 -6 6 -18.5t-6 -18.5h-874z" />
<glyph unicode="&#x416;" horiz-adv-x="1699" d="M82 4l713 686l-666 645q6 6 28.5 6t28.5 -6l643 -622v622q6 6 20.5 6t20.5 -6v-626l643 622q6 6 29 6t29 -6l-666 -645l713 -686q-6 -6 -28.5 -6t-28.5 6l-691 664v-664q-6 -6 -20.5 -6t-20.5 6v668l-690 -664q-6 -6 -28.5 -6t-28.5 6z" />
<glyph unicode="&#x417;" horiz-adv-x="1218" d="M195 131q0 19 6 25q87 -71 208.5 -110.5t254.5 -39.5q185 0 298 94.5t113 249.5q0 63 -22.5 119.5t-67.5 102.5t-120 73t-171 27h-248q-6 6 -6 18.5t6 18.5h250q145 0 234.5 88t89.5 217q0 60 -23.5 114.5t-67.5 99t-115.5 71t-160.5 26.5q-112 0 -229.5 -40t-202.5 -109 q-6 6 -6 24.5t6 24.5q89 65 205.5 101t226.5 36q98 0 177 -29.5t128.5 -79.5t76 -111.5t26.5 -127.5q0 -110 -62 -197t-168 -123q140 -34 212.5 -128.5t72.5 -215.5q0 -169 -125 -275t-327 -106q-131 0 -252 35.5t-211 101.5q-6 6 -6 25z" />
<glyph unicode="&#x418;" horiz-adv-x="1456" d="M195 0v1331q6 6 20.5 6t20.5 -6v-1265l985 1265q6 6 20.5 6t20.5 -6v-1331q-6 -6 -20.5 -6t-20.5 6v1266l-985 -1266q-6 -6 -20.5 -6t-20.5 6z" />
<glyph unicode="&#x419;" horiz-adv-x="1456" d="M195 0v1331q6 6 20.5 6t20.5 -6v-1265l985 1265q6 6 20.5 6t20.5 -6v-1331q-6 -6 -20.5 -6t-20.5 6v1266l-985 -1266q-6 -6 -20.5 -6t-20.5 6zM410 1648.5q0 16.5 6 22.5q142 -104 303 -104t303 104q6 -6 6 -22.5t-6 -22.5q-48 -40 -129.5 -68t-173.5 -28t-173.5 28 t-129.5 68q-6 6 -6 22.5z" />
<glyph unicode="&#x41a;" horiz-adv-x="1214" d="M205 0v1331q6 6 20.5 6t20.5 -6v-626l776 626q6 6 31.5 6t31.5 -6l-798 -645l846 -686q-6 -6 -32 -6t-32 6l-823 668v-668q-6 -6 -20.5 -6t-20.5 6z" />
<glyph unicode="&#x41b;" horiz-adv-x="1488" d="M82 -10.5q0 12.5 6 18.5q14 -2 41 -2q128 0 196.5 84t88.5 277l98 964h782v-1331q-6 -6 -20.5 -6t-20.5 6v1294h-704l-94 -927q-22 -209 -101 -303.5t-225 -94.5q-27 0 -41 2q-6 6 -6 18.5z" />
<glyph unicode="&#x41c;" horiz-adv-x="1765" d="M82 0l305 1331q6 6 20.5 6t20.5 -6l455 -1274l454 1274q6 6 20.5 6t20.5 -6l305 -1331q-6 -6 -20.5 -6t-20.5 6l-288 1262l-451 -1262q-6 -6 -20.5 -6t-20.5 6l-450 1262l-289 -1262q-6 -6 -20.5 -6t-20.5 6z" />
<glyph unicode="&#x41d;" horiz-adv-x="1476" d="M205 0v1331q6 6 20.5 6t20.5 -6v-626h985v626q6 6 20.5 6t20.5 -6v-1331q-6 -6 -20.5 -6t-20.5 6v668h-985v-668q-6 -6 -20.5 -6t-20.5 6z" />
<glyph unicode="&#x41e;" horiz-adv-x="1691" d="M154 666q0 191 87 349.5t246.5 252.5t358.5 94t358.5 -94t246.5 -252.5t87 -349.5t-87 -349.5t-246.5 -253t-358.5 -94.5t-358.5 94.5t-246.5 253t-87 349.5zM195 666q0 -136 48.5 -257t133 -210t206.5 -141t263 -52t263 52t206.5 141t133 210t48.5 257q0 181 -82 331.5 t-232 239t-337 88.5t-337 -88.5t-232 -239t-82 -331.5z" />
<glyph unicode="&#x41f;" horiz-adv-x="1476" d="M205 0v1331h1067v-1331q-6 -6 -20.5 -6t-20.5 6v1294h-985v-1294q-6 -6 -20.5 -6t-20.5 6z" />
<glyph unicode="&#x420;" horiz-adv-x="1282" d="M205 0v1331h444q122 0 216.5 -35.5t150.5 -96t84 -133.5t28 -155t-28 -155t-84 -133t-150.5 -95.5t-216.5 -35.5h-403v-492q-6 -6 -20.5 -6t-20.5 6zM246 528h403q91 0 165.5 21.5t124.5 57.5t84 85.5t49 104t15 114.5t-15 114.5t-49 104t-84 85.5t-124.5 57.5 t-165.5 21.5h-403v-766z" />
<glyph unicode="&#x421;" horiz-adv-x="1509" d="M154 666q0 191 87 349.5t246.5 252.5t358.5 94q131 0 252 -35.5t211 -101.5q6 -6 6 -24.5t-6 -24.5q-86 71 -208 110t-255 39q-187 0 -337 -88.5t-232 -239t-82 -331.5q0 -136 48.5 -257t133 -210t206.5 -141t263 -52q133 0 254.5 39.5t208.5 110.5q6 -6 6 -25t-6 -25 q-90 -66 -211 -101.5t-252 -35.5q-199 0 -358.5 94.5t-246.5 253t-87 349.5z" />
<glyph unicode="&#x422;" d="M82 1312.5q0 12.5 6 18.5h1020q6 -6 6 -18.5t-6 -18.5h-490v-1294q-6 -6 -20 -6t-20 6v1294h-490q-6 6 -6 18.5z" />
<glyph unicode="&#x423;" horiz-adv-x="1247" d="M82 1331q6 6 23.5 6t23.5 -6l496 -764l493 764q6 6 23.5 6t23.5 -6l-860 -1331q-6 -6 -23.5 -6t-23.5 6l342 530z" />
<glyph unicode="&#x424;" horiz-adv-x="1863" d="M154 670q0 60 13 118t41 117.5t77 110t115.5 90t163 62t212.5 22.5h135v141q6 6 20.5 6t20.5 -6v-141h135q139 0 249 -32.5t178.5 -84.5t114 -122t63.5 -139.5t18 -141.5t-18 -141.5t-63.5 -139.5t-114 -122t-178.5 -84.5t-249 -32.5h-135v-150q-6 -6 -20.5 -6t-20.5 6 v150h-135q-116 0 -212.5 22.5t-163 62t-115.5 90t-77 110t-41 117.5t-13 118zM195 670q0 -67 16 -131t57.5 -129.5t105 -114t167 -79t235.5 -30.5h135v967h-135q-132 0 -235.5 -30.5t-167 -79t-105 -113.5t-57.5 -129t-16 -131zM952 186h135q132 0 235.5 30.5t167 79 t105.5 114t58 129.5t16 131t-16 131t-58 129t-105.5 113.5t-167 79t-235.5 30.5h-135v-967z" />
<glyph unicode="&#x425;" d="M82 0l487 686l-460 645q6 6 24.5 6t24.5 -6l440 -616l440 616q6 6 24.5 6t24.5 -6l-460 -645l487 -686q-6 -6 -24.5 -6t-24.5 6l-467 657l-467 -657q-6 -6 -24.5 -6t-24.5 6z" />
<glyph unicode="&#x426;" horiz-adv-x="1495" d="M205 0v1331q6 6 20.5 6t20.5 -6v-1294h962v1294q6 6 20.5 6t20.5 -6v-1294h164v-285q-6 -6 -20.5 -6t-20.5 6v248h-1167z" />
<glyph unicode="&#x427;" horiz-adv-x="1292" d="M164 918v413q6 6 20.5 6t20.5 -6v-413q0 -82 23 -150t69.5 -121t125 -82.5t183.5 -29.5q73 0 149 22t133.5 54t98.5 61.5t60 52.5v606q6 6 20 6t20 -6v-1331q-6 -6 -20 -6t-20 6v674q-57 -61 -179 -118.5t-262 -57.5q-113 0 -199.5 33t-138.5 91t-78 132.5t-26 163.5z " />
<glyph unicode="&#x428;" horiz-adv-x="2023" d="M205 0v1331q6 6 20.5 6t20.5 -6v-1294h745v1294q6 6 20.5 6t20.5 -6v-1294h746v1294q6 6 20.5 6t20.5 -6v-1331h-1614z" />
<glyph unicode="&#x429;" horiz-adv-x="2064" d="M205 0v1331q6 6 20.5 6t20.5 -6v-1294h745v1294q6 6 20.5 6t20.5 -6v-1294h746v1294q6 6 20.5 6t20.5 -6v-1294h163v-285q-6 -6 -20 -6t-20 6v248h-1737z" />
<glyph unicode="&#x42a;" horiz-adv-x="1433" d="M82 1312.5q0 12.5 6 18.5h309v-504h404q122 0 216.5 -35t150.5 -95t84 -131.5t28 -151.5t-28 -152t-84 -131.5t-150.5 -95t-216.5 -35.5h-445v1294h-268q-6 6 -6 18.5zM397 37h404q113 0 200 32.5t137.5 87t75.5 119.5t25 138t-25 138t-75.5 119.5t-137.5 87t-200 32.5 h-404v-754z" />
<glyph unicode="&#x42b;" horiz-adv-x="1585" d="M205 0v1331q6 6 20.5 6t20.5 -6v-504h403q122 0 216.5 -35t150.5 -95t84 -131.5t28 -151.5t-28 -152t-84 -131.5t-150.5 -95t-216.5 -35.5h-444zM246 37h403q113 0 200 32.5t137.5 87t75.5 119.5t25 138t-25 138t-75.5 119.5t-137.5 87t-200 32.5h-403v-754zM1339 0v1331 q6 6 20.5 6t20.5 -6v-1331q-6 -6 -20.5 -6t-20.5 6z" />
<glyph unicode="&#x42c;" horiz-adv-x="1282" d="M205 0v1331q6 6 20.5 6t20.5 -6v-504h403q122 0 216.5 -35t150.5 -95t84 -131.5t28 -151.5t-28 -152t-84 -131.5t-150.5 -95t-216.5 -35.5h-444zM246 37h403q113 0 200 32.5t137.5 87t75.5 119.5t25 138t-25 138t-75.5 119.5t-137.5 87t-200 32.5h-403v-754z" />
<glyph unicode="&#x42d;" horiz-adv-x="1509" d="M195 131q0 19 6 25q87 -71 208.5 -110.5t254.5 -39.5q185 0 334.5 87t232 235t84.5 327h-733q-6 6 -6 18.5t6 18.5h733q-4 131 -54.5 247.5t-135 201.5t-204.5 134.5t-257 49.5q-133 0 -255 -39t-208 -110q-6 6 -6 24.5t6 24.5q90 66 211 101.5t252 35.5q199 0 358.5 -94 t246.5 -252.5t87 -349.5t-87 -349.5t-246.5 -253t-358.5 -94.5q-131 0 -252 35.5t-211 101.5q-6 6 -6 25z" />
<glyph unicode="&#x42e;" horiz-adv-x="2076" d="M205 0v1331q6 6 20.5 6t20.5 -6v-639h293q5 138 58.5 261t143 213.5t217 143t273.5 52.5q199 0 358.5 -94t246.5 -252.5t87 -349.5t-87 -349.5t-246.5 -253t-358.5 -94.5q-197 0 -355.5 92.5t-246.5 248.5t-90 345h-293v-655q-6 -6 -20.5 -6t-20.5 6zM580 666 q0 -136 48.5 -257t133 -210t206.5 -141t263 -52t263 52t206.5 141t133 210t48.5 257q0 181 -82 331.5t-232 239t-337 88.5t-337 -88.5t-232 -239t-82 -331.5z" />
<glyph unicode="&#x42f;" horiz-adv-x="1269" d="M102 0l410 516q-100 12 -176.5 50t-122.5 93.5t-69 122t-23 140.5q0 82 28 153.5t84 129.5t150.5 92t216.5 34h465v-1331q-6 -6 -20.5 -6t-20.5 6v512h-465l-405 -512q-6 -6 -26 -6t-26 6zM162 922q0 -75 25 -140t76 -118.5t137.5 -84t199.5 -30.5h424v745h-424 q-113 0 -199.5 -30.5t-137.5 -83.5t-76 -118t-25 -140z" />
<glyph unicode="&#x430;" horiz-adv-x="1007" d="M117 236q0 117 85 191.5t230 74.5q115 0 217 -46t160 -98v146q0 143 -79 226t-230 83q-155 0 -297 -104q-6 6 -6 22.5t6 22.5q48 40 128.5 68t168.5 28q169 0 259.5 -94t90.5 -252v-504q-6 -6 -20.5 -6t-20.5 6v113q-58 -52 -160 -98t-217 -46q-145 0 -230 75t-85 192z M158 236q0 -101 74 -165.5t200 -64.5q116 0 224 53.5t153 104.5v143q-45 51 -153 104.5t-224 53.5q-126 0 -200 -64t-74 -165z" />
<glyph unicode="&#x431;" horiz-adv-x="1050" d="M123 412v172q0 200 50.5 324t147.5 187.5t261 94.5q117 22 164.5 45t105.5 96q6 -6 6 -26.5t-6 -26.5q-41 -56 -95.5 -78.5t-174.5 -46.5q-201 -39 -298.5 -144.5t-115.5 -316.5q57 62 150.5 110t205.5 48q190 0 300 -124t110 -316q0 -98 -33.5 -181.5t-90 -140t-131 -88 t-157.5 -31.5q-84 0 -156 28.5t-126.5 82.5t-85.5 139.5t-31 192.5zM164 412q0 -197 101 -301.5t257 -104.5q154 0 262.5 111.5t108.5 292.5q0 177 -98.5 290t-270.5 113q-113 0 -212 -57.5t-148 -116.5v-227z" />
<glyph unicode="&#x432;" horiz-adv-x="964" d="M164 0v819h387q119 0 185.5 -49.5t66.5 -151.5q0 -137 -117 -180q156 -50 156 -211q0 -61 -23 -106t-63 -71t-88.5 -38t-106.5 -12h-397zM205 37h356q240 0 240 190q0 54 -19.5 92.5t-55 59.5t-76 30t-89.5 9h-356v-381zM205 455h352q101 0 153 37.5t52 125.5t-55 126 t-156 38h-346v-327z" />
<glyph unicode="&#x433;" horiz-adv-x="880" d="M164 0v819h629q6 -6 6 -18.5t-6 -18.5h-588v-782q-6 -6 -20.5 -6t-20.5 6z" />
<glyph unicode="&#x434;" horiz-adv-x="1265" d="M82 37h141q113 95 137 328l48 454h583v-782h193v-258q-6 -6 -20.5 -6t-20.5 6v221h-1020v-221q-6 -6 -20.5 -6t-20.5 6v258zM279 37h671v745h-506l-43 -417q-12 -115 -44 -201t-78 -127z" />
<glyph unicode="&#x435;" horiz-adv-x="1069" d="M123 410q0 189 119 314.5t311 125.5q189 0 303.5 -128.5t91.5 -311.5h-784q0 -184 113.5 -294t295.5 -110q160 0 304 105q6 -6 6 -22.5t-6 -22.5q-49 -40 -130.5 -68.5t-173.5 -28.5q-199 0 -324.5 121.5t-125.5 319.5zM166 446h745q6 156 -96 261.5t-262 105.5 q-165 0 -270.5 -103t-116.5 -264z" />
<glyph unicode="&#x436;" horiz-adv-x="1241" d="M82 0l489 420l-469 399q6 6 31 6t31 -6l436 -370v370q6 6 20.5 6t20.5 -6v-370l436 370q6 6 31 6t31 -6l-469 -399l489 -420q-6 -6 -30.5 -6t-30.5 6l-457 391v-391q-6 -6 -20.5 -6t-20.5 6v391l-457 -391q-6 -6 -30.5 -6t-30.5 6z" />
<glyph unicode="&#x437;" horiz-adv-x="845" d="M103 88.5q0 16.5 6 22.5q144 -105 303 -105q122 0 206 54t84 155q0 103 -68.5 153t-170.5 50h-209q-6 6 -6 18.5t6 18.5h205q98 0 151.5 42.5t53.5 129.5q0 84 -77.5 135t-180.5 51q-91 0 -155 -26.5t-134 -77.5q-6 6 -6 22.5t6 22.5q116 96 289 96q120 0 209.5 -62.5 t89.5 -160.5q0 -67 -30.5 -116.5t-86.5 -72.5q70 -24 112.5 -82t42.5 -141q0 -116 -96 -181t-235 -65q-92 0 -173 28.5t-130 68.5q-6 6 -6 22.5z" />
<glyph unicode="&#x438;" horiz-adv-x="1085" d="M164 0v819q6 6 20.5 6t20.5 -6v-762l676 762q6 6 20.5 6t20.5 -6v-819q-6 -6 -20.5 -6t-20.5 6v762l-676 -762q-6 -6 -20.5 -6t-20.5 6z" />
<glyph unicode="&#x439;" horiz-adv-x="1085" d="M164 0v819q6 6 20.5 6t20.5 -6v-762l676 762q6 6 20.5 6t20.5 -6v-819q-6 -6 -20.5 -6t-20.5 6v762l-676 -762q-6 -6 -20.5 -6t-20.5 6zM234 1136.5q0 16.5 6 22.5q142 -104 303 -104t303 104q6 -6 6 -22.5t-6 -22.5q-48 -40 -129.5 -68t-173.5 -28t-173.5 28t-129.5 68 q-6 6 -6 22.5z" />
<glyph unicode="&#x43a;" horiz-adv-x="897" d="M164 0v819q6 6 20.5 6t20.5 -6v-375l522 375q6 6 34 6t34 -6l-555 -399l575 -420q-6 -6 -33.5 -6t-33.5 6l-543 395v-395q-6 -6 -20.5 -6t-20.5 6z" />
<glyph unicode="&#x43b;" horiz-adv-x="1138" d="M82 -10.5q0 12.5 6 18.5q10 -2 31 -2q169 0 190 215l62 598h604v-819q-6 -6 -20.5 -6t-20.5 6v782h-526l-58 -561q-25 -252 -231 -252q-21 0 -31 2q-6 6 -6 18.5z" />
<glyph unicode="&#x43c;" horiz-adv-x="1419" d="M82 0l250 819q6 6 21.5 6t21.5 -6l336 -770l333 770q6 6 21.5 6t21.5 -6l250 -819q-6 -6 -21.5 -6t-21.5 6l-231 762l-332 -762q-6 -6 -21.5 -6t-21.5 6l-332 762l-231 -762q-6 -6 -21.5 -6t-21.5 6z" />
<glyph unicode="&#x43d;" horiz-adv-x="1085" d="M164 0v819q6 6 20.5 6t20.5 -6v-383h676v383q6 6 20.5 6t20.5 -6v-819q-6 -6 -20.5 -6t-20.5 6v399h-676v-399q-6 -6 -20.5 -6t-20.5 6z" />
<glyph unicode="&#x43e;" horiz-adv-x="1118" d="M123 410q0 187 124 313.5t312 126.5t312 -126.5t124 -313.5t-124 -314t-312 -127t-312 127t-124 314zM164 410q0 -172 112.5 -288t282.5 -116t282.5 116t112.5 288t-112.5 287.5t-282.5 115.5t-282.5 -115.5t-112.5 -287.5z" />
<glyph unicode="&#x43f;" horiz-adv-x="1085" d="M164 0v819h758v-819q-6 -6 -20.5 -6t-20.5 6v782h-676v-782q-6 -6 -20.5 -6t-20.5 6z" />
<glyph unicode="&#x440;" horiz-adv-x="1101" d="M168 -334v1153q6 6 20.5 6t20.5 -6v-125q56 63 144 109.5t202 46.5q191 0 307.5 -125t116.5 -315t-116.5 -315.5t-307.5 -125.5q-114 0 -202 46.5t-144 109.5v-459q-6 -6 -20.5 -6t-20.5 6zM209 176q28 -35 71 -70t119.5 -67.5t155.5 -32.5q174 0 278.5 114.5 t104.5 289.5t-104.5 289t-278.5 114q-79 0 -155.5 -32.5t-119.5 -67.5t-71 -70v-467z" />
<glyph unicode="&#x441;" horiz-adv-x="1046" d="M123 410q0 188 128.5 314t328.5 126q92 0 173.5 -28t129.5 -68q6 -6 6 -22.5t-6 -22.5q-142 104 -303 104q-183 0 -299.5 -115t-116.5 -288q0 -174 116.5 -289t299.5 -115q159 0 303 105q6 -6 6 -22.5t-6 -22.5q-49 -40 -130 -68.5t-173 -28.5q-200 0 -328.5 126.5 t-128.5 314.5z" />
<glyph unicode="&#x442;" horiz-adv-x="946" d="M82 800.5q0 12.5 6 18.5h770q6 -6 6 -18.5t-6 -18.5h-364v-782q-6 -6 -20.5 -6t-20.5 6v782h-365q-6 6 -6 18.5z" />
<glyph unicode="&#x443;" horiz-adv-x="995" d="M82 819q6 6 22.5 6t22.5 -6l373 -713l368 713q6 6 22.5 6t22.5 -6l-598 -1153q-6 -6 -22.5 -6t-22.5 6l207 397z" />
<glyph unicode="&#x444;" horiz-adv-x="1359" d="M123 410q0 187 124 313.5t312 126.5h100v481q6 6 20.5 6t20.5 -6v-481h101q188 0 312 -126.5t124 -313.5t-124 -314t-312 -127h-101v-303q-6 -6 -20.5 -6t-20.5 6v303h-100q-188 0 -312 127t-124 314zM164 410q0 -172 112.5 -288t282.5 -116h100v807h-100 q-170 0 -282.5 -115.5t-112.5 -287.5zM700 6h101q170 0 282.5 116t112.5 288t-112.5 287.5t-282.5 115.5h-101v-807z" />
<glyph unicode="&#x445;" horiz-adv-x="952" d="M82 0l364 420l-346 399q6 6 27 6t27 -6l323 -373l322 373q6 6 26.5 6t26.5 -6l-346 -399l364 -420q-6 -6 -26.5 -6t-26.5 6l-340 393l-342 -393q-6 -6 -26.5 -6t-26.5 6z" />
<glyph unicode="&#x446;" horiz-adv-x="1169" d="M164 0v819q6 6 20.5 6t20.5 -6v-782h649v782q6 6 20.5 6t20.5 -6v-782h192v-275q-6 -6 -20 -6t-20 6v238h-883z" />
<glyph unicode="&#x447;" horiz-adv-x="1003" d="M117 537v282q6 6 20.5 6t20.5 -6v-282q0 -273 278 -273q82 0 162 31t123.5 62t77.5 65v397q6 6 20.5 6t20.5 -6v-819q-6 -6 -20.5 -6t-20.5 6v375q-59 -57 -152 -102.5t-209 -45.5q-158 0 -239.5 80.5t-81.5 229.5z" />
<glyph unicode="&#x448;" horiz-adv-x="1556" d="M164 0v819q6 6 20.5 6t20.5 -6v-782h553v782q6 6 20.5 6t20.5 -6v-782h553v782q6 6 20.5 6t20.5 -6v-819h-1229z" />
<glyph unicode="&#x449;" horiz-adv-x="1667" d="M164 0v819q6 6 20.5 6t20.5 -6v-782h553v782q6 6 20.5 6t20.5 -6v-782h553v782q6 6 20.5 6t20.5 -6v-782h192v-258q-6 -6 -20.5 -6t-20.5 6v221h-1380z" />
<glyph unicode="&#x44a;" horiz-adv-x="1030" d="M82 800.5q0 12.5 6 18.5h225v-295h324q58 0 110 -14t97 -43t71.5 -81.5t26.5 -123.5t-26.5 -123.5t-71.5 -81.5t-97 -43t-110 -14h-365v782h-184q-6 6 -6 18.5zM313 37h324q50 0 93.5 10.5t83.5 34.5t63.5 70t23.5 110t-23.5 110t-63.5 70t-83.5 34.5t-93.5 10.5h-324 v-450z" />
<glyph unicode="&#x44b;" horiz-adv-x="1202" d="M164 0v819q6 6 20.5 6t20.5 -6v-295h323q58 0 110 -14t97.5 -43t72 -81.5t26.5 -123.5t-26.5 -123.5t-72 -81.5t-97.5 -43t-110 -14h-364zM205 37h323q50 0 94 10.5t84 34.5t63.5 70t23.5 110t-23.5 110t-63.5 70t-84 34.5t-94 10.5h-323v-450zM997 0v819q6 6 20.5 6 t20.5 -6v-819q-6 -6 -20.5 -6t-20.5 6z" />
<glyph unicode="&#x44c;" horiz-adv-x="921" d="M164 0v819q6 6 20.5 6t20.5 -6v-295h323q58 0 110 -14t97.5 -43t72 -81.5t26.5 -123.5t-26.5 -123.5t-72 -81.5t-97.5 -43t-110 -14h-364zM205 37h323q50 0 94 10.5t84 34.5t63.5 70t23.5 110t-23.5 110t-63.5 70t-84 34.5t-94 10.5h-323v-450z" />
<glyph unicode="&#x44d;" horiz-adv-x="1046" d="M158 88.5q0 16.5 6 22.5q144 -105 303 -105q180 0 295.5 111t120.5 280h-473q-6 6 -6 18.5t6 18.5h473q-9 165 -124.5 272t-291.5 107q-161 0 -303 -104q-6 6 -6 22.5t6 22.5q48 40 129.5 68t173.5 28q200 0 328.5 -126t128.5 -314t-128.5 -314.5t-328.5 -126.5 q-92 0 -173 28.5t-130 68.5q-6 6 -6 22.5z" />
<glyph unicode="&#x44e;" horiz-adv-x="1419" d="M164 0v819q6 6 20.5 6t20.5 -6v-385h219q9 179 132 297.5t304 118.5q188 0 312 -126.5t124 -313.5t-124 -314t-312 -127q-185 0 -308 122.5t-128 305.5h-219v-397q-6 -6 -20.5 -6t-20.5 6zM465 410q0 -172 112.5 -288t282.5 -116t282.5 116t112.5 288t-112.5 287.5 t-282.5 115.5t-282.5 -115.5t-112.5 -287.5z" />
<glyph unicode="&#x44f;" horiz-adv-x="956" d="M82 0l274 354q-103 11 -165 67t-62 165q0 63 23 109.5t63 72.5t88.5 38.5t106.5 12.5h383v-819q-6 -6 -20.5 -6t-20.5 6v352h-349l-272 -352q-6 -6 -24.5 -6t-24.5 6zM170 586q0 -197 240 -197h342v393h-342q-240 0 -240 -196z" />
<glyph unicode="&#x451;" horiz-adv-x="1069" d="M123 410q0 189 119 314.5t311 125.5q189 0 303.5 -128.5t91.5 -311.5h-784q0 -184 113.5 -294t295.5 -110q160 0 304 105q6 -6 6 -22.5t-6 -22.5q-49 -40 -130.5 -68.5t-173.5 -28.5q-199 0 -324.5 121.5t-125.5 319.5zM166 446h745q6 156 -96 261.5t-262 105.5 q-165 0 -270.5 -103t-116.5 -264zM256 1092q0 17 12 29t31 12q17 0 29 -12t12 -29q0 -19 -12 -31t-29 -12q-19 0 -31 12t-12 31zM735 1092q0 17 12 29t31 12q17 0 29 -12t12 -29q0 -19 -12 -31t-29 -12q-19 0 -31 12t-12 31z" />
<glyph unicode="&#x2000;" horiz-adv-x="872" />
<glyph unicode="&#x2001;" horiz-adv-x="1745" />
<glyph unicode="&#x2002;" horiz-adv-x="872" />
<glyph unicode="&#x2003;" horiz-adv-x="1745" />
<glyph unicode="&#x2004;" horiz-adv-x="581" />
<glyph unicode="&#x2005;" horiz-adv-x="436" />
<glyph unicode="&#x2006;" horiz-adv-x="290" />
<glyph unicode="&#x2007;" horiz-adv-x="290" />
<glyph unicode="&#x2008;" horiz-adv-x="218" />
<glyph unicode="&#x2009;" horiz-adv-x="349" />
<glyph unicode="&#x200a;" horiz-adv-x="96" />
<glyph unicode="&#x2010;" horiz-adv-x="780" d="M103 589.5q0 12.5 6 18.5h563q6 -6 6 -18.5t-6 -18.5h-563q-6 6 -6 18.5z" />
<glyph unicode="&#x2011;" horiz-adv-x="780" d="M103 589.5q0 12.5 6 18.5h563q6 -6 6 -18.5t-6 -18.5h-563q-6 6 -6 18.5z" />
<glyph unicode="&#x2012;" horiz-adv-x="780" d="M103 589.5q0 12.5 6 18.5h563q6 -6 6 -18.5t-6 -18.5h-563q-6 6 -6 18.5z" />
<glyph unicode="&#x2013;" horiz-adv-x="1073" d="M103 589.5q0 12.5 6 18.5h856q6 -6 6 -18.5t-6 -18.5h-856q-6 6 -6 18.5z" />
<glyph unicode="&#x2014;" horiz-adv-x="1302" d="M103 589.5q0 12.5 6 18.5h1085q6 -6 6 -18.5t-6 -18.5h-1085q-6 6 -6 18.5z" />
<glyph unicode="&#x2018;" horiz-adv-x="303" d="M106 1049q-11 55 6.5 152t47.5 130q6 6 20.5 6t20.5 -6q-27 -34 -46 -115.5t-12 -134.5q8 2 15 2q16 0 27.5 -11.5t11.5 -29.5q0 -17 -11 -30t-32 -13q-38 0 -48 50z" />
<glyph unicode="&#x2019;" horiz-adv-x="303" d="M102 1030q27 34 46 115.5t12 134.5q-8 -2 -15 -2q-16 0 -27.5 11.5t-11.5 29.5q0 17 11 30t33 13q38 0 47 -49q11 -55 -6.5 -152.5t-47.5 -130.5q-6 -6 -20.5 -6t-20.5 6z" />
<glyph unicode="&#x201a;" horiz-adv-x="303" d="M102 -279q27 34 46 115.5t12 134.5q-8 -2 -15 -2q-16 0 -27.5 11.5t-11.5 29.5q0 17 11 30t33 13q38 0 47 -49q11 -55 -6.5 -152.5t-47.5 -130.5q-6 -6 -20.5 -6t-20.5 6z" />
<glyph unicode="&#x201c;" horiz-adv-x="499" d="M106 1049q-11 55 6.5 152t47.5 130q6 6 20.5 6t20.5 -6q-27 -34 -46 -115.5t-12 -134.5q8 2 15 2q16 0 27.5 -11.5t11.5 -29.5q0 -17 -11 -30t-32 -13q-38 0 -48 50zM303 1049q-11 55 6 152t47 130q6 6 20.5 6t20.5 -6q-27 -34 -45.5 -115.5t-11.5 -134.5q8 2 14 2 q16 0 27.5 -11.5t11.5 -29.5q0 -17 -11 -30t-32 -13q-37 0 -47 50z" />
<glyph unicode="&#x201d;" horiz-adv-x="499" d="M102 1030q27 34 46 115.5t12 134.5q-8 -2 -15 -2q-16 0 -27.5 11.5t-11.5 29.5q0 17 11 30t33 13q38 0 47 -49q11 -55 -6.5 -152.5t-47.5 -130.5q-6 -6 -20.5 -6t-20.5 6zM299 1030q27 34 45.5 115.5t11.5 134.5q-8 -2 -14 -2q-16 0 -27.5 11.5t-11.5 29.5q0 17 11 30 t32 13q38 0 47 -49q11 -55 -6 -152.5t-47 -130.5q-6 -6 -20.5 -6t-20.5 6z" />
<glyph unicode="&#x201e;" horiz-adv-x="499" d="M102 -279q27 34 46 115.5t12 134.5q-8 -2 -15 -2q-16 0 -27.5 11.5t-11.5 29.5q0 17 11 30t33 13q38 0 47 -49q11 -55 -6.5 -152.5t-47.5 -130.5q-6 -6 -20.5 -6t-20.5 6zM299 -279q27 34 45.5 115.5t11.5 134.5q-8 -2 -14 -2q-16 0 -27.5 11.5t-11.5 29.5q0 17 11 30 t32 13q38 0 47 -49q11 -55 -6 -152.5t-47 -130.5q-6 -6 -20.5 -6t-20.5 6z" />
<glyph unicode="&#x2022;" horiz-adv-x="352" d="M102 586q0 31 21.5 52t52.5 21t52.5 -21t21.5 -52t-21.5 -52.5t-52.5 -21.5t-52.5 21.5t-21.5 52.5z" />
<glyph unicode="&#x2026;" horiz-adv-x="903" d="M102 12q0 17 12 29t31 12q17 0 29 -12t12 -29q0 -19 -12 -31t-29 -12q-19 0 -31 12t-12 31zM410 12q0 17 12 29t31 12q17 0 29 -12t12 -29q0 -19 -12 -31t-29 -12q-19 0 -31 12t-12 31zM717 12q0 17 12 29t31 12q17 0 29 -12t12 -29q0 -19 -12 -31t-29 -12q-19 0 -31 12 t-12 31z" />
<glyph unicode="&#x202f;" horiz-adv-x="349" />
<glyph unicode="&#x2039;" horiz-adv-x="522" d="M102 444l279 320q6 6 19.5 6t19.5 -6l-262 -320l262 -319q-6 -6 -19.5 -6t-19.5 6z" />
<glyph unicode="&#x203a;" horiz-adv-x="522" d="M102 125l263 319l-263 320q6 6 19.5 6t19.5 -6l279 -320l-279 -319q-6 -6 -19.5 -6t-19.5 6z" />
<glyph unicode="&#x205f;" horiz-adv-x="436" />
<glyph unicode="&#x20ac;" horiz-adv-x="1624" d="M103 542.5q0 12.5 6 18.5h167q-8 47 -8 105q0 57 8 104h-167q-6 6 -6 18.5t6 18.5h172q23 118 82.5 219.5t146.5 176t203.5 117t247.5 42.5t251 -35.5t211 -101.5q6 -6 6 -24.5t-6 -24.5q-86 71 -207.5 110t-254.5 39q-244 0 -418 -145.5t-219 -372.5h634q6 -6 6 -18.5 t-6 -18.5h-641q-8 -47 -8 -104q0 -58 8 -105h560q6 -6 6 -18.5t-6 -18.5h-553q45 -227 219 -372.5t418 -145.5q133 0 254 39.5t208 110.5q6 -6 6 -25t-6 -25q-91 -66 -211 -101.5t-251 -35.5t-247.5 42.5t-203.5 117t-146.5 176t-82.5 219.5h-172q-6 6 -6 18.5z" />
<glyph unicode="&#x2122;" horiz-adv-x="1308" d="M103 1312.5q0 12.5 6 18.5h434q6 -6 6 -18.5t-6 -18.5h-197v-376q-6 -6 -20.5 -6t-20.5 6v376h-196q-6 6 -6 18.5zM565 918l123 405q6 6 21.5 6t21.5 -6l156 -356l153 356q6 6 21.5 6t21.5 -6l123 -405q-6 -6 -21.5 -6t-21.5 6l-104 348l-152 -348q-6 -6 -21.5 -6 t-21.5 6l-151 348l-105 -348q-6 -6 -21.5 -6t-21.5 6z" />
<glyph unicode="&#x25fc;" horiz-adv-x="829" d="M0 0v829h829v-829h-829z" />
</font>
</defs>
</svg>
